<?xml version="1.0" encoding="UTF-8" standalone="no"?>
<!-- Generator: Adobe Illustrator 16.0.3, SVG Export Plug-In . SVG Version: 6.00 Build 0)  -->
<svg xmlns:dc="http://purl.org/dc/elements/1.1/" xmlns:cc="http://creativecommons.org/ns#" xmlns:rdf="http://www.w3.org/1999/02/22-rdf-syntax-ns#" xmlns:svg="http://www.w3.org/2000/svg" xmlns="http://www.w3.org/2000/svg" xmlns:sodipodi="http://sodipodi.sourceforge.net/DTD/sodipodi-0.dtd" xmlns:inkscape="http://www.inkscape.org/namespaces/inkscape" version="1.1" id="Layer_1" x="0px" y="0px" width="100px" height="256px" viewBox="0 0 100 256" enable-background="new 0 0 100 256" xml:space="preserve" sodipodi:docname="Army-GRE-OF-02.svg" inkscape:version="0.92.2 (5c3e80d, 2017-08-06)"><metadata id="metadata498"><rdf:RDF><cc:Work rdf:about=""><dc:format>image/svg+xml</dc:format><dc:type rdf:resource="http://purl.org/dc/dcmitype/StillImage"/></cc:Work></rdf:RDF></metadata><defs id="defs496"/><sodipodi:namedview pagecolor="#ffffff" bordercolor="#666666" borderopacity="1" objecttolerance="10" gridtolerance="10" guidetolerance="10" inkscape:pageopacity="0" inkscape:pageshadow="2" inkscape:window-width="1920" inkscape:window-height="1016" id="namedview494" showgrid="false" inkscape:zoom="0.921875" inkscape:cx="52.169492" inkscape:cy="128" inkscape:window-x="0" inkscape:window-y="27" inkscape:window-maximized="1" inkscape:current-layer="Layer_1"/><polygon fill="#2D2D2B" points="100,256 0,256 7,30 50,0 93,30 " id="polygon2" style="fill:#3f4845;fill-opacity:1"/><g id="g12"><g id="g6"><path d="M44.988,65.288V27.401c0-2.768,2.244-5.01,5.01-5.01l0,0c2.766,0,5.01,2.242,5.012,5.01l0,0v37.887h-0.002    c0,2.766-2.244,5.008-5.01,5.008l0,0C47.232,70.295,44.988,68.053,44.988,65.288L44.988,65.288z M45.988,27.401l-0.002,37.887    c0.006,2.213,1.797,4.006,4.012,4.01l0,0c2.215-0.004,4.008-1.797,4.012-4.01l0,0V27.401c-0.004-2.215-1.797-4.006-4.012-4.01l0,0    C47.783,23.395,45.992,25.186,45.988,27.401L45.988,27.401z" id="path4"/></g><g id="g10"><path d="M49.609,65.985l-0.223-39.277c-0.002-0.277,0.221-0.502,0.496-0.504l0,0c0.277-0.002,0.502,0.221,0.504,0.498l0,0    l0.223,39.277c0.002,0.277-0.221,0.502-0.497,0.504l0,0c-0.002,0-0.004,0-0.004,0l0,0C49.834,66.483,49.611,66.26,49.609,65.985    L49.609,65.985z" id="path8"/></g></g><g id="g54"><g id="g52"><g id="g37"><linearGradient id="SVGID_1_" gradientUnits="userSpaceOnUse" x1="-973.0171" y1="228.4209" x2="-954.3817" y2="247.0564" gradientTransform="matrix(0 -1 -1 0 287.7402 -930.6992)"><stop offset="0.0056" style="stop-color:#FBCA11" id="stop14"/><stop offset="0.2528" style="stop-color:#FFFFBF" id="stop16"/><stop offset="0.2997" style="stop-color:#F9F3AE" id="stop18"/><stop offset="0.393" style="stop-color:#E8D381" id="stop20"/><stop offset="0.5226" style="stop-color:#CEA139" id="stop22"/><stop offset="0.5955" style="stop-color:#BE820E" id="stop24"/><stop offset="0.8558" style="stop-color:#E8D56A" id="stop26"/><stop offset="0.8708" style="stop-color:#EADA6F" id="stop28"/><stop offset="1" style="stop-color:#FFFFBF" id="stop30"/></linearGradient><circle fill="url(#SVGID_1_)" cx="50" cy="33" r="13.177" id="circle33"/><path fill="#D8962D" d="M50,46.427c-7.403,0-13.426-6.023-13.426-13.426c0-7.405,6.022-13.429,13.426-13.429     c7.404,0,13.426,6.024,13.426,13.429C63.426,40.404,57.402,46.427,50,46.427z M50,20.073c-7.127,0-12.926,5.8-12.926,12.929     c0,7.127,5.799,12.926,12.926,12.926s12.926-5.798,12.926-12.926C62.926,25.873,57.127,20.073,50,20.073z" id="path35"/></g><radialGradient id="SVGID_2_" cx="-963.6992" cy="237.7402" r="11.0974" gradientTransform="matrix(0 -1 -1 0 287.7402 -930.6992)" gradientUnits="userSpaceOnUse"><stop offset="0" style="stop-color:#FFFFBF" id="stop39"/><stop offset="0.1369" style="stop-color:#F9F3AE" id="stop41"/><stop offset="0.4091" style="stop-color:#E8D381" id="stop43"/><stop offset="0.7872" style="stop-color:#CEA139" id="stop45"/><stop offset="1" style="stop-color:#BE820E" id="stop47"/></radialGradient><path fill="url(#SVGID_2_)" d="M38.904,33.005c0.006,6.133,4.965,11.087,11.094,11.094l0,0    c6.129-0.007,11.084-4.961,11.098-11.094l0,0c-0.014-6.126-4.969-11.091-11.098-11.104l0,0    C43.869,21.915,38.91,26.879,38.904,33.005L38.904,33.005z" id="path50"/></g></g><g id="g491"><g id="g199"><g id="g167"><linearGradient id="SVGID_3_" gradientUnits="userSpaceOnUse" x1="31.667" y1="143.1758" x2="68.2822" y2="143.1758"><stop offset="0" style="stop-color:#C3B0AE" id="stop56"/><stop offset="0.1259" style="stop-color:#C7B6B4" id="stop58"/><stop offset="0.2918" style="stop-color:#D2C6C3" id="stop60"/><stop offset="0.4793" style="stop-color:#E5E2DD" id="stop62"/><stop offset="0.5112" style="stop-color:#E9E7E2" id="stop64"/><stop offset="0.5929" style="stop-color:#D3D0CC" id="stop66"/><stop offset="0.7647" style="stop-color:#9B9493" id="stop68"/><stop offset="1" style="stop-color:#453A3D" id="stop70"/></linearGradient><polygon fill="url(#SVGID_3_)" points="57.903,147.781 68.282,143.204 57.901,138.627 59.128,127.35 49.976,133.993      40.821,127.292 42.048,138.57 31.667,143.146 42.048,147.725 42.048,147.725 40.821,159.002 49.976,152.301 59.128,159.06    " id="polygon73"/><g id="g165"><linearGradient id="SVGID_4_" gradientUnits="userSpaceOnUse" x1="45.3979" y1="135.2188" x2="49.3619" y2="132.9302"><stop offset="0.0056" style="stop-color:#DFE2E2" id="stop75"/><stop offset="0.2528" style="stop-color:#FFFFE0" id="stop77"/><stop offset="0.3797" style="stop-color:#F1EED4" id="stop79"/><stop offset="0.5955" style="stop-color:#D1C8B8" id="stop81"/><stop offset="0.7865" style="stop-color:#EDEDED" id="stop83"/><stop offset="1" style="stop-color:#D1D1AD" id="stop85"/></linearGradient><polygon fill="url(#SVGID_4_)" points="49.976,143.146 40.821,127.292 49.976,133.993     " id="polygon88"/><linearGradient id="SVGID_5_" gradientUnits="userSpaceOnUse" x1="156.1328" y1="1001.1592" x2="160.0967" y2="998.8706" gradientTransform="matrix(0.5 -0.866 0.866 0.5 -904.1708 -222.1878)"><stop offset="0.0056" style="stop-color:#DFE2E2" id="stop90"/><stop offset="0.2528" style="stop-color:#FFFFE0" id="stop92"/><stop offset="0.3797" style="stop-color:#F1EED4" id="stop94"/><stop offset="0.5955" style="stop-color:#D1C8B8" id="stop96"/><stop offset="0.7865" style="stop-color:#EDEDED" id="stop98"/><stop offset="1" style="stop-color:#D1D1AD" id="stop100"/></linearGradient><polygon fill="url(#SVGID_5_)" points="50.052,143.181 31.744,143.182 42.125,138.604     " id="polygon103"/><linearGradient id="SVGID_6_" gradientUnits="userSpaceOnUse" x1="-532.3247" y1="1525.415" x2="-528.3616" y2="1523.127" gradientTransform="matrix(-0.5 -0.866 0.866 -0.5 -1541.7788 452.8317)"><stop offset="0.0056" style="stop-color:#DFE2E2" id="stop105"/><stop offset="0.2528" style="stop-color:#FFFFE0" id="stop107"/><stop offset="0.3797" style="stop-color:#F1EED4" id="stop109"/><stop offset="0.5955" style="stop-color:#D1C8B8" id="stop111"/><stop offset="0.7865" style="stop-color:#EDEDED" id="stop113"/><stop offset="1" style="stop-color:#D1D1AD" id="stop115"/></linearGradient><polygon fill="url(#SVGID_6_)" points="49.97,143.188 40.817,159.044 42.044,147.766     " id="polygon118"/><linearGradient id="SVGID_7_" gradientUnits="userSpaceOnUse" x1="-1336.7295" y1="1195.6455" x2="-1332.7656" y2="1193.3569" gradientTransform="matrix(-1 0 0 -1 -1282.1895 1346.6797)"><stop offset="0.0056" style="stop-color:#DFE2E2" id="stop120"/><stop offset="0.2528" style="stop-color:#FFFFE0" id="stop122"/><stop offset="0.3797" style="stop-color:#F1EED4" id="stop124"/><stop offset="0.5955" style="stop-color:#D1C8B8" id="stop126"/><stop offset="0.7865" style="stop-color:#EDEDED" id="stop128"/><stop offset="1" style="stop-color:#D1D1AD" id="stop130"/></linearGradient><polygon fill="url(#SVGID_7_)" points="49.962,143.105 59.116,158.96 49.962,152.259     " id="polygon133"/><linearGradient id="SVGID_8_" gradientUnits="userSpaceOnUse" x1="-1445.6274" y1="328.8223" x2="-1441.6636" y2="326.5337" gradientTransform="matrix(-0.5 0.866 -0.866 -0.5 -378.876 1559.6458)"><stop offset="0.0056" style="stop-color:#DFE2E2" id="stop135"/><stop offset="0.2528" style="stop-color:#FFFFE0" id="stop137"/><stop offset="0.3797" style="stop-color:#F1EED4" id="stop139"/><stop offset="0.5955" style="stop-color:#D1C8B8" id="stop141"/><stop offset="0.7865" style="stop-color:#EDEDED" id="stop143"/><stop offset="1" style="stop-color:#D1D1AD" id="stop145"/></linearGradient><polygon fill="url(#SVGID_8_)" points="50.024,143.322 68.333,143.321 57.952,147.898     " id="polygon148"/><linearGradient id="SVGID_9_" gradientUnits="userSpaceOnUse" x1="-757.3203" y1="-193.4053" x2="-753.3564" y2="-195.6938" gradientTransform="matrix(0.5 0.866 -0.866 0.5 265.705 887.9847)"><stop offset="0.0056" style="stop-color:#DFE2E2" id="stop150"/><stop offset="0.2528" style="stop-color:#FFFFE0" id="stop152"/><stop offset="0.3797" style="stop-color:#F1EED4" id="stop154"/><stop offset="0.5955" style="stop-color:#D1C8B8" id="stop156"/><stop offset="0.7865" style="stop-color:#EDEDED" id="stop158"/><stop offset="1" style="stop-color:#D1D1AD" id="stop160"/></linearGradient><polygon fill="url(#SVGID_9_)" points="49.958,143.371 59.11,127.516 57.884,138.794     " id="polygon163"/></g></g><g id="g197"><linearGradient id="SVGID_10_" gradientUnits="userSpaceOnUse" x1="44.6309" y1="143.1758" x2="55.3682" y2="143.1758"><stop offset="0.0056" style="stop-color:#DFE2E2" id="stop169"/><stop offset="0.2528" style="stop-color:#FFFFE0" id="stop171"/><stop offset="0.3797" style="stop-color:#F1EED4" id="stop173"/><stop offset="0.5955" style="stop-color:#D1C8B8" id="stop175"/><stop offset="0.7865" style="stop-color:#EDEDED" id="stop177"/><stop offset="1" style="stop-color:#D1D1AD" id="stop179"/></linearGradient><circle fill="url(#SVGID_10_)" cx="50" cy="143.176" r="5.369" id="circle182"/><radialGradient id="SVGID_11_" cx="47.4253" cy="139.8828" r="7.8167" gradientUnits="userSpaceOnUse"><stop offset="0" style="stop-color:#E7E3DE" id="stop184"/><stop offset="0" style="stop-color:#DFDAD3" id="stop186"/><stop offset="0.182" style="stop-color:#D1CBC5" id="stop188"/><stop offset="0.5313" style="stop-color:#ABA4A1" id="stop190"/><stop offset="1" style="stop-color:#6F6768" id="stop192"/></radialGradient><path fill="url(#SVGID_11_)" d="M49.999,147.128c-2.178,0-3.951-1.772-3.951-3.951c0-2.18,1.773-3.952,3.951-3.952     c2.18,0,3.953,1.772,3.953,3.952C53.952,145.355,52.179,147.128,49.999,147.128L49.999,147.128z" id="path195"/></g></g><g id="g344"><g id="g312"><linearGradient id="SVGID_12_" gradientUnits="userSpaceOnUse" x1="31.667" y1="184.9512" x2="68.2822" y2="184.9512"><stop offset="0" style="stop-color:#C3B0AE" id="stop201"/><stop offset="0.1259" style="stop-color:#C7B6B4" id="stop203"/><stop offset="0.2918" style="stop-color:#D2C6C3" id="stop205"/><stop offset="0.4793" style="stop-color:#E5E2DD" id="stop207"/><stop offset="0.5112" style="stop-color:#E9E7E2" id="stop209"/><stop offset="0.5929" style="stop-color:#D3D0CC" id="stop211"/><stop offset="0.7647" style="stop-color:#9B9493" id="stop213"/><stop offset="1" style="stop-color:#453A3D" id="stop215"/></linearGradient><polygon fill="url(#SVGID_12_)" points="57.903,189.557 68.282,184.979 57.901,180.402 59.128,169.125 49.976,175.769      40.821,169.067 42.048,180.346 31.667,184.922 42.048,189.5 42.048,189.5 40.821,200.777 49.976,194.076 59.128,200.835    " id="polygon218"/><g id="g310"><linearGradient id="SVGID_13_" gradientUnits="userSpaceOnUse" x1="45.3984" y1="176.9941" x2="49.3624" y2="174.7056"><stop offset="0.0056" style="stop-color:#DFE2E2" id="stop220"/><stop offset="0.2528" style="stop-color:#FFFFE0" id="stop222"/><stop offset="0.3797" style="stop-color:#F1EED4" id="stop224"/><stop offset="0.5955" style="stop-color:#D1C8B8" id="stop226"/><stop offset="0.7865" style="stop-color:#EDEDED" id="stop228"/><stop offset="1" style="stop-color:#D1D1AD" id="stop230"/></linearGradient><polygon fill="url(#SVGID_13_)" points="49.976,184.922 40.821,169.067 49.976,175.769     " id="polygon233"/><linearGradient id="SVGID_14_" gradientUnits="userSpaceOnUse" x1="119.9531" y1="1022.0469" x2="123.9171" y2="1019.7583" gradientTransform="matrix(0.5 -0.866 0.866 0.5 -904.1708 -222.1878)"><stop offset="0.0056" style="stop-color:#DFE2E2" id="stop235"/><stop offset="0.2528" style="stop-color:#FFFFE0" id="stop237"/><stop offset="0.3797" style="stop-color:#F1EED4" id="stop239"/><stop offset="0.5955" style="stop-color:#D1C8B8" id="stop241"/><stop offset="0.7865" style="stop-color:#EDEDED" id="stop243"/><stop offset="1" style="stop-color:#D1D1AD" id="stop245"/></linearGradient><polygon fill="url(#SVGID_14_)" points="50.052,184.956 31.744,184.957 42.125,180.38     " id="polygon248"/><linearGradient id="SVGID_15_" gradientUnits="userSpaceOnUse" x1="-568.5039" y1="1504.5273" x2="-564.54" y2="1502.2388" gradientTransform="matrix(-0.5 -0.866 0.866 -0.5 -1541.7788 452.8317)"><stop offset="0.0056" style="stop-color:#DFE2E2" id="stop250"/><stop offset="0.2528" style="stop-color:#FFFFE0" id="stop252"/><stop offset="0.3797" style="stop-color:#F1EED4" id="stop254"/><stop offset="0.5955" style="stop-color:#D1C8B8" id="stop256"/><stop offset="0.7865" style="stop-color:#EDEDED" id="stop258"/><stop offset="1" style="stop-color:#D1D1AD" id="stop260"/></linearGradient><polygon fill="url(#SVGID_15_)" points="49.97,184.964 40.817,200.819 42.044,189.541     " id="polygon263"/><linearGradient id="SVGID_16_" gradientUnits="userSpaceOnUse" x1="-1336.729" y1="1153.8711" x2="-1332.7651" y2="1151.5825" gradientTransform="matrix(-1 0 0 -1 -1282.1895 1346.6797)"><stop offset="0.0056" style="stop-color:#DFE2E2" id="stop265"/><stop offset="0.2528" style="stop-color:#FFFFE0" id="stop267"/><stop offset="0.3797" style="stop-color:#F1EED4" id="stop269"/><stop offset="0.5955" style="stop-color:#D1C8B8" id="stop271"/><stop offset="0.7865" style="stop-color:#EDEDED" id="stop273"/><stop offset="1" style="stop-color:#D1D1AD" id="stop275"/></linearGradient><polygon fill="url(#SVGID_16_)" points="49.962,184.881 59.116,200.735 49.962,194.034     " id="polygon278"/><linearGradient id="SVGID_17_" gradientUnits="userSpaceOnUse" x1="-1409.4482" y1="307.9336" x2="-1405.4844" y2="305.645" gradientTransform="matrix(-0.5 0.866 -0.866 -0.5 -378.876 1559.6458)"><stop offset="0.0056" style="stop-color:#DFE2E2" id="stop280"/><stop offset="0.2528" style="stop-color:#FFFFE0" id="stop282"/><stop offset="0.3797" style="stop-color:#F1EED4" id="stop284"/><stop offset="0.5955" style="stop-color:#D1C8B8" id="stop286"/><stop offset="0.7865" style="stop-color:#EDEDED" id="stop288"/><stop offset="1" style="stop-color:#D1D1AD" id="stop290"/></linearGradient><polygon fill="url(#SVGID_17_)" points="50.024,185.098 68.333,185.097 57.952,189.674     " id="polygon293"/><linearGradient id="SVGID_18_" gradientUnits="userSpaceOnUse" x1="-721.1406" y1="-172.5176" x2="-717.1776" y2="-174.8057" gradientTransform="matrix(0.5 0.866 -0.866 0.5 265.705 887.9847)"><stop offset="0.0056" style="stop-color:#DFE2E2" id="stop295"/><stop offset="0.2528" style="stop-color:#FFFFE0" id="stop297"/><stop offset="0.3797" style="stop-color:#F1EED4" id="stop299"/><stop offset="0.5955" style="stop-color:#D1C8B8" id="stop301"/><stop offset="0.7865" style="stop-color:#EDEDED" id="stop303"/><stop offset="1" style="stop-color:#D1D1AD" id="stop305"/></linearGradient><polygon fill="url(#SVGID_18_)" points="49.958,185.146 59.11,169.291 57.884,180.569     " id="polygon308"/></g></g><g id="g342"><linearGradient id="SVGID_19_" gradientUnits="userSpaceOnUse" x1="44.6309" y1="184.9512" x2="55.3682" y2="184.9512"><stop offset="0.0056" style="stop-color:#DFE2E2" id="stop314"/><stop offset="0.2528" style="stop-color:#FFFFE0" id="stop316"/><stop offset="0.3797" style="stop-color:#F1EED4" id="stop318"/><stop offset="0.5955" style="stop-color:#D1C8B8" id="stop320"/><stop offset="0.7865" style="stop-color:#EDEDED" id="stop322"/><stop offset="1" style="stop-color:#D1D1AD" id="stop324"/></linearGradient><circle fill="url(#SVGID_19_)" cx="50" cy="184.951" r="5.369" id="circle327"/><radialGradient id="SVGID_20_" cx="47.4253" cy="181.6582" r="7.8167" gradientUnits="userSpaceOnUse"><stop offset="0" style="stop-color:#E7E3DE" id="stop329"/><stop offset="0" style="stop-color:#DFDAD3" id="stop331"/><stop offset="0.182" style="stop-color:#D1CBC5" id="stop333"/><stop offset="0.5313" style="stop-color:#ABA4A1" id="stop335"/><stop offset="1" style="stop-color:#6F6768" id="stop337"/></radialGradient><path fill="url(#SVGID_20_)" d="M49.999,188.903c-2.178,0-3.951-1.772-3.951-3.951c0-2.18,1.773-3.952,3.951-3.952     c2.18,0,3.953,1.772,3.953,3.952C53.952,187.131,52.179,188.903,49.999,188.903L49.999,188.903z" id="path340"/></g></g><g id="g489"><g id="g457"><linearGradient id="SVGID_21_" gradientUnits="userSpaceOnUse" x1="31.667" y1="226.7256" x2="68.2822" y2="226.7256"><stop offset="0" style="stop-color:#C3B0AE" id="stop346"/><stop offset="0.1259" style="stop-color:#C7B6B4" id="stop348"/><stop offset="0.2918" style="stop-color:#D2C6C3" id="stop350"/><stop offset="0.4793" style="stop-color:#E5E2DD" id="stop352"/><stop offset="0.5112" style="stop-color:#E9E7E2" id="stop354"/><stop offset="0.5929" style="stop-color:#D3D0CC" id="stop356"/><stop offset="0.7647" style="stop-color:#9B9493" id="stop358"/><stop offset="1" style="stop-color:#453A3D" id="stop360"/></linearGradient><polygon fill="url(#SVGID_21_)" points="57.903,231.331 68.282,226.754 57.901,222.177 59.128,210.899 49.976,217.543      40.821,210.842 42.048,222.12 31.667,226.696 42.048,231.274 42.048,231.274 40.821,242.552 49.976,235.851 59.128,242.609         " id="polygon363"/><g id="g455"><linearGradient id="SVGID_22_" gradientUnits="userSpaceOnUse" x1="45.3984" y1="218.7686" x2="49.3624" y2="216.48"><stop offset="0.0056" style="stop-color:#DFE2E2" id="stop365"/><stop offset="0.2528" style="stop-color:#FFFFE0" id="stop367"/><stop offset="0.3797" style="stop-color:#F1EED4" id="stop369"/><stop offset="0.5955" style="stop-color:#D1C8B8" id="stop371"/><stop offset="0.7865" style="stop-color:#EDEDED" id="stop373"/><stop offset="1" style="stop-color:#D1D1AD" id="stop375"/></linearGradient><polygon fill="url(#SVGID_22_)" points="49.976,226.696 40.821,210.842 49.976,217.543     " id="polygon378"/><linearGradient id="SVGID_23_" gradientUnits="userSpaceOnUse" x1="83.7744" y1="1042.9355" x2="87.7383" y2="1040.647" gradientTransform="matrix(0.5 -0.866 0.866 0.5 -904.1708 -222.1878)"><stop offset="0.0056" style="stop-color:#DFE2E2" id="stop380"/><stop offset="0.2528" style="stop-color:#FFFFE0" id="stop382"/><stop offset="0.3797" style="stop-color:#F1EED4" id="stop384"/><stop offset="0.5955" style="stop-color:#D1C8B8" id="stop386"/><stop offset="0.7865" style="stop-color:#EDEDED" id="stop388"/><stop offset="1" style="stop-color:#D1D1AD" id="stop390"/></linearGradient><polygon fill="url(#SVGID_23_)" points="50.052,226.73 31.744,226.731 42.125,222.154     " id="polygon393"/><linearGradient id="SVGID_24_" gradientUnits="userSpaceOnUse" x1="-604.6821" y1="1483.6396" x2="-600.7182" y2="1481.3511" gradientTransform="matrix(-0.5 -0.866 0.866 -0.5 -1541.7788 452.8317)"><stop offset="0.0056" style="stop-color:#DFE2E2" id="stop395"/><stop offset="0.2528" style="stop-color:#FFFFE0" id="stop397"/><stop offset="0.3797" style="stop-color:#F1EED4" id="stop399"/><stop offset="0.5955" style="stop-color:#D1C8B8" id="stop401"/><stop offset="0.7865" style="stop-color:#EDEDED" id="stop403"/><stop offset="1" style="stop-color:#D1D1AD" id="stop405"/></linearGradient><polygon fill="url(#SVGID_24_)" points="49.97,226.738 40.817,242.594 42.044,231.315     " id="polygon408"/><linearGradient id="SVGID_25_" gradientUnits="userSpaceOnUse" x1="-1336.729" y1="1112.0967" x2="-1332.7651" y2="1109.8081" gradientTransform="matrix(-1 0 0 -1 -1282.1895 1346.6797)"><stop offset="0.0056" style="stop-color:#DFE2E2" id="stop410"/><stop offset="0.2528" style="stop-color:#FFFFE0" id="stop412"/><stop offset="0.3797" style="stop-color:#F1EED4" id="stop414"/><stop offset="0.5955" style="stop-color:#D1C8B8" id="stop416"/><stop offset="0.7865" style="stop-color:#EDEDED" id="stop418"/><stop offset="1" style="stop-color:#D1D1AD" id="stop420"/></linearGradient><polygon fill="url(#SVGID_25_)" points="49.962,226.655 59.116,242.51 49.962,235.809     " id="polygon423"/><linearGradient id="SVGID_26_" gradientUnits="userSpaceOnUse" x1="-1373.2705" y1="287.0449" x2="-1369.3066" y2="284.7563" gradientTransform="matrix(-0.5 0.866 -0.866 -0.5 -378.876 1559.6458)"><stop offset="0.0056" style="stop-color:#DFE2E2" id="stop425"/><stop offset="0.2528" style="stop-color:#FFFFE0" id="stop427"/><stop offset="0.3797" style="stop-color:#F1EED4" id="stop429"/><stop offset="0.5955" style="stop-color:#D1C8B8" id="stop431"/><stop offset="0.7865" style="stop-color:#EDEDED" id="stop433"/><stop offset="1" style="stop-color:#D1D1AD" id="stop435"/></linearGradient><polygon fill="url(#SVGID_26_)" points="50.024,226.872 68.333,226.871 57.952,231.448     " id="polygon438"/><linearGradient id="SVGID_27_" gradientUnits="userSpaceOnUse" x1="-684.9624" y1="-151.6289" x2="-680.9993" y2="-153.917" gradientTransform="matrix(0.5 0.866 -0.866 0.5 265.705 887.9847)"><stop offset="0.0056" style="stop-color:#DFE2E2" id="stop440"/><stop offset="0.2528" style="stop-color:#FFFFE0" id="stop442"/><stop offset="0.3797" style="stop-color:#F1EED4" id="stop444"/><stop offset="0.5955" style="stop-color:#D1C8B8" id="stop446"/><stop offset="0.7865" style="stop-color:#EDEDED" id="stop448"/><stop offset="1" style="stop-color:#D1D1AD" id="stop450"/></linearGradient><polygon fill="url(#SVGID_27_)" points="49.958,226.921 59.11,211.065 57.884,222.344     " id="polygon453"/></g></g><g id="g487"><linearGradient id="SVGID_28_" gradientUnits="userSpaceOnUse" x1="44.6309" y1="226.7266" x2="55.3682" y2="226.7266"><stop offset="0.0056" style="stop-color:#DFE2E2" id="stop459"/><stop offset="0.2528" style="stop-color:#FFFFE0" id="stop461"/><stop offset="0.3797" style="stop-color:#F1EED4" id="stop463"/><stop offset="0.5955" style="stop-color:#D1C8B8" id="stop465"/><stop offset="0.7865" style="stop-color:#EDEDED" id="stop467"/><stop offset="1" style="stop-color:#D1D1AD" id="stop469"/></linearGradient><circle fill="url(#SVGID_28_)" cx="50" cy="226.726" r="5.369" id="circle472"/><radialGradient id="SVGID_29_" cx="47.4253" cy="223.4336" r="7.8161" gradientUnits="userSpaceOnUse"><stop offset="0" style="stop-color:#E7E3DE" id="stop474"/><stop offset="0" style="stop-color:#DFDAD3" id="stop476"/><stop offset="0.182" style="stop-color:#D1CBC5" id="stop478"/><stop offset="0.5313" style="stop-color:#ABA4A1" id="stop480"/><stop offset="1" style="stop-color:#6F6768" id="stop482"/></radialGradient><path fill="url(#SVGID_29_)" d="M49.999,230.678c-2.178,0-3.951-1.772-3.951-3.951c0-2.18,1.773-3.952,3.951-3.952     c2.18,0,3.953,1.772,3.953,3.952C53.952,228.905,52.179,230.678,49.999,230.678L49.999,230.678z" id="path485"/></g></g></g></svg>