<?xml version="1.0" encoding="UTF-8"?>
<!-- Generator: Adobe Illustrator 16.0.0, SVG Export Plug-In . SVG Version: 6.00 Build 0)  -->
<!DOCTYPE svg PUBLIC "-//W3C//DTD SVG 1.1//EN" "http://www.w3.org/Graphics/SVG/1.1/DTD/svg11.dtd">
<svg version="1.1" id="Layer_1" xmlns="http://www.w3.org/2000/svg" xmlns:xlink="http://www.w3.org/1999/xlink" x="0px" y="0px" width="95.955px" height="148.311px" viewBox="0 22.729 95.955 148.311" enable-background="new 0 22.729 95.955 148.311" xml:space="preserve">
<g>
	<path fill="#BF1E2D" d="M95.955,22.896C44.79,22.52,0,22.896,0,22.896v101.161l49.431,46.982l46.524-47.414V22.896z"/>
	<g>
		<g>
			<polygon fill="#FBB040" points="88.95,68.994 47.979,108.833 7.005,68.994 7.005,55.412 47.979,95.252 88.95,55.412    "/>
		</g>
		<g>
			<polygon fill="#FBB040" points="88.95,86.555 47.979,126.394 7.005,86.555 7.005,72.974 47.979,112.813 88.95,72.974    "/>
		</g>
		<g>
			<polygon fill="#FBB040" points="88.95,104.118 47.979,143.956 7.005,104.118 7.005,90.536 47.979,130.375 88.95,90.536    "/>
		</g>
		<g>
			<polygon fill="#FBB040" points="88.95,121.678 47.979,161.517 7.005,121.678 7.005,108.098 47.979,147.937 88.95,108.098    "/>
		</g>
	</g>
	<g>
		<g>
			<g>
				
					<linearGradient id="SVGID_1_" gradientUnits="userSpaceOnUse" x1="-1322.9131" y1="-13.9111" x2="-1310.4155" y2="-13.9111" gradientTransform="matrix(-0.9936 0.1125 -0.1125 -0.9936 -1258.5758 184.3379)">
					<stop offset="0.0056" style="stop-color:#FBC926"/>
					<stop offset="0.2528" style="stop-color:#FFFBCC"/>
					<stop offset="0.2986" style="stop-color:#F7EAB8"/>
					<stop offset="0.3896" style="stop-color:#E7CF8E"/>
					<stop offset="0.5159" style="stop-color:#D1A954"/>
					<stop offset="0.5955" style="stop-color:#C3922E"/>
					<stop offset="0.8143" style="stop-color:#E2C675"/>
					<stop offset="0.8708" style="stop-color:#EED688"/>
					<stop offset="1" style="stop-color:#FFFBCC"/>
				</linearGradient>
				<path fill="url(#SVGID_1_)" stroke="#DAA450" stroke-width="0.5" d="M54.271,37.521c0,0,5.896,10.464,0.569,13.821      c-5.323,3.352-6.149,5.731-6.051,10.315c0.101,4.587-6.777-10.65-1.453-14.003C52.66,44.301,54.271,37.521,54.271,37.521z"/>
				<path fill="none" stroke="#DAA450" stroke-width="0.5" d="M54.271,37.521c0,0,2.254,8.406-3.072,11.762      c-5.326,3.353-3.161,8.378-3.061,12.963"/>
			</g>
			<g>
				
					<linearGradient id="SVGID_2_" gradientUnits="userSpaceOnUse" x1="-648.6777" y1="431.6978" x2="-636.1807" y2="431.6978" gradientTransform="matrix(0.4975 0.8675 0.8675 -0.4975 -1.614 824.105)">
					<stop offset="0.0056" style="stop-color:#FBC926"/>
					<stop offset="0.2528" style="stop-color:#FFFBCC"/>
					<stop offset="0.2986" style="stop-color:#F7EAB8"/>
					<stop offset="0.3896" style="stop-color:#E7CF8E"/>
					<stop offset="0.5159" style="stop-color:#D1A954"/>
					<stop offset="0.5955" style="stop-color:#C3922E"/>
					<stop offset="0.8143" style="stop-color:#E2C675"/>
					<stop offset="0.8708" style="stop-color:#EED688"/>
					<stop offset="1" style="stop-color:#FFFBCC"/>
				</linearGradient>
				<path fill="url(#SVGID_2_)" stroke="#DAA450" stroke-width="0.5" d="M61.56,42.167c0,0-11.925,1.442-11.477,7.72      c0.45,6.277-0.979,8.351-4.732,10.984c-3.756,2.635,12.597-0.842,12.147-7.118C57.048,47.478,61.56,42.167,61.56,42.167z"/>
				<path fill="none" stroke="#DAA450" stroke-width="0.5" d="M61.56,42.167c0,0-8.107,3.16-7.658,9.437      c0.447,6.277-4.885,7.507-8.637,10.143"/>
			</g>
			<g>
				
					<linearGradient id="SVGID_3_" gradientUnits="userSpaceOnUse" x1="-868.6548" y1="397.7271" x2="-856.1572" y2="397.7271" gradientTransform="matrix(0.1986 0.9801 0.9801 -0.1986 -164.1439 977.579)">
					<stop offset="0.0056" style="stop-color:#FBC926"/>
					<stop offset="0.2528" style="stop-color:#FFFBCC"/>
					<stop offset="0.2986" style="stop-color:#F7EAB8"/>
					<stop offset="0.3896" style="stop-color:#E7CF8E"/>
					<stop offset="0.5159" style="stop-color:#D1A954"/>
					<stop offset="0.5955" style="stop-color:#C3922E"/>
					<stop offset="0.8143" style="stop-color:#E2C675"/>
					<stop offset="0.8708" style="stop-color:#EED688"/>
					<stop offset="1" style="stop-color:#FFFBCC"/>
				</linearGradient>
				<path fill="url(#SVGID_3_)" stroke="#DAA450" stroke-width="0.5" d="M65.365,46.599c0,0-11.771-2.389-13.323,3.709      c-1.552,6.099-3.563,7.619-7.956,8.933c-4.394,1.316,12.222,3.171,13.771-2.926C59.41,50.217,65.365,46.599,65.365,46.599z"/>
				<path fill="none" stroke="#DAA450" stroke-width="0.5" d="M65.365,46.599c0,0-8.691,0.442-10.244,6.543      c-1.554,6.098-7.001,5.583-11.393,6.9"/>
			</g>
			<g>
				
					<linearGradient id="SVGID_4_" gradientUnits="userSpaceOnUse" x1="-1236.2139" y1="-695.1567" x2="-1223.7158" y2="-695.1567" gradientTransform="matrix(-0.4183 0.9083 -0.9083 -0.4183 -1106.1858 879.0128)">
					<stop offset="0.0056" style="stop-color:#FBC926"/>
					<stop offset="0.2528" style="stop-color:#FFFBCC"/>
					<stop offset="0.2986" style="stop-color:#F7EAB8"/>
					<stop offset="0.3896" style="stop-color:#E7CF8E"/>
					<stop offset="0.5159" style="stop-color:#D1A954"/>
					<stop offset="0.5955" style="stop-color:#C3922E"/>
					<stop offset="0.8143" style="stop-color:#E2C675"/>
					<stop offset="0.8708" style="stop-color:#EED688"/>
					<stop offset="1" style="stop-color:#FFFBCC"/>
				</linearGradient>
				<path fill="url(#SVGID_4_)" stroke="#DAA450" stroke-width="0.5" d="M30.59,43.534c0,0,12.006,0.376,12.117,6.67      c0.11,6.291,1.72,8.23,5.692,10.519c3.976,2.29-12.621,0.283-12.733-6.009C35.557,48.423,30.59,43.534,30.59,43.534z"/>
				<path fill="none" stroke="#DAA450" stroke-width="0.5" d="M30.59,43.534c0,0,8.357,2.427,8.471,8.72      c0.109,6.292,5.53,7.043,9.504,9.331"/>
			</g>
			<g>
				
					<linearGradient id="SVGID_5_" gradientUnits="userSpaceOnUse" x1="-1368.5234" y1="-188.4487" x2="-1356.0249" y2="-188.4487" gradientTransform="matrix(-0.9318 0.3629 -0.3629 -0.9318 -1289.6644 368.4841)">
					<stop offset="0.0056" style="stop-color:#FBC926"/>
					<stop offset="0.2528" style="stop-color:#FFFBCC"/>
					<stop offset="0.2986" style="stop-color:#F7EAB8"/>
					<stop offset="0.3896" style="stop-color:#E7CF8E"/>
					<stop offset="0.5159" style="stop-color:#D1A954"/>
					<stop offset="0.5955" style="stop-color:#C3922E"/>
					<stop offset="0.8143" style="stop-color:#E2C675"/>
					<stop offset="0.8708" style="stop-color:#EED688"/>
					<stop offset="1" style="stop-color:#FFFBCC"/>
				</linearGradient>
				<path fill="url(#SVGID_5_)" stroke="#DAA450" stroke-width="0.5" d="M47.833,36.833c0,0,8.375,8.609,4.085,13.216      c-4.291,4.602-4.48,7.114-3.211,11.521c1.269,4.409-9.277-8.563-4.988-13.167C48.01,43.801,47.833,36.833,47.833,36.833z"/>
				<path fill="none" stroke="#DAA450" stroke-width="0.5" d="M47.833,36.833c0,0,4.327,7.552,0.036,12.157      c-4.291,4.603-0.912,8.908,0.356,13.315"/>
			</g>
			<g>
				
					<linearGradient id="SVGID_6_" gradientUnits="userSpaceOnUse" x1="-45.8901" y1="73.0825" x2="-33.3931" y2="73.0825" gradientTransform="matrix(1 0.0031 0.0031 -1 83.2584 122.6443)">
					<stop offset="0.0056" style="stop-color:#FBC926"/>
					<stop offset="0.2528" style="stop-color:#FFFBCC"/>
					<stop offset="0.2986" style="stop-color:#F7EAB8"/>
					<stop offset="0.3896" style="stop-color:#E7CF8E"/>
					<stop offset="0.5159" style="stop-color:#D1A954"/>
					<stop offset="0.5955" style="stop-color:#C3922E"/>
					<stop offset="0.8143" style="stop-color:#E2C675"/>
					<stop offset="0.8708" style="stop-color:#EED688"/>
					<stop offset="1" style="stop-color:#FFFBCC"/>
				</linearGradient>
				<path fill="url(#SVGID_6_)" stroke="#DAA450" stroke-width="0.5" d="M39.447,37.332c0,0-4.713,11.046,0.947,13.799      c5.66,2.75,6.742,5.025,7.145,9.592c0.403,4.57,5.569-11.329-0.09-14.078C41.789,43.894,39.447,37.332,39.447,37.332z"/>
				<path fill="none" stroke="#DAA450" stroke-width="0.5" d="M39.447,37.332c0,0-1.318,8.601,4.342,11.353      c5.661,2.75,4.059,7.982,4.463,12.551"/>
			</g>
			<g>
				
					<linearGradient id="SVGID_7_" gradientUnits="userSpaceOnUse" x1="-183.7026" y1="246.9419" x2="-171.2046" y2="246.9419" gradientTransform="matrix(0.948 0.3182 0.3182 -0.948 135.1937 339.6927)">
					<stop offset="0.0056" style="stop-color:#FBC926"/>
					<stop offset="0.2528" style="stop-color:#FFFBCC"/>
					<stop offset="0.2986" style="stop-color:#F7EAB8"/>
					<stop offset="0.3896" style="stop-color:#E7CF8E"/>
					<stop offset="0.5159" style="stop-color:#D1A954"/>
					<stop offset="0.5955" style="stop-color:#C3922E"/>
					<stop offset="0.8143" style="stop-color:#E2C675"/>
					<stop offset="0.8708" style="stop-color:#EED688"/>
					<stop offset="1" style="stop-color:#FFFBCC"/>
				</linearGradient>
				<path fill="url(#SVGID_7_)" stroke="#DAA450" stroke-width="0.5" d="M45.189,36.251c0,0-7.957,8.998-3.451,13.394      c4.503,4.394,4.813,6.895,3.754,11.357c-1.057,4.462,8.858-8.998,4.356-13.391C45.344,43.217,45.189,36.251,45.189,36.251z"/>
				<path fill="none" stroke="#DAA450" stroke-width="0.5" d="M45.189,36.251c0,0-3.963,7.748,0.542,12.143      c4.504,4.396,1.333,8.856,0.276,13.317"/>
			</g>
		</g>
		
			<radialGradient id="SVGID_8_" cx="42.7705" cy="105.8198" r="3.2014" fx="42.4747" fy="105.8466" gradientTransform="matrix(1 0 0 -1 3.4248 168.5049)" gradientUnits="userSpaceOnUse">
			<stop offset="0" style="stop-color:#FFFBCC"/>
			<stop offset="0.1336" style="stop-color:#F7EAB8"/>
			<stop offset="0.3991" style="stop-color:#E7CF8E"/>
			<stop offset="0.7678" style="stop-color:#D1A954"/>
			<stop offset="1" style="stop-color:#C3922E"/>
		</radialGradient>
		<rect x="44.368" y="61.88" fill="url(#SVGID_8_)" stroke="#DAA450" stroke-width="0.3" width="5.439" height="2.948"/>
		
			<radialGradient id="SVGID_9_" cx="41.9106" cy="265.2134" r="5.6189" fx="41.3913" fy="265.2605" gradientTransform="matrix(1 0 0 -0.6913 3.4248 243.742)" gradientUnits="userSpaceOnUse">
			<stop offset="0" style="stop-color:#FFFBCC"/>
			<stop offset="0.1336" style="stop-color:#F7EAB8"/>
			<stop offset="0.3991" style="stop-color:#E7CF8E"/>
			<stop offset="0.7678" style="stop-color:#D1A954"/>
			<stop offset="1" style="stop-color:#C3922E"/>
		</radialGradient>
		<rect x="41.749" y="59.874" fill="url(#SVGID_9_)" stroke="#DAA450" stroke-width="0.3" width="10.677" height="1.926"/>
		
			<radialGradient id="SVGID_10_" cx="41.0044" cy="99.4819" r="12.1582" fx="39.8806" fy="99.5838" gradientTransform="matrix(1 0 0 -1 3.4248 168.5049)" gradientUnits="userSpaceOnUse">
			<stop offset="0" style="stop-color:#FFFBCC"/>
			<stop offset="0.1336" style="stop-color:#F7EAB8"/>
			<stop offset="0.3991" style="stop-color:#E7CF8E"/>
			<stop offset="0.7678" style="stop-color:#D1A954"/>
			<stop offset="1" style="stop-color:#C3922E"/>
		</radialGradient>
		<circle fill="url(#SVGID_10_)" stroke="#DAA450" stroke-width="0.3" cx="47.088" cy="72.699" r="8.102"/>
	</g>
</g>
</svg>