<?xml version="1.0" encoding="UTF-8" standalone="no"?>
<!-- Generator: Adobe Illustrator 16.0.3, SVG Export Plug-In . SVG Version: 6.00 Build 0)  -->
<svg xmlns:dc="http://purl.org/dc/elements/1.1/" xmlns:cc="http://creativecommons.org/ns#" xmlns:rdf="http://www.w3.org/1999/02/22-rdf-syntax-ns#" xmlns:svg="http://www.w3.org/2000/svg" xmlns="http://www.w3.org/2000/svg" xmlns:sodipodi="http://sodipodi.sourceforge.net/DTD/sodipodi-0.dtd" xmlns:inkscape="http://www.inkscape.org/namespaces/inkscape" version="1.1" id="Layer_1" x="0px" y="0px" width="100px" height="256px" viewBox="0 0 100 256" enable-background="new 0 0 100 256" xml:space="preserve" sodipodi:docname="Army-GRE-OF-06.svg" inkscape:version="0.92.2 (5c3e80d, 2017-08-06)"><metadata id="metadata673"><rdf:RDF><cc:Work rdf:about=""><dc:format>image/svg+xml</dc:format><dc:type rdf:resource="http://purl.org/dc/dcmitype/StillImage"/></cc:Work></rdf:RDF></metadata><defs id="defs671"/><sodipodi:namedview pagecolor="#ffffff" bordercolor="#666666" borderopacity="1" objecttolerance="10" gridtolerance="10" guidetolerance="10" inkscape:pageopacity="0" inkscape:pageshadow="2" inkscape:window-width="1920" inkscape:window-height="1016" id="namedview669" showgrid="false" inkscape:zoom="0.921875" inkscape:cx="-168.0339" inkscape:cy="128" inkscape:window-x="0" inkscape:window-y="27" inkscape:window-maximized="1" inkscape:current-layer="Layer_1"/><polygon fill="#2D2D2B" points="100,256 0,256 7,30 50,0 93,30 " id="polygon2" style="fill:#3f4845;fill-opacity:1"/><g id="g12"><g id="g6"><path d="M44.988,65.288V27.401c0-2.768,2.244-5.01,5.01-5.01l0,0c2.766,0,5.01,2.242,5.012,5.01l0,0v37.887h-0.002    c0,2.766-2.244,5.008-5.01,5.008l0,0C47.232,70.295,44.988,68.053,44.988,65.288L44.988,65.288z M45.988,27.401l-0.002,37.887    c0.006,2.213,1.797,4.006,4.012,4.01l0,0c2.215-0.004,4.008-1.797,4.012-4.01l0,0V27.401c-0.004-2.215-1.797-4.006-4.012-4.01l0,0    C47.783,23.395,45.992,25.186,45.988,27.401L45.988,27.401z" id="path4"/></g><g id="g10"><path d="M49.609,65.985l-0.223-39.277c-0.002-0.277,0.221-0.502,0.496-0.504l0,0c0.277-0.002,0.502,0.221,0.504,0.498l0,0    l0.223,39.277c0.002,0.277-0.221,0.502-0.497,0.504l0,0c-0.002,0-0.004,0-0.004,0l0,0C49.834,66.483,49.611,66.26,49.609,65.985    L49.609,65.985z" id="path8"/></g></g><g id="g54"><g id="g52"><g id="g37"><linearGradient id="SVGID_1_" gradientUnits="userSpaceOnUse" x1="-973.0171" y1="228.4209" x2="-954.3817" y2="247.0564" gradientTransform="matrix(0 -1 -1 0 287.7402 -930.6992)"><stop offset="0.0056" style="stop-color:#FBCA11" id="stop14"/><stop offset="0.2528" style="stop-color:#FFFFBF" id="stop16"/><stop offset="0.2997" style="stop-color:#F9F3AE" id="stop18"/><stop offset="0.393" style="stop-color:#E8D381" id="stop20"/><stop offset="0.5226" style="stop-color:#CEA139" id="stop22"/><stop offset="0.5955" style="stop-color:#BE820E" id="stop24"/><stop offset="0.8558" style="stop-color:#E8D56A" id="stop26"/><stop offset="0.8708" style="stop-color:#EADA6F" id="stop28"/><stop offset="1" style="stop-color:#FFFFBF" id="stop30"/></linearGradient><circle fill="url(#SVGID_1_)" cx="50" cy="33" r="13.177" id="circle33"/><path fill="#D8962D" d="M50,46.427c-7.403,0-13.426-6.023-13.426-13.426c0-7.405,6.022-13.429,13.426-13.429     c7.404,0,13.426,6.024,13.426,13.429C63.426,40.404,57.402,46.427,50,46.427z M50,20.073c-7.127,0-12.926,5.8-12.926,12.929     c0,7.127,5.799,12.926,12.926,12.926s12.926-5.798,12.926-12.926C62.926,25.873,57.127,20.073,50,20.073z" id="path35"/></g><radialGradient id="SVGID_2_" cx="-963.6992" cy="237.7402" r="11.0974" gradientTransform="matrix(0 -1 -1 0 287.7402 -930.6992)" gradientUnits="userSpaceOnUse"><stop offset="0" style="stop-color:#FFFFBF" id="stop39"/><stop offset="0.1369" style="stop-color:#F9F3AE" id="stop41"/><stop offset="0.4091" style="stop-color:#E8D381" id="stop43"/><stop offset="0.7872" style="stop-color:#CEA139" id="stop45"/><stop offset="1" style="stop-color:#BE820E" id="stop47"/></radialGradient><path fill="url(#SVGID_2_)" d="M38.904,33.005c0.006,6.133,4.965,11.087,11.094,11.094l0,0    c6.129-0.007,11.084-4.961,11.098-11.094l0,0c-0.014-6.126-4.969-11.091-11.098-11.104l0,0    C43.869,21.915,38.91,26.879,38.904,33.005L38.904,33.005z" id="path50"/></g></g><g id="g312"><g id="g259"><g id="g83"><g id="g79"><linearGradient id="SVGID_3_" gradientUnits="userSpaceOnUse" x1="-2010.0117" y1="-121.8613" x2="-1995.9746" y2="-121.8613" gradientTransform="matrix(-0.9936 0.1125 -0.1125 -0.9936 -1950.2565 248.3827)"><stop offset="0.0056" style="stop-color:#FBCA11" id="stop56"/><stop offset="0.2528" style="stop-color:#FFFFBF" id="stop58"/><stop offset="0.2997" style="stop-color:#F9F3AE" id="stop60"/><stop offset="0.393" style="stop-color:#E8D381" id="stop62"/><stop offset="0.5226" style="stop-color:#CEA139" id="stop64"/><stop offset="0.5955" style="stop-color:#BE820E" id="stop66"/><stop offset="0.8558" style="stop-color:#E8D56A" id="stop68"/><stop offset="0.8708" style="stop-color:#EADA6F" id="stop70"/><stop offset="1" style="stop-color:#FFFFBF" id="stop72"/></linearGradient><path fill="url(#SVGID_3_)" d="M57.045,130.069c0,0,6.621,11.754,0.641,15.524c-5.982,3.766-6.91,6.438-6.797,11.586      c0.111,5.154-7.613-11.963-1.633-15.729C55.236,137.686,57.045,130.069,57.045,130.069z" id="path75"/><path fill="#D8962D" d="M50.586,158.391c-0.962,0-2.308-3.416-2.929-5.569c-0.611-2.114-2.31-9.203,1.466-11.581      c5.82-3.667,7.66-11.152,7.68-11.229l0.146-0.62l0.313,0.556c0.275,0.488,6.668,12.006,0.557,15.857      c-5.803,3.654-6.795,6.154-6.68,11.371c0.012,0.56-0.064,0.902-0.236,1.078C50.816,158.344,50.707,158.391,50.586,158.391z       M57.115,130.738c-0.582,1.902-2.721,7.771-7.726,10.924c-2.748,1.731-2.28,6.354-1.758,8.955      c0.798,3.967,2.428,7.063,2.93,7.264c0.027-0.057,0.088-0.23,0.078-0.694c-0.113-5.185,0.82-7.97,6.914-11.804      C62.545,142.234,58.307,133.075,57.115,130.738z" id="path77"/></g><path fill="#D8962D" d="M49.905,157.848c-0.023-1.104-0.158-2.252-0.288-3.365c-0.48-4.119-0.978-8.378,3.844-11.414     c5.762-3.628,3.367-12.842,3.344-12.936l0.482-0.129c0.025,0.096,2.508,9.664-3.561,13.486     c-4.555,2.868-4.098,6.785-3.612,10.934c0.131,1.123,0.267,2.285,0.291,3.412L49.905,157.848z" id="path81"/></g><g id="g112"><g id="g108"><linearGradient id="SVGID_4_" gradientUnits="userSpaceOnUse" x1="-851.3843" y1="641.9375" x2="-837.3452" y2="641.9375" gradientTransform="matrix(0.4975 0.8675 0.8675 -0.4975 -80.8817 1198.2157)"><stop offset="0.0056" style="stop-color:#FBCA11" id="stop85"/><stop offset="0.2528" style="stop-color:#FFFFBF" id="stop87"/><stop offset="0.2997" style="stop-color:#F9F3AE" id="stop89"/><stop offset="0.393" style="stop-color:#E8D381" id="stop91"/><stop offset="0.5226" style="stop-color:#CEA139" id="stop93"/><stop offset="0.5955" style="stop-color:#BE820E" id="stop95"/><stop offset="0.8558" style="stop-color:#E8D56A" id="stop97"/><stop offset="0.8708" style="stop-color:#EADA6F" id="stop99"/><stop offset="1" style="stop-color:#FFFFBF" id="stop101"/></linearGradient><path fill="url(#SVGID_4_)" d="M65.232,135.289c0,0-13.395,1.619-12.891,8.672c0.506,7.051-1.1,9.381-5.316,12.338      c-4.219,2.961,14.15-0.945,13.644-7.996C60.166,141.254,65.232,135.289,65.232,135.289z" id="path104"/><path fill="#D8962D" d="M47.194,157.547L47.194,157.547c-0.385,0-0.91-0.043-1.028-0.416c-0.122-0.388,0.319-0.758,0.717-1.037      c4.271-2.996,5.701-5.277,5.211-12.115c-0.516-7.207,12.553-8.871,13.109-8.938l0.633-0.078l-0.412,0.486      c-0.051,0.059-4.996,5.973-4.504,12.835c0.098,1.349-0.447,2.673-1.623,3.933C56.27,155.471,49.647,157.547,47.194,157.547z       M46.653,156.991c0.032,0,0.169,0.056,0.541,0.056c2.378,0,8.8-2.013,11.738-5.17c1.074-1.154,1.574-2.351,1.488-3.556      c-0.424-5.899,3.041-11.099,4.23-12.692c-2.588,0.422-12.48,2.43-12.061,8.313c0.516,7.181-1.176,9.583-5.422,12.562      c-0.415,0.293-0.502,0.445-0.52,0.488C46.651,156.991,46.652,156.991,46.653,156.991z" id="path106"/></g><path fill="#D8962D" d="M47.072,157.486l-0.287-0.408c0.922-0.648,1.939-1.228,2.923-1.787c3.628-2.064,7.056-4.017,6.673-9.384     c-0.512-7.151,8.67-10.815,8.762-10.853l0.182,0.467c-0.088,0.035-8.93,3.566-8.445,10.35c0.406,5.682-3.318,7.803-6.923,9.854     C48.981,156.279,47.975,156.853,47.072,157.486z" id="path110"/></g><g id="g141"><g id="g137"><linearGradient id="SVGID_5_" gradientUnits="userSpaceOnUse" x1="-1202.5815" y1="613.2607" x2="-1188.543" y2="613.2607" gradientTransform="matrix(0.1986 0.9801 0.9801 -0.1986 -306.4332 1441.4099)"><stop offset="0.0056" style="stop-color:#FBCA11" id="stop114"/><stop offset="0.2528" style="stop-color:#FFFFBF" id="stop116"/><stop offset="0.2997" style="stop-color:#F9F3AE" id="stop118"/><stop offset="0.393" style="stop-color:#E8D381" id="stop120"/><stop offset="0.5226" style="stop-color:#CEA139" id="stop122"/><stop offset="0.5955" style="stop-color:#BE820E" id="stop124"/><stop offset="0.8558" style="stop-color:#E8D56A" id="stop126"/><stop offset="0.8708" style="stop-color:#EADA6F" id="stop128"/><stop offset="1" style="stop-color:#FFFFBF" id="stop130"/></linearGradient><path fill="url(#SVGID_5_)" d="M69.508,140.267c0,0-13.223-2.685-14.965,4.165c-1.744,6.852-4.004,8.559-8.938,10.035      c-4.936,1.479,13.727,3.563,15.469-3.287C62.818,144.33,69.508,140.267,69.508,140.267z" id="path133"/><path fill="#D8962D" d="M49.888,156.213L49.888,156.213c-0.213,0-5.188-0.014-5.355-1.16c-0.066-0.451,0.54-0.688,1.002-0.825      c4.998-1.496,7.074-3.21,8.768-9.856c0.811-3.188,4.145-4.873,9.645-4.873c3,0,5.586,0.519,5.611,0.523l0.625,0.127      l-0.545,0.332c-0.066,0.041-6.623,4.095-8.32,10.762C60.385,154.906,54.803,156.213,49.888,156.213z M63.947,139.998      c-3.658,0-8.217,0.78-9.162,4.496c-1.775,6.979-4.139,8.725-9.107,10.213c-0.577,0.172-0.653,0.307-0.653,0.31      c0.139,0.219,1.882,0.696,4.863,0.698h0.001c4.726,0,10.083-1.207,10.943-4.594c1.461-5.734,6.391-9.578,8.02-10.715      C67.922,140.254,66.037,139.998,63.947,139.998z" id="path135"/></g><path fill="#D8962D" d="M45.276,155.606l-0.145-0.479c1.08-0.324,2.229-0.553,3.339-0.773c4.094-0.814,7.961-1.586,9.288-6.799     c1.771-6.951,11.639-7.533,11.736-7.538l0.025,0.499c-0.096,0.005-9.6,0.568-11.277,7.162c-1.404,5.519-5.607,6.356-9.675,7.166     C47.469,155.063,46.332,155.289,45.276,155.606z" id="path139"/></g><g id="g170"><g id="g166"><linearGradient id="SVGID_6_" gradientUnits="userSpaceOnUse" x1="-1801.2876" y1="-1187.5615" x2="-1787.25" y2="-1187.5615" gradientTransform="matrix(-0.4183 0.9083 -0.9083 -0.4183 -1788.5028 1280.0063)"><stop offset="0.0056" style="stop-color:#FBCA11" id="stop143"/><stop offset="0.2528" style="stop-color:#FFFFBF" id="stop145"/><stop offset="0.2997" style="stop-color:#F9F3AE" id="stop147"/><stop offset="0.393" style="stop-color:#E8D381" id="stop149"/><stop offset="0.5226" style="stop-color:#CEA139" id="stop151"/><stop offset="0.5955" style="stop-color:#BE820E" id="stop153"/><stop offset="0.8558" style="stop-color:#E8D56A" id="stop155"/><stop offset="0.8708" style="stop-color:#EADA6F" id="stop157"/><stop offset="1" style="stop-color:#FFFFBF" id="stop159"/></linearGradient><path fill="url(#SVGID_6_)" d="M30.446,136.823c0,0,13.486,0.423,13.611,7.492c0.123,7.065,1.932,9.244,6.395,11.815      c4.464,2.572-14.178,0.316-14.303-6.75C36.024,142.315,30.446,136.823,30.446,136.823z" id="path162"/><path fill="#D8962D" d="M49.885,157.409c-4.018,0-13.895-2.812-13.986-8.022c-0.122-6.881-5.573-12.332-5.629-12.385      l-0.454-0.449l0.638,0.021c0.561,0.019,13.726,0.515,13.854,7.738c0.119,6.853,1.746,8.997,6.27,11.603      c0.43,0.248,0.908,0.584,0.801,0.987C51.285,157.248,50.811,157.409,49.885,157.409z M31.055,137.109      c1.325,1.482,5.239,6.354,5.344,12.268c0.087,4.942,10.055,7.532,13.486,7.532c0.763,0,0.968-0.118,1.009-0.149      c-0.025-0.01-0.123-0.155-0.567-0.412c-4.495-2.59-6.395-4.832-6.52-12.027C43.703,138.422,33.67,137.301,31.055,137.109z" id="path164"/></g><path fill="#D8962D" d="M50.512,157.317c-0.955-0.55-2.007-1.03-3.025-1.495c-3.773-1.722-7.676-3.502-7.775-9.199     c-0.122-6.806-9.243-9.533-9.335-9.559l0.139-0.48c0.096,0.028,9.567,2.86,9.696,10.031c0.094,5.383,3.683,7.02,7.483,8.753     c1.028,0.47,2.092,0.954,3.067,1.517L50.512,157.317z" id="path168"/></g><g id="g199"><g id="g195"><linearGradient id="SVGID_7_" gradientUnits="userSpaceOnUse" x1="-2063.7007" y1="-402.0479" x2="-2049.6631" y2="-402.0479" gradientTransform="matrix(-0.9318 0.3629 -0.3629 -0.9318 -2012.2167 515.5048)"><stop offset="0.0056" style="stop-color:#FBCA11" id="stop172"/><stop offset="0.2528" style="stop-color:#FFFFBF" id="stop174"/><stop offset="0.2997" style="stop-color:#F9F3AE" id="stop176"/><stop offset="0.393" style="stop-color:#E8D381" id="stop178"/><stop offset="0.5226" style="stop-color:#CEA139" id="stop180"/><stop offset="0.5955" style="stop-color:#BE820E" id="stop182"/><stop offset="0.8558" style="stop-color:#E8D56A" id="stop184"/><stop offset="0.8708" style="stop-color:#EADA6F" id="stop186"/><stop offset="1" style="stop-color:#FFFFBF" id="stop188"/></linearGradient><path fill="url(#SVGID_7_)" d="M49.815,129.297c0,0,9.406,9.672,4.587,14.846c-4.817,5.169-5.03,7.99-3.607,12.939      c1.428,4.953-10.419-9.617-5.601-14.789C50.014,137.123,49.815,129.297,49.815,129.297z" id="path191"/><path fill="#D8962D" d="M50.688,158.344c-1.023,0-3.936-3.653-5.625-7.535c-1.183-2.719-2.151-6.432-0.052-8.686      c4.696-5.037,4.556-12.742,4.554-12.818l-0.017-0.639l0.446,0.457c0.391,0.402,9.516,9.902,4.59,15.189      c-4.672,5.013-4.991,7.686-3.549,12.701c0.168,0.587,0.174,0.943,0.014,1.156C50.963,158.281,50.834,158.344,50.688,158.344z       M50.054,129.926c-0.076,1.988-0.644,8.211-4.678,12.537c-2.016,2.164-0.774,6.033,0.146,8.146      c1.776,4.083,4.551,7.204,5.156,7.236c-0.014-0.023,0.021-0.195-0.123-0.692c-1.434-4.983-1.241-7.917,3.666-13.181      C58.24,139.653,51.803,131.881,50.054,129.926z" id="path193"/></g><path fill="#D8962D" d="M50.016,157.979c-0.305-1.06-0.729-2.138-1.139-3.179c-1.52-3.86-3.09-7.852,0.796-12.019     c4.64-4.979-0.027-13.276-0.075-13.36l0.434-0.248c0.05,0.086,4.896,8.703,0.007,13.949c-3.67,3.937-2.226,7.607-0.696,11.494     c0.414,1.053,0.843,2.141,1.153,3.225L50.016,157.979z" id="path197"/></g><g id="g228"><g id="g224"><linearGradient id="SVGID_8_" gradientUnits="userSpaceOnUse" x1="58.8379" y1="11.167" x2="72.875" y2="11.167" gradientTransform="matrix(1 0.0031 0.0031 -1 -20.5574 154.4185)"><stop offset="0.0056" style="stop-color:#FBCA11" id="stop201"/><stop offset="0.2528" style="stop-color:#FFFFBF" id="stop203"/><stop offset="0.2997" style="stop-color:#F9F3AE" id="stop205"/><stop offset="0.393" style="stop-color:#E8D381" id="stop207"/><stop offset="0.5226" style="stop-color:#CEA139" id="stop209"/><stop offset="0.5955" style="stop-color:#BE820E" id="stop211"/><stop offset="0.8558" style="stop-color:#E8D56A" id="stop213"/><stop offset="0.8708" style="stop-color:#EADA6F" id="stop215"/><stop offset="1" style="stop-color:#FFFFBF" id="stop217"/></linearGradient><path fill="url(#SVGID_8_)" d="M40.395,129.857c0,0-5.293,12.408,1.064,15.5c6.357,3.088,7.572,5.645,8.025,10.773      c0.453,5.135,6.258-12.725-0.1-15.813C43.026,137.229,40.395,129.857,40.395,129.857z" id="path220"/><path fill="#D8962D" d="M49.869,157.303L49.869,157.303c-0.531,0-0.605-0.836-0.633-1.149c-0.459-5.198-1.72-7.577-7.886-10.571      c-6.497-3.16-1.405-15.308-1.185-15.822l0.25-0.588l0.215,0.602c0.026,0.072,2.674,7.313,8.864,10.32      c3.57,1.734,3.543,7.979,2.434,12.798C51.824,153.342,50.883,157.303,49.869,157.303z M40.398,130.53      c-0.928,2.453-4.135,12.022,1.171,14.603c6.474,3.144,7.709,5.811,8.165,10.977c0.041,0.462,0.119,0.629,0.154,0.682      c0.477-0.254,1.756-3.51,2.116-7.539c0.234-2.644,0.193-7.289-2.729-8.709C43.955,137.957,41.185,132.357,40.398,130.53z" id="path222"/></g><path fill="#D8962D" d="M50.037,156.729c-0.099-1.122-0.092-2.292-0.084-3.425c0.026-4.174,0.052-8.118-4.788-10.471     c-6.45-3.136-5.031-12.916-5.017-13.016l0.494,0.076c-0.015,0.095-1.377,9.516,4.741,12.49c5.123,2.49,5.096,6.777,5.069,10.925     c-0.008,1.12-0.015,2.278,0.081,3.376L50.037,156.729z" id="path226"/></g><g id="g257"><g id="g253"><linearGradient id="SVGID_9_" gradientUnits="userSpaceOnUse" x1="-140.0464" y1="301.123" x2="-126.0078" y2="301.123" gradientTransform="matrix(0.948 0.3182 0.3182 -0.948 77.5359 470.9015)"><stop offset="0.0056" style="stop-color:#FBCA11" id="stop230"/><stop offset="0.2528" style="stop-color:#FFFFBF" id="stop232"/><stop offset="0.2997" style="stop-color:#F9F3AE" id="stop234"/><stop offset="0.393" style="stop-color:#E8D381" id="stop236"/><stop offset="0.5226" style="stop-color:#CEA139" id="stop238"/><stop offset="0.5955" style="stop-color:#BE820E" id="stop240"/><stop offset="0.8558" style="stop-color:#E8D56A" id="stop242"/><stop offset="0.8708" style="stop-color:#EADA6F" id="stop244"/><stop offset="1" style="stop-color:#FFFFBF" id="stop246"/></linearGradient><path fill="url(#SVGID_9_)" d="M46.846,128.645c0,0-8.938,10.105-3.879,15.044c5.061,4.937,5.408,7.745,4.219,12.757      c-1.188,5.014,9.951-10.105,4.892-15.04C47.018,136.469,46.846,128.645,46.846,128.645z" id="path249"/><path fill="#D8962D" d="M47.33,157.699C47.329,157.699,47.329,157.699,47.33,157.699c-0.143,0-0.268-0.061-0.353-0.167      c-0.163-0.206-0.173-0.56-0.034-1.146c1.205-5.077,0.759-7.731-4.15-12.52c-5.169-5.046,3.495-14.969,3.866-15.389L47.082,128      l0.015,0.638c0.002,0.076,0.23,7.781,5.157,12.587c1.801,1.757,1.857,5.017,0.162,9.18      C50.973,153.95,48.358,157.699,47.33,157.699z M46.637,129.283c-1.654,2.035-7.717,10.105-3.495,14.227      c5.153,5.025,5.484,7.947,4.287,12.992c-0.106,0.448-0.085,0.633-0.069,0.694c0.579-0.11,3.011-3.092,4.593-6.979      c0.936-2.293,2.17-6.467-0.049-8.633C47.669,137.453,46.807,131.266,46.637,129.283z" id="path251"/></g><path fill="#D8962D" d="M48.009,157.299l-0.486-0.114c0.26-1.097,0.636-2.205,0.999-3.277c1.341-3.952,2.607-7.687-1.243-11.444     c-5.133-5.008-0.7-13.845-0.655-13.933l0.445,0.228c-0.044,0.086-4.31,8.598,0.56,13.348c4.076,3.979,2.699,8.037,1.367,11.963     C48.635,155.129,48.263,156.227,48.009,157.299z" id="path255"/></g></g><g id="g276"><radialGradient id="SVGID_10_" cx="148.9648" cy="41.064" r="3.5946" fx="148.6326" fy="41.0941" gradientTransform="matrix(1 0 0 -1 -100.9902 199.4004)" gradientUnits="userSpaceOnUse"><stop offset="0" style="stop-color:#FFFFBF" id="stop261"/><stop offset="0.1369" style="stop-color:#F9F3AE" id="stop263"/><stop offset="0.4091" style="stop-color:#E8D381" id="stop265"/><stop offset="0.7872" style="stop-color:#CEA139" id="stop267"/><stop offset="1" style="stop-color:#BE820E" id="stop269"/></radialGradient><rect x="45.922" y="157.432" fill="url(#SVGID_10_)" width="6.109" height="3.312" id="rect272"/><path fill="#D8962D" d="M52.182,160.893h-6.41v-3.611h6.41V160.893z M46.073,160.592h5.808v-3.012h-5.808V160.592z" id="path274"/></g><g id="g293"><radialGradient id="SVGID_11_" cx="148" cy="258.2705" r="6.3117" fx="147.4166" fy="258.3235" gradientTransform="matrix(1 0 0 -0.6913 -100.9902 334.3099)" gradientUnits="userSpaceOnUse"><stop offset="0" style="stop-color:#FFFFBF" id="stop278"/><stop offset="0.1369" style="stop-color:#F9F3AE" id="stop280"/><stop offset="0.4091" style="stop-color:#E8D381" id="stop282"/><stop offset="0.7872" style="stop-color:#CEA139" id="stop284"/><stop offset="1" style="stop-color:#BE820E" id="stop286"/></radialGradient><rect x="42.981" y="155.178" fill="url(#SVGID_11_)" width="11.994" height="2.162" id="rect289"/><path fill="#D8962D" d="M55.125,157.49H42.831v-2.462h12.294V157.49L55.125,157.49z M43.131,157.19h11.693v-1.862H43.131V157.19z" id="path291"/></g><g id="g310"><radialGradient id="SVGID_12_" cx="146.9805" cy="33.9468" r="13.6556" fx="145.7182" fy="34.0614" gradientTransform="matrix(1 0 0 -1 -100.9902 199.4004)" gradientUnits="userSpaceOnUse"><stop offset="0" style="stop-color:#FFFFBF" id="stop295"/><stop offset="0.1369" style="stop-color:#F9F3AE" id="stop297"/><stop offset="0.4091" style="stop-color:#E8D381" id="stop299"/><stop offset="0.7872" style="stop-color:#CEA139" id="stop301"/><stop offset="1" style="stop-color:#BE820E" id="stop303"/></radialGradient><circle fill="url(#SVGID_12_)" cx="48.977" cy="169.583" r="9.1" id="circle306"/><path fill="#D8962D" d="M48.979,178.836c-5.102,0-9.252-4.15-9.252-9.252c0-5.1,4.15-9.25,9.252-9.25    c5.099,0,9.248,4.149,9.248,9.25C58.227,174.686,54.078,178.836,48.979,178.836z M48.979,160.633    c-4.936,0-8.951,4.016-8.951,8.951s4.016,8.951,8.951,8.951c4.933,0,8.947-4.016,8.947-8.951S53.912,160.633,48.979,160.633z" id="path308"/></g></g><g id="g574"><g id="g441"><g id="g337"><linearGradient id="SVGID_13_" gradientUnits="userSpaceOnUse" x1="118.248" y1="3.1431" x2="183.7354" y2="3.1431" gradientTransform="matrix(1 0 0 -1 -100.9902 199.4004)"><stop offset="0.0056" style="stop-color:#FBCA11" id="stop314"/><stop offset="0.2528" style="stop-color:#FFFFBF" id="stop316"/><stop offset="0.2997" style="stop-color:#F9F3AE" id="stop318"/><stop offset="0.393" style="stop-color:#E8D381" id="stop320"/><stop offset="0.5226" style="stop-color:#CEA139" id="stop322"/><stop offset="0.5955" style="stop-color:#BE820E" id="stop324"/><stop offset="0.8558" style="stop-color:#E8D56A" id="stop326"/><stop offset="0.8708" style="stop-color:#EADA6F" id="stop328"/><stop offset="1" style="stop-color:#FFFFBF" id="stop330"/></linearGradient><path fill="url(#SVGID_13_)" d="M79.733,207.579l0.004-0.003c-51.389-17.568-62.479-29.988-62.479-29.988     s-0.664,12.324,58.302,32.376c-0.143,0.395-0.232,0.813-0.232,1.254c0,2.049,1.66,3.709,3.709,3.709s3.709-1.66,3.709-3.709     C82.744,209.408,81.448,207.906,79.733,207.579z" id="path333"/><path fill="#BE820E" d="M79.035,215.175c-2.183,0-3.959-1.774-3.959-3.957c0-0.361,0.055-0.723,0.167-1.098     c-58.236-19.837-58.264-32.036-58.235-32.547l0.033-0.604l0.402,0.451c0.11,0.125,11.687,12.588,62.376,29.919l0.01,0.002     c1.837,0.375,3.165,1.996,3.165,3.875C82.994,213.4,81.218,215.175,79.035,215.175z M17.672,178.338     c1.004,2.931,8.09,14.429,57.968,31.39l0.24,0.082l-0.086,0.238c-0.146,0.408-0.218,0.789-0.218,1.17     c0,1.906,1.552,3.457,3.459,3.457s3.459-1.551,3.459-3.457c0-1.655-1.181-3.084-2.808-3.395l-0.556-0.105l0.078-0.06     C34.885,192.461,20.579,180.993,17.672,178.338z" id="path335"/></g><g id="g362"><linearGradient id="SVGID_14_" gradientUnits="userSpaceOnUse" x1="425.0859" y1="-347.0576" x2="429.0839" y2="-352.8345" gradientTransform="matrix(0.3933 -0.9194 -0.9194 -0.3933 -424.3029 460.0961)"><stop offset="0.0056" style="stop-color:#FBCA11" id="stop339"/><stop offset="0.2528" style="stop-color:#FFFFBF" id="stop341"/><stop offset="0.2997" style="stop-color:#F9F3AE" id="stop343"/><stop offset="0.393" style="stop-color:#E8D381" id="stop345"/><stop offset="0.5226" style="stop-color:#CEA139" id="stop347"/><stop offset="0.5955" style="stop-color:#BE820E" id="stop349"/><stop offset="0.8558" style="stop-color:#E8D56A" id="stop351"/><stop offset="0.8708" style="stop-color:#EADA6F" id="stop353"/><stop offset="1" style="stop-color:#FFFFBF" id="stop355"/></linearGradient><path fill="url(#SVGID_14_)" d="M67.06,207.309c0,0-2.647-2.563-5.597-4.011c3.056,0.774,7.25,0.391,7.25,0.391" id="path358"/><path fill="#BE820E" d="M67.06,207.559c-0.063,0-0.125-0.022-0.175-0.07c-0.026-0.024-2.653-2.555-5.532-3.966l0.172-0.467     c2.979,0.755,7.125,0.388,7.166,0.384c0.134-0.017,0.26,0.089,0.271,0.228c0.014,0.137-0.089,0.258-0.227,0.271     c-0.145,0.014-3.047,0.272-5.786-0.104c2.358,1.442,4.261,3.273,4.282,3.295c0.101,0.096,0.103,0.256,0.006,0.354     C67.188,207.533,67.124,207.559,67.06,207.559z" id="path360"/></g><g id="g439"><g id="g387"><linearGradient id="SVGID_15_" gradientUnits="userSpaceOnUse" x1="133.1289" y1="-151.1748" x2="136.9984" y2="-156.7662" gradientTransform="matrix(0.9978 0.0658 0.0658 -0.9978 -55.4095 43.7544)"><stop offset="0.0056" style="stop-color:#FBCA11" id="stop364"/><stop offset="0.2528" style="stop-color:#FFFFBF" id="stop366"/><stop offset="0.2997" style="stop-color:#F9F3AE" id="stop368"/><stop offset="0.393" style="stop-color:#E8D381" id="stop370"/><stop offset="0.5226" style="stop-color:#CEA139" id="stop372"/><stop offset="0.5955" style="stop-color:#BE820E" id="stop374"/><stop offset="0.8558" style="stop-color:#E8D56A" id="stop376"/><stop offset="0.8708" style="stop-color:#EADA6F" id="stop378"/><stop offset="1" style="stop-color:#FFFFBF" id="stop380"/></linearGradient><polygon fill="url(#SVGID_15_)" points="71.683,200.839 67.201,205.14 66.767,211.708 71.478,207.022     " id="polygon383"/><path fill="#BE820E" d="M66.474,212.352l0.484-7.325l4.994-4.795l-0.229,6.898l-0.07,0.069L66.474,212.352z M67.444,205.253      l-0.385,5.811l4.17-4.146l0.182-5.472L67.444,205.253z" id="path385"/></g><g id="g412"><linearGradient id="SVGID_16_" gradientUnits="userSpaceOnUse" x1="116.1748" y1="-158.1587" x2="118.3877" y2="-161.3563" gradientTransform="matrix(0.9928 0.1194 0.1194 -0.9928 -30.5907 39.0974)"><stop offset="0.0056" style="stop-color:#FBCA11" id="stop389"/><stop offset="0.2528" style="stop-color:#FFFFBF" id="stop391"/><stop offset="0.2997" style="stop-color:#F9F3AE" id="stop393"/><stop offset="0.393" style="stop-color:#E8D381" id="stop395"/><stop offset="0.5226" style="stop-color:#CEA139" id="stop397"/><stop offset="0.5955" style="stop-color:#BE820E" id="stop399"/><stop offset="0.8558" style="stop-color:#E8D56A" id="stop401"/><stop offset="0.8708" style="stop-color:#EADA6F" id="stop403"/><stop offset="1" style="stop-color:#FFFFBF" id="stop405"/></linearGradient><circle fill="url(#SVGID_16_)" cx="66.769" cy="211.708" r="1.944" id="circle408"/><path fill="#BE820E" d="M66.771,213.903c-0.088,0-0.176-0.005-0.265-0.016c-0.583-0.07-1.104-0.363-1.465-0.823      c-0.362-0.461-0.522-1.035-0.451-1.618c0.144-1.188,1.218-2.059,2.438-1.916c0.582,0.068,1.103,0.362,1.465,0.823      c0.361,0.46,0.521,1.034,0.451,1.616C68.813,213.072,67.879,213.903,66.771,213.903z M66.765,210.015      c-0.854,0-1.576,0.642-1.679,1.492c-0.056,0.449,0.069,0.893,0.349,1.248c0.28,0.354,0.682,0.582,1.133,0.637      c0.935,0.105,1.772-0.563,1.883-1.48c0.054-0.449-0.07-0.894-0.35-1.248c-0.279-0.357-0.682-0.582-1.132-0.637      C66.899,210.019,66.832,210.015,66.765,210.015z" id="path410"/></g><g id="g437"><linearGradient id="SVGID_17_" gradientUnits="userSpaceOnUse" x1="119.7539" y1="-146.7773" x2="121.9679" y2="-149.9766" gradientTransform="matrix(0.9928 0.1194 0.1194 -0.9928 -30.5907 39.0974)"><stop offset="0.0056" style="stop-color:#FBCA11" id="stop414"/><stop offset="0.2528" style="stop-color:#FFFFBF" id="stop416"/><stop offset="0.2997" style="stop-color:#F9F3AE" id="stop418"/><stop offset="0.393" style="stop-color:#E8D381" id="stop420"/><stop offset="0.5226" style="stop-color:#CEA139" id="stop422"/><stop offset="0.5955" style="stop-color:#BE820E" id="stop424"/><stop offset="0.8558" style="stop-color:#E8D56A" id="stop426"/><stop offset="0.8708" style="stop-color:#EADA6F" id="stop428"/><stop offset="1" style="stop-color:#FFFFBF" id="stop430"/></linearGradient><circle fill="url(#SVGID_17_)" cx="71.683" cy="200.837" r="1.945" id="circle433"/><path fill="#BE820E" d="M71.685,203.032c-0.086,0-0.176-0.005-0.264-0.016c-1.202-0.146-2.063-1.24-1.918-2.44      c0.143-1.188,1.234-2.063,2.441-1.917c1.201,0.145,2.062,1.238,1.916,2.439C73.731,202.201,72.795,203.032,71.685,203.032z       M71.683,199.144c-0.857,0-1.58,0.641-1.684,1.492c-0.111,0.927,0.554,1.771,1.48,1.885c0.941,0.104,1.776-0.563,1.885-1.48      c0.111-0.929-0.553-1.772-1.479-1.885C71.817,199.147,71.749,199.144,71.683,199.144z" id="path435"/></g></g></g><g id="g572"><g id="g466"><linearGradient id="SVGID_18_" gradientUnits="userSpaceOnUse" x1="1325.8438" y1="1691.5098" x2="1330.1895" y2="1691.5098" gradientTransform="matrix(0.4695 1.0759 1.1378 -0.4965 -2498.1025 -392.7214)"><stop offset="0.0056" style="stop-color:#FBCA11" id="stop443"/><stop offset="0.2528" style="stop-color:#FFFFBF" id="stop445"/><stop offset="0.2997" style="stop-color:#F9F3AE" id="stop447"/><stop offset="0.393" style="stop-color:#E8D381" id="stop449"/><stop offset="0.5226" style="stop-color:#CEA139" id="stop451"/><stop offset="0.5955" style="stop-color:#BE820E" id="stop453"/><stop offset="0.8558" style="stop-color:#E8D56A" id="stop455"/><stop offset="0.8708" style="stop-color:#EADA6F" id="stop457"/><stop offset="1" style="stop-color:#FFFFBF" id="stop459"/></linearGradient><polygon fill="url(#SVGID_18_)" points="18.447,212.809 16.478,208.317 81.554,179.705 83.524,184.196    " id="polygon462"/><path fill="#BE820E" d="M18.319,213.138l-2.172-4.948l65.533-28.814l2.172,4.949L18.319,213.138z M16.807,208.445l1.771,4.034     l64.619-28.412l-1.771-4.034L16.807,208.445z" id="path464"/></g><g id="g491"><linearGradient id="SVGID_19_" gradientUnits="userSpaceOnUse" x1="293.4189" y1="-130.8315" x2="297.4453" y2="-130.8315" gradientTransform="matrix(0.9139 -0.406 -0.406 -0.9139 -300.352 208.7341)"><stop offset="0.0056" style="stop-color:#FBCA11" id="stop468"/><stop offset="0.2528" style="stop-color:#FFFFBF" id="stop470"/><stop offset="0.2997" style="stop-color:#F9F3AE" id="stop472"/><stop offset="0.393" style="stop-color:#E8D381" id="stop474"/><stop offset="0.5226" style="stop-color:#CEA139" id="stop476"/><stop offset="0.5955" style="stop-color:#BE820E" id="stop478"/><stop offset="0.8558" style="stop-color:#E8D56A" id="stop480"/><stop offset="0.8708" style="stop-color:#EADA6F" id="stop482"/><stop offset="1" style="stop-color:#FFFFBF" id="stop484"/></linearGradient><path fill="url(#SVGID_19_)" d="M25.248,208.997c0.375,0.846-0.005,1.832-0.85,2.207l-0.623,0.276     c-0.843,0.375-1.832-0.005-2.206-0.849l-1.296-2.916c-0.375-0.844,0.005-1.832,0.851-2.205l0.622-0.278     c0.845-0.374,1.833,0.006,2.207,0.851L25.248,208.997z" id="path487"/><path fill="#BE820E" d="M23.099,211.876c-0.76,0-1.449-0.449-1.757-1.142l-1.296-2.917c-0.209-0.471-0.222-0.991-0.037-1.471     s0.545-0.856,1.014-1.064l0.621-0.277c0.249-0.109,0.511-0.166,0.78-0.166c0.761,0,1.45,0.449,1.758,1.143l1.295,2.915     c0.43,0.969-0.008,2.106-0.976,2.537l-0.623,0.276C23.63,211.819,23.368,211.876,23.099,211.876z M22.424,205.339     c-0.199,0-0.394,0.041-0.576,0.121l-0.621,0.278c-0.349,0.154-0.615,0.435-0.751,0.787c-0.137,0.354-0.127,0.739,0.027,1.088     l1.296,2.917c0.308,0.693,1.175,1.035,1.876,0.721l0.623-0.275c0.716-0.318,1.04-1.16,0.722-1.877l-1.295-2.915     C23.497,205.671,22.985,205.339,22.424,205.339z" id="path489"/></g><g id="g545"><g id="g517"><g id="g497"><line fill="none" x1="74.135" y1="182.817" x2="76.104" y2="187.309" id="line493"/><rect x="72.67" y="184.811" transform="matrix(-0.4019 -0.9157 0.9157 -0.4019 -64.1458 328.222)" fill="#BE820E" width="4.904" height="0.499" id="rect495"/></g><g id="g503"><line fill="none" x1="73.356" y1="183.157" x2="75.329" y2="187.648" id="line499"/><rect x="71.898" y="185.153" transform="matrix(-0.4022 -0.9155 0.9155 -0.4022 -65.4883 328.0457)" fill="#BE820E" width="4.904" height="0.499" id="rect501"/></g><g id="g509"><line fill="none" x1="72.579" y1="183.498" x2="74.552" y2="187.989" id="line505"/><rect x="71.116" y="185.496" transform="matrix(-0.4021 -0.9156 0.9156 -0.4021 -66.921 327.7882)" fill="#BE820E" width="4.906" height="0.498" id="rect507"/></g><g id="g515"><line fill="none" x1="71.803" y1="183.838" x2="73.772" y2="188.332" id="line511"/><rect x="70.327" y="185.833" transform="matrix(-0.4017 -0.9158 0.9158 -0.4017 -68.3889 327.4875)" fill="#BE820E" width="4.905" height="0.499" id="rect513"/></g></g><g id="g543"><g id="g523"><line fill="none" x1="27.376" y1="203.39" x2="29.348" y2="207.882" id="line519"/><rect x="25.917" y="205.388" transform="matrix(-0.4021 -0.9156 0.9156 -0.4021 -148.5104 314.2899)" fill="#BE820E" width="4.904" height="0.498" id="rect521"/></g><g id="g529"><line fill="none" x1="26.6" y1="203.73" x2="28.569" y2="208.222" id="line525"/><rect x="25.124" y="205.723" transform="matrix(-0.4017 -0.9158 0.9158 -0.4017 -149.9641 313.9728)" fill="#BE820E" width="4.905" height="0.499" id="rect527"/></g><g id="g535"><line fill="none" x1="25.821" y1="204.072" x2="27.793" y2="208.564" id="line531"/><rect x="24.348" y="206.064" transform="matrix(-0.4017 -0.9158 0.9158 -0.4017 -151.3653 313.741)" fill="#BE820E" width="4.905" height="0.499" id="rect533"/></g><g id="g541"><line fill="none" x1="25.044" y1="204.415" x2="27.014" y2="208.906" id="line537"/><rect x="23.581" y="206.414" transform="matrix(-0.4016 -0.9158 0.9158 -0.4016 -152.7798 313.4953)" fill="#BE820E" width="4.905" height="0.499" id="rect539"/></g></g></g><g id="g570"><linearGradient id="SVGID_20_" gradientUnits="userSpaceOnUse" x1="354.2334" y1="-130.833" x2="358.2578" y2="-130.833" gradientTransform="matrix(0.9139 -0.406 -0.406 -0.9139 -300.352 208.7341)"><stop offset="0.0056" style="stop-color:#FBCA11" id="stop547"/><stop offset="0.2528" style="stop-color:#FFFFBF" id="stop549"/><stop offset="0.2997" style="stop-color:#F9F3AE" id="stop551"/><stop offset="0.393" style="stop-color:#E8D381" id="stop553"/><stop offset="0.5226" style="stop-color:#CEA139" id="stop555"/><stop offset="0.5955" style="stop-color:#BE820E" id="stop557"/><stop offset="0.8558" style="stop-color:#E8D56A" id="stop559"/><stop offset="0.8708" style="stop-color:#EADA6F" id="stop561"/><stop offset="1" style="stop-color:#FFFFBF" id="stop563"/></linearGradient><path fill="url(#SVGID_20_)" d="M80.826,184.31c0.375,0.844-0.005,1.829-0.851,2.206l-0.621,0.275     c-0.845,0.377-1.832-0.004-2.207-0.849l-1.295-2.917c-0.375-0.844,0.006-1.831,0.849-2.205l0.624-0.277     c0.842-0.375,1.83,0.006,2.205,0.85L80.826,184.31z" id="path566"/><path fill="#BE820E" d="M78.676,187.188c-0.758,0-1.446-0.448-1.756-1.143l-1.296-2.916c-0.208-0.47-0.223-0.992-0.037-1.471     s0.544-0.857,1.014-1.064l0.623-0.277c0.248-0.109,0.51-0.166,0.778-0.166c0.761,0,1.449,0.447,1.758,1.143l1.296,2.916     c0.43,0.967-0.009,2.105-0.978,2.537l-0.622,0.275C79.208,187.131,78.944,187.188,78.676,187.188z M78.002,180.649     c-0.198,0-0.392,0.042-0.575,0.123l-0.624,0.276c-0.347,0.154-0.612,0.435-0.749,0.789c-0.137,0.354-0.127,0.74,0.027,1.086     l1.296,2.918c0.31,0.695,1.177,1.033,1.876,0.722l0.622-0.276c0.717-0.318,1.041-1.16,0.724-1.875l-1.296-2.918     C79.075,180.981,78.563,180.649,78.002,180.649z" id="path568"/></g></g></g><g id="g666"><g id="g664"><g id="g618"><g id="g599"><linearGradient id="SVGID_21_" gradientUnits="userSpaceOnUse" x1="130.5742" y1="-33.9395" x2="171.4063" y2="-33.9395" gradientTransform="matrix(1 0 0 -1 -100.9902 199.4004)"><stop offset="0.0056" style="stop-color:#FBCA11" id="stop576"/><stop offset="0.2528" style="stop-color:#FFFFBF" id="stop578"/><stop offset="0.2997" style="stop-color:#F9F3AE" id="stop580"/><stop offset="0.393" style="stop-color:#E8D381" id="stop582"/><stop offset="0.5226" style="stop-color:#CEA139" id="stop584"/><stop offset="0.5955" style="stop-color:#BE820E" id="stop586"/><stop offset="0.8558" style="stop-color:#E8D56A" id="stop588"/><stop offset="0.8708" style="stop-color:#EADA6F" id="stop590"/><stop offset="1" style="stop-color:#FFFFBF" id="stop592"/></linearGradient><polygon fill="url(#SVGID_21_)" points="60.209,251.054 58.646,249.901 49.998,243.513 41.347,249.845 39.791,250.984       40,249.068 41.16,238.408 31.347,234.081 29.584,233.304 31.35,232.526 41.16,228.201 40,217.542 39.791,215.626       41.347,216.763 50.004,223.099 58.654,216.819 60.205,215.691 60,217.599 58.838,228.259 68.65,232.585 70.416,233.361       68.652,234.138 58.84,238.466 60,249.126     " id="polygon595"/><path fill="#BE820E" d="M60.519,251.593l-10.521-7.771l-10.516,7.697l1.41-12.957l-11.929-5.261l11.929-5.258l-1.41-12.957      l10.522,7.701l10.51-7.633l-1.407,12.946l11.931,5.258l-11.929,5.261L60.519,251.593z M49.999,243.202l9.9,7.313l-1.328-12.203      l0.168-0.073l11.058-4.876l-11.228-4.947l0.021-0.183l1.308-12.006l-9.895,7.183l-9.901-7.246l1.327,12.194l-0.168,0.073      l-11.057,4.873l11.225,4.949l-0.021,0.184l-1.308,12.013L49.999,243.202z" id="path597"/></g><linearGradient id="SVGID_22_" gradientUnits="userSpaceOnUse" x1="132.6816" y1="-33.9336" x2="169.2969" y2="-33.9336" gradientTransform="matrix(1 0 0 -1 -100.9902 199.4004)"><stop offset="0.3876" style="stop-color:#E6E6E6" id="stop601"/><stop offset="0.5623" style="stop-color:#CFCFCF" id="stop603"/><stop offset="0.7419" style="stop-color:#B3B3B3" id="stop605"/><stop offset="0.8003" style="stop-color:#B9B9B9" id="stop607"/><stop offset="0.8773" style="stop-color:#C9C9C9" id="stop609"/><stop offset="0.9642" style="stop-color:#E5E5E5" id="stop611"/><stop offset="1" style="stop-color:#F2F2F2" id="stop613"/></linearGradient><polygon fill="url(#SVGID_22_)" points="57.928,237.939 68.307,233.362 57.926,228.786 59.152,217.507 50,224.151 40.845,217.45      42.072,228.729 31.691,233.304 42.072,237.882 42.072,237.882 40.845,249.161 50,242.46 59.152,249.218    " id="polygon616"/></g><g id="g662"><g id="g643"><linearGradient id="SVGID_23_" gradientUnits="userSpaceOnUse" x1="145.6445" y1="-33.9346" x2="156.3828" y2="-33.9346" gradientTransform="matrix(1 0 0 -1 -100.9902 199.4004)"><stop offset="0.0056" style="stop-color:#FBCA11" id="stop620"/><stop offset="0.2528" style="stop-color:#FFFFBF" id="stop622"/><stop offset="0.2997" style="stop-color:#F9F3AE" id="stop624"/><stop offset="0.393" style="stop-color:#E8D381" id="stop626"/><stop offset="0.5226" style="stop-color:#CEA139" id="stop628"/><stop offset="0.5955" style="stop-color:#BE820E" id="stop630"/><stop offset="0.8558" style="stop-color:#E8D56A" id="stop632"/><stop offset="0.8708" style="stop-color:#EADA6F" id="stop634"/><stop offset="1" style="stop-color:#FFFFBF" id="stop636"/></linearGradient><circle fill="url(#SVGID_23_)" cx="50.023" cy="233.335" r="5.369" id="circle639"/><path fill="#D8962D" d="M50.023,238.954c-3.1,0-5.619-2.521-5.619-5.619c0-3.1,2.521-5.619,5.619-5.619      c3.098,0,5.619,2.521,5.619,5.619C55.643,236.433,53.123,238.954,50.023,238.954z M50.023,228.214      c-2.822,0-5.119,2.297-5.119,5.119c0,2.823,2.297,5.121,5.119,5.121s5.119-2.298,5.119-5.121      C55.143,230.511,52.846,228.214,50.023,228.214z" id="path641"/></g><g id="g660"><radialGradient id="SVGID_24_" cx="148.4404" cy="-30.6421" r="7.8158" gradientTransform="matrix(1 0 0 -1 -100.9902 199.4004)" gradientUnits="userSpaceOnUse"><stop offset="0" style="stop-color:#FFFFBF" id="stop645"/><stop offset="0.1369" style="stop-color:#F9F3AE" id="stop647"/><stop offset="0.4091" style="stop-color:#E8D381" id="stop649"/><stop offset="0.7872" style="stop-color:#CEA139" id="stop651"/><stop offset="1" style="stop-color:#BE820E" id="stop653"/></radialGradient><path fill="url(#SVGID_24_)" d="M50.023,237.286c-2.179,0-3.951-1.771-3.951-3.951s1.772-3.951,3.951-3.951      c2.18,0,3.953,1.771,3.953,3.951C53.977,235.513,52.203,237.286,50.023,237.286L50.023,237.286z" id="path656"/><path fill="#D8962D" d="M50.023,237.437c-2.263,0-4.103-1.84-4.103-4.102c0-2.263,1.84-4.104,4.103-4.104      c2.264,0,4.104,1.841,4.104,4.104C54.127,235.597,52.287,237.437,50.023,237.437z M50.023,229.533      c-2.097,0-3.802,1.705-3.802,3.802c0,2.096,1.705,3.801,3.802,3.801c2.098,0,3.803-1.705,3.803-3.801      C53.826,231.238,52.121,229.533,50.023,229.533z" id="path658"/></g></g></g></g></svg>