<?xml version="1.0" encoding="UTF-8" standalone="no"?>
<!-- Generator: Adobe Illustrator 16.0.3, SVG Export Plug-In . SVG Version: 6.00 Build 0)  -->
<svg xmlns:dc="http://purl.org/dc/elements/1.1/" xmlns:cc="http://creativecommons.org/ns#" xmlns:rdf="http://www.w3.org/1999/02/22-rdf-syntax-ns#" xmlns:svg="http://www.w3.org/2000/svg" xmlns="http://www.w3.org/2000/svg" xmlns:sodipodi="http://sodipodi.sourceforge.net/DTD/sodipodi-0.dtd" xmlns:inkscape="http://www.inkscape.org/namespaces/inkscape" version="1.1" id="Layer_1" x="0px" y="0px" width="100px" height="256px" viewBox="0 0 100 256" enable-background="new 0 0 100 256" xml:space="preserve" sodipodi:docname="Army-GRE-OF-03.svg" inkscape:version="0.92.2 (5c3e80d, 2017-08-06)"><metadata id="metadata1455"><rdf:RDF><cc:Work rdf:about=""><dc:format>image/svg+xml</dc:format><dc:type rdf:resource="http://purl.org/dc/dcmitype/StillImage"/></cc:Work></rdf:RDF></metadata><defs id="defs1453"/><sodipodi:namedview pagecolor="#ffffff" bordercolor="#666666" borderopacity="1" objecttolerance="10" gridtolerance="10" guidetolerance="10" inkscape:pageopacity="0" inkscape:pageshadow="2" inkscape:window-width="1920" inkscape:window-height="1016" id="namedview1451" showgrid="false" inkscape:zoom="0.921875" inkscape:cx="-168.0339" inkscape:cy="128" inkscape:window-x="0" inkscape:window-y="27" inkscape:window-maximized="1" inkscape:current-layer="Layer_1"/><polygon fill="#2D2D2B" points="100,256 0,256 7,30 50,0 93,30 " id="polygon1061" style="fill:#3f4845;fill-opacity:1"/><g id="g1071"><g id="g1065"><path d="M44.988,65.288V27.401c0-2.768,2.244-5.01,5.01-5.01l0,0c2.766,0,5.01,2.242,5.012,5.01l0,0v37.887h-0.002    c0,2.766-2.244,5.008-5.01,5.008l0,0C47.232,70.295,44.988,68.053,44.988,65.288L44.988,65.288z M45.988,27.401l-0.002,37.887    c0.006,2.213,1.797,4.006,4.012,4.01l0,0c2.215-0.004,4.008-1.797,4.012-4.01l0,0V27.401c-0.004-2.215-1.797-4.006-4.012-4.01l0,0    C47.783,23.395,45.992,25.186,45.988,27.401L45.988,27.401z" id="path1063"/></g><g id="g1069"><path d="M49.609,65.985l-0.223-39.277c-0.002-0.277,0.221-0.502,0.496-0.504l0,0c0.277-0.002,0.502,0.221,0.504,0.498l0,0    l0.223,39.277c0.002,0.277-0.221,0.502-0.497,0.504l0,0c-0.002,0-0.004,0-0.004,0l0,0C49.834,66.483,49.611,66.26,49.609,65.985    L49.609,65.985z" id="path1067"/></g></g><g id="g1113"><g id="g1111"><g id="g1096"><linearGradient id="SVGID_1_" gradientUnits="userSpaceOnUse" x1="-973.0171" y1="228.4209" x2="-954.3817" y2="247.0564" gradientTransform="matrix(0 -1 -1 0 287.7402 -930.6992)"><stop offset="0.0056" style="stop-color:#FBCA11" id="stop1073"/><stop offset="0.2528" style="stop-color:#FFFFBF" id="stop1075"/><stop offset="0.2997" style="stop-color:#F9F3AE" id="stop1077"/><stop offset="0.393" style="stop-color:#E8D381" id="stop1079"/><stop offset="0.5226" style="stop-color:#CEA139" id="stop1081"/><stop offset="0.5955" style="stop-color:#BE820E" id="stop1083"/><stop offset="0.8558" style="stop-color:#E8D56A" id="stop1085"/><stop offset="0.8708" style="stop-color:#EADA6F" id="stop1087"/><stop offset="1" style="stop-color:#FFFFBF" id="stop1089"/></linearGradient><circle fill="url(#SVGID_1_)" cx="50" cy="33" r="13.177" id="circle1092"/><path fill="#D8962D" d="M50,46.427c-7.403,0-13.426-6.023-13.426-13.426c0-7.405,6.022-13.429,13.426-13.429     c7.404,0,13.426,6.024,13.426,13.429C63.426,40.404,57.402,46.427,50,46.427z M50,20.073c-7.127,0-12.926,5.8-12.926,12.929     c0,7.127,5.799,12.926,12.926,12.926s12.926-5.798,12.926-12.926C62.926,25.873,57.127,20.073,50,20.073z" id="path1094"/></g><radialGradient id="SVGID_2_" cx="-963.6992" cy="237.7402" r="11.0974" gradientTransform="matrix(0 -1 -1 0 287.7402 -930.6992)" gradientUnits="userSpaceOnUse"><stop offset="0" style="stop-color:#FFFFBF" id="stop1098"/><stop offset="0.1369" style="stop-color:#F9F3AE" id="stop1100"/><stop offset="0.4091" style="stop-color:#E8D381" id="stop1102"/><stop offset="0.7872" style="stop-color:#CEA139" id="stop1104"/><stop offset="1" style="stop-color:#BE820E" id="stop1106"/></radialGradient><path fill="url(#SVGID_2_)" d="M38.904,33.005c0.006,6.133,4.965,11.087,11.094,11.094l0,0    c6.129-0.007,11.084-4.961,11.098-11.094l0,0c-0.014-6.126-4.969-11.091-11.098-11.104l0,0    C43.869,21.915,38.91,26.879,38.904,33.005L38.904,33.005z" id="path1109"/></g></g><g id="g1371"><g id="g1318"><g id="g1142"><g id="g1138"><linearGradient id="SVGID_3_" gradientUnits="userSpaceOnUse" x1="-2007.4316" y1="-144.6504" x2="-1993.3945" y2="-144.6504" gradientTransform="matrix(-0.9936 0.1125 -0.1125 -0.9936 -1950.2565 248.3827)"><stop offset="0.0056" style="stop-color:#FBCA11" id="stop1115"/><stop offset="0.2528" style="stop-color:#FFFFBF" id="stop1117"/><stop offset="0.2997" style="stop-color:#F9F3AE" id="stop1119"/><stop offset="0.393" style="stop-color:#E8D381" id="stop1121"/><stop offset="0.5226" style="stop-color:#CEA139" id="stop1123"/><stop offset="0.5955" style="stop-color:#BE820E" id="stop1125"/><stop offset="0.8558" style="stop-color:#E8D56A" id="stop1127"/><stop offset="0.8708" style="stop-color:#EADA6F" id="stop1129"/><stop offset="1" style="stop-color:#FFFFBF" id="stop1131"/></linearGradient><path fill="url(#SVGID_3_)" d="M57.045,153.003c0,0,6.621,11.754,0.641,15.524c-5.982,3.766-6.91,6.438-6.797,11.586      c0.111,5.154-7.612-11.963-1.633-15.729C55.236,160.619,57.045,153.003,57.045,153.003z" id="path1134"/><path fill="#D8962D" d="M50.586,181.324c-0.962,0-2.308-3.416-2.929-5.569c-0.611-2.114-2.31-9.203,1.466-11.581      c5.82-3.667,7.66-11.152,7.68-11.229l0.146-0.62l0.313,0.556c0.275,0.488,6.668,12.006,0.557,15.857      c-5.803,3.654-6.795,6.154-6.68,11.371c0.012,0.56-0.064,0.902-0.236,1.078C50.816,181.277,50.707,181.324,50.586,181.324z       M57.115,153.672c-0.582,1.902-2.721,7.771-7.726,10.924c-2.748,1.731-2.28,6.354-1.759,8.955      c0.799,3.967,2.429,7.063,2.93,7.264c0.027-0.057,0.088-0.23,0.078-0.694c-0.113-5.185,0.82-7.97,6.914-11.804      C62.545,165.168,58.307,156.009,57.115,153.672z" id="path1136"/></g><path fill="#D8962D" d="M49.905,180.781c-0.023-1.104-0.158-2.252-0.288-3.365c-0.479-4.119-0.978-8.378,3.844-11.414     c5.762-3.628,3.367-12.842,3.344-12.936l0.482-0.129c0.025,0.096,2.508,9.664-3.561,13.486     c-4.555,2.868-4.098,6.785-3.612,10.934c0.131,1.123,0.267,2.285,0.291,3.412L49.905,180.781z" id="path1140"/></g><g id="g1171"><g id="g1167"><linearGradient id="SVGID_4_" gradientUnits="userSpaceOnUse" x1="-831.4902" y1="630.5293" x2="-817.4521" y2="630.5293" gradientTransform="matrix(0.4975 0.8675 0.8675 -0.4975 -80.8817 1198.2157)"><stop offset="0.0056" style="stop-color:#FBCA11" id="stop1144"/><stop offset="0.2528" style="stop-color:#FFFFBF" id="stop1146"/><stop offset="0.2997" style="stop-color:#F9F3AE" id="stop1148"/><stop offset="0.393" style="stop-color:#E8D381" id="stop1150"/><stop offset="0.5226" style="stop-color:#CEA139" id="stop1152"/><stop offset="0.5955" style="stop-color:#BE820E" id="stop1154"/><stop offset="0.8558" style="stop-color:#E8D56A" id="stop1156"/><stop offset="0.8708" style="stop-color:#EADA6F" id="stop1158"/><stop offset="1" style="stop-color:#FFFFBF" id="stop1160"/></linearGradient><path fill="url(#SVGID_4_)" d="M65.232,158.223c0,0-13.395,1.619-12.891,8.672c0.506,7.051-1.1,9.381-5.315,12.338      c-4.219,2.961,14.149-0.945,13.644-7.996C60.166,164.188,65.232,158.223,65.232,158.223z" id="path1163"/><path fill="#D8962D" d="M47.194,180.48L47.194,180.48c-0.385,0-0.91-0.043-1.028-0.416c-0.122-0.388,0.319-0.758,0.717-1.037      c4.271-2.996,5.701-5.277,5.211-12.115c-0.516-7.207,12.553-8.871,13.109-8.938l0.633-0.078l-0.412,0.486      c-0.051,0.059-4.996,5.973-4.504,12.835c0.098,1.349-0.447,2.673-1.623,3.933C56.27,178.404,49.647,180.48,47.194,180.48z       M46.653,179.925c0.032,0,0.169,0.056,0.541,0.056c2.378,0,8.8-2.013,11.737-5.17c1.074-1.154,1.574-2.351,1.488-3.556      c-0.424-5.899,3.041-11.099,4.23-12.692c-2.588,0.422-12.48,2.43-12.061,8.313c0.516,7.181-1.176,9.583-5.422,12.562      c-0.415,0.293-0.502,0.445-0.52,0.488C46.651,179.925,46.652,179.925,46.653,179.925z" id="path1165"/></g><path fill="#D8962D" d="M47.072,180.42l-0.287-0.408c0.922-0.648,1.939-1.228,2.923-1.787c3.628-2.064,7.056-4.017,6.673-9.384     c-0.512-7.151,8.67-10.815,8.762-10.853l0.182,0.467c-0.088,0.035-8.93,3.566-8.445,10.35c0.406,5.682-3.318,7.803-6.923,9.854     C48.981,179.213,47.976,179.786,47.072,180.42z" id="path1169"/></g><g id="g1200"><g id="g1196"><linearGradient id="SVGID_5_" gradientUnits="userSpaceOnUse" x1="-1180.1055" y1="608.7061" x2="-1166.0664" y2="608.7061" gradientTransform="matrix(0.1986 0.9801 0.9801 -0.1986 -306.4332 1441.4099)"><stop offset="0.0056" style="stop-color:#FBCA11" id="stop1173"/><stop offset="0.2528" style="stop-color:#FFFFBF" id="stop1175"/><stop offset="0.2997" style="stop-color:#F9F3AE" id="stop1177"/><stop offset="0.393" style="stop-color:#E8D381" id="stop1179"/><stop offset="0.5226" style="stop-color:#CEA139" id="stop1181"/><stop offset="0.5955" style="stop-color:#BE820E" id="stop1183"/><stop offset="0.8558" style="stop-color:#E8D56A" id="stop1185"/><stop offset="0.8708" style="stop-color:#EADA6F" id="stop1187"/><stop offset="1" style="stop-color:#FFFFBF" id="stop1189"/></linearGradient><path fill="url(#SVGID_5_)" d="M69.508,163.2c0,0-13.223-2.685-14.965,4.165c-1.744,6.852-4.004,8.559-8.938,10.035      c-4.937,1.479,13.727,3.563,15.469-3.287C62.818,167.264,69.508,163.2,69.508,163.2z" id="path1192"/><path fill="#D8962D" d="M49.889,179.146L49.889,179.146c-0.213,0-5.188-0.014-5.355-1.16c-0.065-0.451,0.54-0.688,1.002-0.825      c4.998-1.496,7.074-3.21,8.768-9.856c0.811-3.188,4.145-4.873,9.645-4.873c3,0,5.586,0.519,5.611,0.523l0.625,0.127      l-0.545,0.332c-0.066,0.041-6.623,4.095-8.32,10.762C60.385,177.84,54.803,179.146,49.889,179.146z M63.947,162.932      c-3.658,0-8.217,0.78-9.162,4.496c-1.775,6.979-4.139,8.725-9.106,10.213c-0.577,0.172-0.653,0.307-0.653,0.31      c0.139,0.219,1.882,0.696,4.863,0.698h0.001c4.726,0,10.083-1.207,10.942-4.594c1.461-5.734,6.391-9.578,8.02-10.715      C67.922,163.188,66.037,162.932,63.947,162.932z" id="path1194"/></g><path fill="#D8962D" d="M45.276,178.54l-0.146-0.479c1.08-0.324,2.229-0.553,3.34-0.773c4.094-0.814,7.961-1.586,9.287-6.799     c1.771-6.951,11.639-7.533,11.736-7.538l0.025,0.499c-0.096,0.005-9.6,0.568-11.277,7.162c-1.404,5.519-5.607,6.356-9.675,7.166     C47.47,177.997,46.332,178.223,45.276,178.54z" id="path1198"/></g><g id="g1229"><g id="g1225"><linearGradient id="SVGID_6_" gradientUnits="userSpaceOnUse" x1="-1780.4575" y1="-1197.1543" x2="-1766.4194" y2="-1197.1543" gradientTransform="matrix(-0.4183 0.9083 -0.9083 -0.4183 -1788.5028 1280.0063)"><stop offset="0.0056" style="stop-color:#FBCA11" id="stop1202"/><stop offset="0.2528" style="stop-color:#FFFFBF" id="stop1204"/><stop offset="0.2997" style="stop-color:#F9F3AE" id="stop1206"/><stop offset="0.393" style="stop-color:#E8D381" id="stop1208"/><stop offset="0.5226" style="stop-color:#CEA139" id="stop1210"/><stop offset="0.5955" style="stop-color:#BE820E" id="stop1212"/><stop offset="0.8558" style="stop-color:#E8D56A" id="stop1214"/><stop offset="0.8708" style="stop-color:#EADA6F" id="stop1216"/><stop offset="1" style="stop-color:#FFFFBF" id="stop1218"/></linearGradient><path fill="url(#SVGID_6_)" d="M30.446,159.757c0,0,13.486,0.423,13.611,7.492c0.123,7.065,1.932,9.244,6.395,11.815      c4.464,2.572-14.178,0.316-14.303-6.75C36.024,165.249,30.446,159.757,30.446,159.757z" id="path1221"/><path fill="#D8962D" d="M49.886,180.343c-4.019,0-13.896-2.812-13.986-8.022c-0.122-6.881-5.573-12.332-5.629-12.385      l-0.454-0.449l0.638,0.021c0.562,0.019,13.727,0.515,13.854,7.738c0.119,6.853,1.746,8.997,6.27,11.603      c0.43,0.248,0.908,0.584,0.801,0.987C51.285,180.182,50.811,180.343,49.886,180.343z M31.056,160.043      c1.324,1.482,5.238,6.354,5.344,12.268c0.087,4.942,10.055,7.532,13.486,7.532c0.763,0,0.968-0.118,1.009-0.149      c-0.025-0.01-0.123-0.155-0.567-0.412c-4.495-2.59-6.395-4.832-6.52-12.027C43.703,161.355,33.67,160.234,31.056,160.043z" id="path1223"/></g><path fill="#D8962D" d="M50.512,180.251c-0.954-0.55-2.007-1.03-3.024-1.495c-3.773-1.722-7.676-3.502-7.775-9.199     c-0.122-6.806-9.242-9.533-9.335-9.559l0.14-0.48c0.096,0.028,9.566,2.86,9.695,10.031c0.095,5.383,3.684,7.02,7.483,8.753     c1.028,0.47,2.092,0.954,3.066,1.517L50.512,180.251z" id="path1227"/></g><g id="g1258"><g id="g1254"><linearGradient id="SVGID_7_" gradientUnits="userSpaceOnUse" x1="-2055.3779" y1="-423.418" x2="-2041.3403" y2="-423.418" gradientTransform="matrix(-0.9318 0.3629 -0.3629 -0.9318 -2012.2167 515.5048)"><stop offset="0.0056" style="stop-color:#FBCA11" id="stop1231"/><stop offset="0.2528" style="stop-color:#FFFFBF" id="stop1233"/><stop offset="0.2997" style="stop-color:#F9F3AE" id="stop1235"/><stop offset="0.393" style="stop-color:#E8D381" id="stop1237"/><stop offset="0.5226" style="stop-color:#CEA139" id="stop1239"/><stop offset="0.5955" style="stop-color:#BE820E" id="stop1241"/><stop offset="0.8558" style="stop-color:#E8D56A" id="stop1243"/><stop offset="0.8708" style="stop-color:#EADA6F" id="stop1245"/><stop offset="1" style="stop-color:#FFFFBF" id="stop1247"/></linearGradient><path fill="url(#SVGID_7_)" d="M49.815,152.23c0,0,9.405,9.672,4.587,14.846c-4.817,5.169-5.03,7.99-3.607,12.939      c1.428,4.953-10.419-9.617-5.601-14.789C50.015,160.057,49.815,152.23,49.815,152.23z" id="path1250"/><path fill="#D8962D" d="M50.688,181.277c-1.023,0-3.936-3.653-5.624-7.535c-1.184-2.719-2.151-6.432-0.052-8.686      c4.695-5.037,4.556-12.742,4.554-12.818l-0.018-0.639l0.446,0.457c0.392,0.402,9.516,9.902,4.59,15.189      c-4.672,5.013-4.99,7.686-3.549,12.701c0.168,0.587,0.174,0.943,0.014,1.156C50.963,181.215,50.834,181.277,50.688,181.277z       M50.055,152.859c-0.076,1.988-0.645,8.211-4.679,12.537c-2.016,2.164-0.773,6.033,0.146,8.146      c1.775,4.083,4.551,7.204,5.155,7.236c-0.014-0.023,0.021-0.195-0.123-0.692c-1.434-4.983-1.24-7.917,3.666-13.181      C58.24,162.587,51.803,154.814,50.055,152.859z" id="path1252"/></g><path fill="#D8962D" d="M50.017,180.913c-0.306-1.06-0.729-2.138-1.14-3.179c-1.52-3.86-3.09-7.852,0.796-12.019     c4.64-4.979-0.026-13.276-0.074-13.36l0.434-0.248c0.05,0.086,4.896,8.703,0.007,13.949c-3.67,3.937-2.226,7.607-0.695,11.494     c0.413,1.053,0.843,2.141,1.153,3.225L50.017,180.913z" id="path1256"/></g><g id="g1287"><g id="g1283"><linearGradient id="SVGID_8_" gradientUnits="userSpaceOnUse" x1="58.9092" y1="-11.7666" x2="72.9473" y2="-11.7666" gradientTransform="matrix(1 0.0031 0.0031 -1 -20.5574 154.4185)"><stop offset="0.0056" style="stop-color:#FBCA11" id="stop1260"/><stop offset="0.2528" style="stop-color:#FFFFBF" id="stop1262"/><stop offset="0.2997" style="stop-color:#F9F3AE" id="stop1264"/><stop offset="0.393" style="stop-color:#E8D381" id="stop1266"/><stop offset="0.5226" style="stop-color:#CEA139" id="stop1268"/><stop offset="0.5955" style="stop-color:#BE820E" id="stop1270"/><stop offset="0.8558" style="stop-color:#E8D56A" id="stop1272"/><stop offset="0.8708" style="stop-color:#EADA6F" id="stop1274"/><stop offset="1" style="stop-color:#FFFFBF" id="stop1276"/></linearGradient><path fill="url(#SVGID_8_)" d="M40.396,152.791c0,0-5.293,12.408,1.063,15.5c6.357,3.088,7.572,5.645,8.025,10.773      c0.453,5.135,6.258-12.725-0.1-15.813C43.026,160.162,40.396,152.791,40.396,152.791z" id="path1279"/><path fill="#D8962D" d="M49.869,180.236L49.869,180.236c-0.531,0-0.604-0.836-0.633-1.149c-0.459-5.198-1.72-7.577-7.886-10.571      c-6.497-3.16-1.405-15.308-1.186-15.822l0.25-0.588l0.215,0.602c0.026,0.072,2.675,7.313,8.864,10.32      c3.57,1.734,3.543,7.979,2.434,12.798C51.824,176.275,50.883,180.236,49.869,180.236z M40.398,153.464      c-0.928,2.453-4.135,12.022,1.171,14.603c6.474,3.144,7.709,5.811,8.165,10.977c0.041,0.462,0.119,0.629,0.154,0.682      c0.477-0.254,1.756-3.51,2.115-7.539c0.234-2.644,0.193-7.289-2.729-8.709C43.955,160.891,41.186,155.291,40.398,153.464z" id="path1281"/></g><path fill="#D8962D" d="M50.037,179.663c-0.099-1.122-0.092-2.292-0.084-3.425c0.026-4.174,0.052-8.118-4.788-10.471     c-6.45-3.136-5.03-12.916-5.017-13.016l0.494,0.076c-0.016,0.095-1.377,9.516,4.741,12.49c5.122,2.49,5.096,6.777,5.068,10.925     c-0.008,1.12-0.015,2.278,0.081,3.376L50.037,179.663z" id="path1285"/></g><g id="g1316"><g id="g1312"><linearGradient id="SVGID_9_" gradientUnits="userSpaceOnUse" x1="-132.7485" y1="279.3809" x2="-118.7104" y2="279.3809" gradientTransform="matrix(0.948 0.3182 0.3182 -0.948 77.5359 470.9015)"><stop offset="0.0056" style="stop-color:#FBCA11" id="stop1289"/><stop offset="0.2528" style="stop-color:#FFFFBF" id="stop1291"/><stop offset="0.2997" style="stop-color:#F9F3AE" id="stop1293"/><stop offset="0.393" style="stop-color:#E8D381" id="stop1295"/><stop offset="0.5226" style="stop-color:#CEA139" id="stop1297"/><stop offset="0.5955" style="stop-color:#BE820E" id="stop1299"/><stop offset="0.8558" style="stop-color:#E8D56A" id="stop1301"/><stop offset="0.8708" style="stop-color:#EADA6F" id="stop1303"/><stop offset="1" style="stop-color:#FFFFBF" id="stop1305"/></linearGradient><path fill="url(#SVGID_9_)" d="M46.847,151.578c0,0-8.938,10.105-3.879,15.044c5.061,4.937,5.407,7.745,4.219,12.757      c-1.188,5.014,9.95-10.105,4.892-15.04C47.019,159.402,46.847,151.578,46.847,151.578z" id="path1308"/><path fill="#D8962D" d="M47.33,180.633C47.329,180.633,47.329,180.633,47.33,180.633c-0.143,0-0.268-0.061-0.353-0.167      c-0.163-0.206-0.173-0.56-0.034-1.146c1.205-5.077,0.759-7.731-4.15-12.52c-5.169-5.046,3.495-14.969,3.866-15.389l0.423-0.479      l0.016,0.639c0.002,0.076,0.229,7.781,5.156,12.587c1.801,1.757,1.857,5.017,0.162,9.18      C50.973,176.884,48.358,180.633,47.33,180.633z M46.638,152.217c-1.654,2.035-7.718,10.105-3.495,14.227      c5.152,5.025,5.483,7.947,4.287,12.992c-0.106,0.448-0.085,0.633-0.069,0.694c0.579-0.11,3.011-3.092,4.593-6.979      c0.936-2.293,2.17-6.467-0.049-8.633C47.669,160.387,46.808,154.199,46.638,152.217z" id="path1310"/></g><path fill="#D8962D" d="M48.01,180.232l-0.486-0.114c0.26-1.097,0.636-2.205,0.999-3.277c1.341-3.952,2.606-7.687-1.243-11.444     c-5.133-5.008-0.7-13.845-0.655-13.933l0.445,0.228c-0.044,0.086-4.31,8.598,0.56,13.348c4.076,3.979,2.699,8.037,1.367,11.963     C48.636,178.063,48.264,179.16,48.01,180.232z" id="path1314"/></g></g><g id="g1335"><radialGradient id="SVGID_10_" cx="148.9648" cy="18.1304" r="3.5946" fx="148.6326" fy="18.1605" gradientTransform="matrix(1 0 0 -1 -100.9902 199.4004)" gradientUnits="userSpaceOnUse"><stop offset="0" style="stop-color:#FFFFBF" id="stop1320"/><stop offset="0.1369" style="stop-color:#F9F3AE" id="stop1322"/><stop offset="0.4091" style="stop-color:#E8D381" id="stop1324"/><stop offset="0.7872" style="stop-color:#CEA139" id="stop1326"/><stop offset="1" style="stop-color:#BE820E" id="stop1328"/></radialGradient><rect x="45.922" y="180.365" fill="url(#SVGID_10_)" width="6.109" height="3.312" id="rect1331"/><path fill="#D8962D" d="M52.182,183.826h-6.409v-3.611h6.409V183.826z M46.073,183.525h5.808v-3.012h-5.808V183.525z" id="path1333"/></g><g id="g1352"><radialGradient id="SVGID_11_" cx="148.001" cy="225.0967" r="6.3109" fx="147.4176" fy="225.1497" gradientTransform="matrix(1 0 0 -0.6913 -100.9902 334.3099)" gradientUnits="userSpaceOnUse"><stop offset="0" style="stop-color:#FFFFBF" id="stop1337"/><stop offset="0.1369" style="stop-color:#F9F3AE" id="stop1339"/><stop offset="0.4091" style="stop-color:#E8D381" id="stop1341"/><stop offset="0.7872" style="stop-color:#CEA139" id="stop1343"/><stop offset="1" style="stop-color:#BE820E" id="stop1345"/></radialGradient><rect x="42.981" y="178.111" fill="url(#SVGID_11_)" width="11.993" height="2.162" id="rect1348"/><path fill="#D8962D" d="M55.125,180.424H42.831v-2.462h12.294V180.424L55.125,180.424z M43.131,180.124h11.693v-1.862H43.131    V180.124z" id="path1350"/></g><g id="g1369"><radialGradient id="SVGID_12_" cx="146.9805" cy="11.0132" r="13.6556" fx="145.7182" fy="11.1278" gradientTransform="matrix(1 0 0 -1 -100.9902 199.4004)" gradientUnits="userSpaceOnUse"><stop offset="0" style="stop-color:#FFFFBF" id="stop1354"/><stop offset="0.1369" style="stop-color:#F9F3AE" id="stop1356"/><stop offset="0.4091" style="stop-color:#E8D381" id="stop1358"/><stop offset="0.7872" style="stop-color:#CEA139" id="stop1360"/><stop offset="1" style="stop-color:#BE820E" id="stop1362"/></radialGradient><circle fill="url(#SVGID_12_)" cx="48.978" cy="192.517" r="9.1" id="circle1365"/><path fill="#D8962D" d="M48.979,201.77c-5.103,0-9.252-4.15-9.252-9.252c0-5.1,4.149-9.25,9.252-9.25    c5.099,0,9.247,4.149,9.247,9.25C58.227,197.619,54.078,201.77,48.979,201.77z M48.979,183.566c-4.937,0-8.951,4.016-8.951,8.951    s4.016,8.951,8.951,8.951c4.933,0,8.946-4.016,8.946-8.951S53.912,183.566,48.979,183.566z" id="path1367"/></g></g><g id="g1448"><g id="g1446"><g id="g1408"><linearGradient id="SVGID_13_" gradientUnits="userSpaceOnUse" x1="31.668" y1="226.708" x2="68.2813" y2="226.708"><stop offset="0.0056" style="stop-color:#FBCA11" id="stop1373"/><stop offset="0.2528" style="stop-color:#FFFFBF" id="stop1375"/><stop offset="0.2997" style="stop-color:#F9F3AE" id="stop1377"/><stop offset="0.393" style="stop-color:#E8D381" id="stop1379"/><stop offset="0.5226" style="stop-color:#CEA139" id="stop1381"/><stop offset="0.5955" style="stop-color:#BE820E" id="stop1383"/><stop offset="0.8558" style="stop-color:#E8D56A" id="stop1385"/><stop offset="0.8708" style="stop-color:#EADA6F" id="stop1387"/><stop offset="1" style="stop-color:#FFFFBF" id="stop1389"/></linearGradient><polygon fill="url(#SVGID_13_)" points="57.902,231.313 68.281,226.736 57.9,222.159 59.127,210.882 49.977,217.525      40.822,210.824 42.049,222.103 31.668,226.679 42.049,231.257 42.049,231.257 40.822,242.534 49.977,235.833 59.127,242.592         " id="polygon1392"/><g id="g1406"><polygon fill="#D6A633" points="49.977,226.679 40.822,210.824 49.977,217.525     " id="polygon1394"/><polygon fill="#D6A633" points="50.053,226.713 31.744,226.714 42.125,222.137     " id="polygon1396"/><polygon fill="#D6A633" points="49.971,226.721 40.818,242.576 42.045,231.298     " id="polygon1398"/><polygon fill="#D6A633" points="49.963,226.638 59.115,242.492 49.963,235.791     " id="polygon1400"/><polygon fill="#D6A633" points="50.025,226.854 68.332,226.854 57.951,231.431     " id="polygon1402"/><polygon fill="#D6A633" points="49.959,226.903 59.109,211.048 57.883,222.326     " id="polygon1404"/></g></g><g id="g1444"><linearGradient id="SVGID_14_" gradientUnits="userSpaceOnUse" x1="44.6309" y1="226.709" x2="55.3672" y2="226.709"><stop offset="0.0056" style="stop-color:#FBCA11" id="stop1410"/><stop offset="0.2528" style="stop-color:#FFFFBF" id="stop1412"/><stop offset="0.2997" style="stop-color:#F9F3AE" id="stop1414"/><stop offset="0.393" style="stop-color:#E8D381" id="stop1416"/><stop offset="0.5226" style="stop-color:#CEA139" id="stop1418"/><stop offset="0.5955" style="stop-color:#BE820E" id="stop1420"/><stop offset="0.8558" style="stop-color:#E8D56A" id="stop1422"/><stop offset="0.8708" style="stop-color:#EADA6F" id="stop1424"/><stop offset="1" style="stop-color:#FFFFBF" id="stop1426"/></linearGradient><circle fill="url(#SVGID_14_)" cx="49.999" cy="226.708" r="5.368" id="circle1429"/><radialGradient id="SVGID_15_" cx="47.4263" cy="223.416" r="7.8151" gradientUnits="userSpaceOnUse"><stop offset="0" style="stop-color:#FFFFBF" id="stop1431"/><stop offset="0.1369" style="stop-color:#F9F3AE" id="stop1433"/><stop offset="0.4091" style="stop-color:#E8D381" id="stop1435"/><stop offset="0.7872" style="stop-color:#CEA139" id="stop1437"/><stop offset="1" style="stop-color:#BE820E" id="stop1439"/></radialGradient><path fill="url(#SVGID_15_)" d="M50,230.66c-2.178,0-3.951-1.772-3.951-3.951c0-2.18,1.773-3.952,3.951-3.952     s3.951,1.772,3.951,3.952C53.951,228.888,52.178,230.66,50,230.66L50,230.66z" id="path1442"/></g></g></g></svg>