<?xml version="1.0" encoding="UTF-8"?>
<!-- Generator: Adobe Illustrator 13.0.1, SVG Export Plug-In . SVG Version: 6.00 Build 14948)  -->
<!DOCTYPE svg PUBLIC "-//W3C//DTD SVG 1.1//EN" "http://www.w3.org/Graphics/SVG/1.1/DTD/svg11.dtd">
<svg version="1.1" id="Layer_1" xmlns="http://www.w3.org/2000/svg" xmlns:xlink="http://www.w3.org/1999/xlink" x="0px" y="0px" width="95.955px" height="171.04px" viewBox="0 0 95.955 171.04" enable-background="new 0 0 95.955 171.04" xml:space="preserve">
<g>
	<path fill="#BF1E2D" d="M95.955,22.896C44.438-28.62,0,22.896,0,22.896v101.161l49.43,46.982l46.525-47.414V22.896z"/>
	<g>
		<g>
			<polygon fill="#FBB040" points="88.95,68.994 47.979,108.833 7.005,68.994 7.005,55.412 47.979,95.252 88.95,55.412    "/>
		</g>
		<path fill="#FBB040" d="M89.113,38.817c-45.225-47.808-82.271,0-82.271,0v13.294c0,0,37.046-51.941,82.271,0V38.817z"/>
		<path fill="#FBB040" d="M89.113,23.904c-44.171-44.17-82.271,0-82.271,0v10.477c0,0,37.046-45.223,82.271,0V23.904z"/>
		<g>
			<polygon fill="#FBB040" points="88.95,86.555 47.979,126.394 7.005,86.555 7.005,72.974 47.979,112.813 88.95,72.974    "/>
		</g>
		<g>
			<polygon fill="#FBB040" points="88.95,104.117 47.979,143.956 7.005,104.117 7.005,90.536 47.979,130.375 88.95,90.536    "/>
		</g>
		<g>
			<polygon fill="#FBB040" points="88.95,121.678 47.979,161.517 7.005,121.678 7.005,108.098 47.979,147.937 88.95,108.098    "/>
		</g>
	</g>
	<g>
		<g>
			<g>
				
					<linearGradient id="SVGID_1_" gradientUnits="userSpaceOnUse" x1="-858.6172" y1="156.3911" x2="-846.1191" y2="156.3911" gradientTransform="matrix(-0.9936 0.1125 0.1125 0.9936 -813.2807 -9.4623)">
					<stop offset="0.0056" style="stop-color:#FBC926"/>
					<stop offset="0.2528" style="stop-color:#FFFBCC"/>
					<stop offset="0.2986" style="stop-color:#F7EAB8"/>
					<stop offset="0.3896" style="stop-color:#E7CF8E"/>
					<stop offset="0.5159" style="stop-color:#D1A954"/>
					<stop offset="0.5955" style="stop-color:#C3922E"/>
					<stop offset="0.8143" style="stop-color:#E2C675"/>
					<stop offset="0.8708" style="stop-color:#EED688"/>
					<stop offset="1" style="stop-color:#FFFBCC"/>
				</linearGradient>
				<path fill="url(#SVGID_1_)" stroke="#DAA450" stroke-width="0.5" d="M54.271,37.521c0,0,5.896,10.464,0.569,13.821      c-5.324,3.352-6.15,5.731-6.051,10.315c0.1,4.587-6.777-10.65-1.453-14.003C52.66,44.301,54.271,37.521,54.271,37.521z"/>
				<path fill="none" stroke="#DAA450" stroke-width="0.5" d="M54.271,37.521c0,0,2.253,8.406-3.073,11.762      c-5.326,3.353-3.161,8.378-3.061,12.963"/>
			</g>
			<g>
				
					<linearGradient id="SVGID_2_" gradientUnits="userSpaceOnUse" x1="-810.6123" y1="122.3618" x2="-798.1143" y2="122.3618" gradientTransform="matrix(0.4975 0.8675 -0.8675 0.4975 559.5939 688.939)">
					<stop offset="0.0056" style="stop-color:#FBC926"/>
					<stop offset="0.2528" style="stop-color:#FFFBCC"/>
					<stop offset="0.2986" style="stop-color:#F7EAB8"/>
					<stop offset="0.3896" style="stop-color:#E7CF8E"/>
					<stop offset="0.5159" style="stop-color:#D1A954"/>
					<stop offset="0.5955" style="stop-color:#C3922E"/>
					<stop offset="0.8143" style="stop-color:#E2C675"/>
					<stop offset="0.8708" style="stop-color:#EED688"/>
					<stop offset="1" style="stop-color:#FFFBCC"/>
				</linearGradient>
				<path fill="url(#SVGID_2_)" stroke="#DAA450" stroke-width="0.5" d="M61.559,42.167c0,0-11.924,1.442-11.476,7.72      c0.45,6.277-0.978,8.351-4.732,10.984c-3.756,2.635,12.597-0.842,12.147-7.118C57.048,47.478,61.559,42.167,61.559,42.167z"/>
				<path fill="none" stroke="#DAA450" stroke-width="0.5" d="M61.559,42.167c0,0-8.107,3.16-7.658,9.437      c0.448,6.277-4.884,7.507-8.637,10.143"/>
			</g>
			<g>
				
					<linearGradient id="SVGID_3_" gradientUnits="userSpaceOnUse" x1="-993.627" y1="284.7739" x2="-981.1289" y2="284.7739" gradientTransform="matrix(0.1986 0.9801 -0.9801 0.1986 529.5952 964.519)">
					<stop offset="0.0056" style="stop-color:#FBC926"/>
					<stop offset="0.2528" style="stop-color:#FFFBCC"/>
					<stop offset="0.2986" style="stop-color:#F7EAB8"/>
					<stop offset="0.3896" style="stop-color:#E7CF8E"/>
					<stop offset="0.5159" style="stop-color:#D1A954"/>
					<stop offset="0.5955" style="stop-color:#C3922E"/>
					<stop offset="0.8143" style="stop-color:#E2C675"/>
					<stop offset="0.8708" style="stop-color:#EED688"/>
					<stop offset="1" style="stop-color:#FFFBCC"/>
				</linearGradient>
				<path fill="url(#SVGID_3_)" stroke="#DAA450" stroke-width="0.5" d="M65.365,46.599c0,0-11.771-2.389-13.323,3.709      c-1.552,6.099-3.563,7.619-7.956,8.933c-4.394,1.316,12.221,3.171,13.771-2.926C59.41,50.217,65.365,46.599,65.365,46.599z"/>
				<path fill="none" stroke="#DAA450" stroke-width="0.5" d="M65.365,46.599c0,0-8.691,0.442-10.244,6.543      c-1.553,6.098-7.001,5.583-11.393,6.9"/>
			</g>
			<g>
				
					<linearGradient id="SVGID_4_" gradientUnits="userSpaceOnUse" x1="-1182.8262" y1="831.6606" x2="-1170.3286" y2="831.6606" gradientTransform="matrix(-0.4183 0.9083 0.9083 0.4183 -1207.8406 773.4215)">
					<stop offset="0.0056" style="stop-color:#FBC926"/>
					<stop offset="0.2528" style="stop-color:#FFFBCC"/>
					<stop offset="0.2986" style="stop-color:#F7EAB8"/>
					<stop offset="0.3896" style="stop-color:#E7CF8E"/>
					<stop offset="0.5159" style="stop-color:#D1A954"/>
					<stop offset="0.5955" style="stop-color:#C3922E"/>
					<stop offset="0.8143" style="stop-color:#E2C675"/>
					<stop offset="0.8708" style="stop-color:#EED688"/>
					<stop offset="1" style="stop-color:#FFFBCC"/>
				</linearGradient>
				<path fill="url(#SVGID_4_)" stroke="#DAA450" stroke-width="0.5" d="M30.59,43.534c0,0,12.006,0.376,12.117,6.67      c0.11,6.291,1.72,8.23,5.692,10.519c3.976,2.29-12.621,0.283-12.733-6.009C35.557,48.423,30.59,43.534,30.59,43.534z"/>
				<path fill="none" stroke="#DAA450" stroke-width="0.5" d="M30.59,43.534c0,0,8.357,2.427,8.471,8.72      c0.109,6.292,5.53,7.043,9.504,9.331"/>
			</g>
			<g>
				
					<linearGradient id="SVGID_5_" gradientUnits="userSpaceOnUse" x1="-1003.7124" y1="289.0552" x2="-991.2139" y2="289.0552" gradientTransform="matrix(-0.9318 0.3629 0.3629 0.9318 -986.2442 142.35)">
					<stop offset="0.0056" style="stop-color:#FBC926"/>
					<stop offset="0.2528" style="stop-color:#FFFBCC"/>
					<stop offset="0.2986" style="stop-color:#F7EAB8"/>
					<stop offset="0.3896" style="stop-color:#E7CF8E"/>
					<stop offset="0.5159" style="stop-color:#D1A954"/>
					<stop offset="0.5955" style="stop-color:#C3922E"/>
					<stop offset="0.8143" style="stop-color:#E2C675"/>
					<stop offset="0.8708" style="stop-color:#EED688"/>
					<stop offset="1" style="stop-color:#FFFBCC"/>
				</linearGradient>
				<path fill="url(#SVGID_5_)" stroke="#DAA450" stroke-width="0.5" d="M47.833,36.833c0,0,8.375,8.609,4.085,13.216      c-4.291,4.602-4.48,7.114-3.211,11.521c1.269,4.409-9.277-8.563-4.988-13.167C48.01,43.801,47.833,36.833,47.833,36.833z"/>
				<path fill="none" stroke="#DAA450" stroke-width="0.5" d="M47.833,36.833c0,0,4.327,7.552,0.036,12.157      c-4.291,4.603-0.912,8.908,0.356,13.315"/>
			</g>
			<g>
				
					<linearGradient id="SVGID_6_" gradientUnits="userSpaceOnUse" x1="-43.5024" y1="96.1997" x2="-31.0054" y2="96.1997" gradientTransform="matrix(1 0.0031 -0.0031 1 81.3959 -46.6464)">
					<stop offset="0.0056" style="stop-color:#FBC926"/>
					<stop offset="0.2528" style="stop-color:#FFFBCC"/>
					<stop offset="0.2986" style="stop-color:#F7EAB8"/>
					<stop offset="0.3896" style="stop-color:#E7CF8E"/>
					<stop offset="0.5159" style="stop-color:#D1A954"/>
					<stop offset="0.5955" style="stop-color:#C3922E"/>
					<stop offset="0.8143" style="stop-color:#E2C675"/>
					<stop offset="0.8708" style="stop-color:#EED688"/>
					<stop offset="1" style="stop-color:#FFFBCC"/>
				</linearGradient>
				<path fill="url(#SVGID_6_)" stroke="#DAA450" stroke-width="0.5" d="M39.447,37.332c0,0-4.713,11.046,0.947,13.799      c5.66,2.75,6.742,5.025,7.145,9.592c0.403,4.57,5.57-11.329-0.09-14.078C41.789,43.894,39.447,37.332,39.447,37.332z"/>
				<path fill="none" stroke="#DAA450" stroke-width="0.5" d="M39.447,37.332c0,0-1.318,8.601,4.342,11.353      c5.661,2.75,4.059,7.982,4.463,12.551"/>
			</g>
			<g>
				
					<linearGradient id="SVGID_7_" gradientUnits="userSpaceOnUse" x1="-274.0483" y1="18.5811" x2="-261.5503" y2="18.5811" gradientTransform="matrix(0.948 0.3182 -0.3182 0.948 305.3309 116.7259)">
					<stop offset="0.0056" style="stop-color:#FBC926"/>
					<stop offset="0.2528" style="stop-color:#FFFBCC"/>
					<stop offset="0.2986" style="stop-color:#F7EAB8"/>
					<stop offset="0.3896" style="stop-color:#E7CF8E"/>
					<stop offset="0.5159" style="stop-color:#D1A954"/>
					<stop offset="0.5955" style="stop-color:#C3922E"/>
					<stop offset="0.8143" style="stop-color:#E2C675"/>
					<stop offset="0.8708" style="stop-color:#EED688"/>
					<stop offset="1" style="stop-color:#FFFBCC"/>
				</linearGradient>
				<path fill="url(#SVGID_7_)" stroke="#DAA450" stroke-width="0.5" d="M45.189,36.251c0,0-7.957,8.998-3.451,13.394      c4.503,4.394,4.813,6.895,3.754,11.357c-1.057,4.462,8.859-8.998,4.356-13.391C45.344,43.217,45.189,36.251,45.189,36.251z"/>
				<path fill="none" stroke="#DAA450" stroke-width="0.5" d="M45.189,36.251c0,0-3.963,7.748,0.542,12.143      c4.504,4.396,1.333,8.856,0.276,13.317"/>
			</g>
		</g>
		<radialGradient id="SVGID_8_" cx="46.1953" cy="62.6846" r="3.2008" fx="45.8995" fy="62.7114" gradientUnits="userSpaceOnUse">
			<stop offset="0" style="stop-color:#FFFBCC"/>
			<stop offset="0.1336" style="stop-color:#F7EAB8"/>
			<stop offset="0.3991" style="stop-color:#E7CF8E"/>
			<stop offset="0.7678" style="stop-color:#D1A954"/>
			<stop offset="1" style="stop-color:#C3922E"/>
		</radialGradient>
		<rect x="44.368" y="61.88" fill="url(#SVGID_8_)" stroke="#DAA450" stroke-width="0.3" width="5.439" height="2.948"/>
		
			<radialGradient id="SVGID_9_" cx="45.3354" cy="-246.5332" r="5.6189" fx="44.8161" fy="-246.4861" gradientTransform="matrix(1 0 0 0.6913 0 230.828)" gradientUnits="userSpaceOnUse">
			<stop offset="0" style="stop-color:#FFFBCC"/>
			<stop offset="0.1336" style="stop-color:#F7EAB8"/>
			<stop offset="0.3991" style="stop-color:#E7CF8E"/>
			<stop offset="0.7678" style="stop-color:#D1A954"/>
			<stop offset="1" style="stop-color:#C3922E"/>
		</radialGradient>
		<rect x="41.749" y="59.874" fill="url(#SVGID_9_)" stroke="#DAA450" stroke-width="0.3" width="10.677" height="1.926"/>
		<radialGradient id="SVGID_10_" cx="44.4292" cy="69.022" r="12.1573" fx="43.3055" fy="69.1239" gradientUnits="userSpaceOnUse">
			<stop offset="0" style="stop-color:#FFFBCC"/>
			<stop offset="0.1336" style="stop-color:#F7EAB8"/>
			<stop offset="0.3991" style="stop-color:#E7CF8E"/>
			<stop offset="0.7678" style="stop-color:#D1A954"/>
			<stop offset="1" style="stop-color:#C3922E"/>
		</radialGradient>
		<circle fill="url(#SVGID_10_)" stroke="#DAA450" stroke-width="0.3" cx="47.088" cy="72.699" r="8.102"/>
	</g>
</g>
</svg>