<?xml version="1.0" encoding="UTF-8"?>
<!-- Generator: Adobe Illustrator 16.0.0, SVG Export Plug-In . SVG Version: 6.00 Build 0)  -->
<!DOCTYPE svg PUBLIC "-//W3C//DTD SVG 1.1//EN" "http://www.w3.org/Graphics/SVG/1.1/DTD/svg11.dtd">
<svg version="1.1" id="Layer_1" xmlns="http://www.w3.org/2000/svg" xmlns:xlink="http://www.w3.org/1999/xlink" x="0px" y="0px" width="95.955px" height="130.237px" viewBox="0 22.803 95.955 130.237" enable-background="new 0 22.803 95.955 130.237" xml:space="preserve">
<g>
	<path fill="#BF1E2D" d="M95.955,22.896c-50.127-0.209-95.955,0-95.955,0v83.161l49.431,46.982l46.524-47.414V22.896z"/>
	<g>
		<g>
			<polygon fill="#FBB040" points="88.949,68.994 47.979,108.833 7.004,68.994 7.004,55.413 47.979,95.252 88.949,55.413    "/>
		</g>
		<g>
			<polygon fill="#FBB040" points="88.949,86.556 47.979,126.395 7.004,86.556 7.004,72.975 47.979,112.813 88.949,72.975    "/>
		</g>
		<g>
			<polygon fill="#FBB040" points="88.949,104.118 47.979,143.956 7.004,104.118 7.004,90.536 47.979,130.375 88.949,90.536    "/>
		</g>
	</g>
	<g>
		<g>
			<g>
				
					<linearGradient id="SVGID_1_" gradientUnits="userSpaceOnUse" x1="-1321.4238" y1="-31.8291" x2="-1308.9263" y2="-31.8291" gradientTransform="matrix(-0.9936 0.1125 -0.1125 -0.9936 -1259.1117 166.3682)">
					<stop offset="0.0056" style="stop-color:#FBC926"/>
					<stop offset="0.2528" style="stop-color:#FFFBCC"/>
					<stop offset="0.2986" style="stop-color:#F7EAB8"/>
					<stop offset="0.3896" style="stop-color:#E7CF8E"/>
					<stop offset="0.5159" style="stop-color:#D1A954"/>
					<stop offset="0.5955" style="stop-color:#C3922E"/>
					<stop offset="0.8143" style="stop-color:#E2C675"/>
					<stop offset="0.8708" style="stop-color:#EED688"/>
					<stop offset="1" style="stop-color:#FFFBCC"/>
				</linearGradient>
				<path fill="url(#SVGID_1_)" stroke="#DAA450" stroke-width="0.5" d="M54.271,37.521c0,0,5.896,10.464,0.569,13.821      c-5.323,3.352-6.149,5.73-6.051,10.315c0.101,4.587-6.777-10.65-1.453-14.003C52.66,44.302,54.271,37.521,54.271,37.521z"/>
				<path fill="none" stroke="#DAA450" stroke-width="0.5" d="M54.271,37.521c0,0,2.254,8.406-3.072,11.762      c-5.326,3.353-3.162,8.378-3.061,12.964"/>
			</g>
			<g>
				
					<linearGradient id="SVGID_2_" gradientUnits="userSpaceOnUse" x1="-633.1982" y1="422.9751" x2="-620.7002" y2="422.9751" gradientTransform="matrix(0.4975 0.8675 0.8675 -0.4975 -1.7479 806.3374)">
					<stop offset="0.0056" style="stop-color:#FBC926"/>
					<stop offset="0.2528" style="stop-color:#FFFBCC"/>
					<stop offset="0.2986" style="stop-color:#F7EAB8"/>
					<stop offset="0.3896" style="stop-color:#E7CF8E"/>
					<stop offset="0.5159" style="stop-color:#D1A954"/>
					<stop offset="0.5955" style="stop-color:#C3922E"/>
					<stop offset="0.8143" style="stop-color:#E2C675"/>
					<stop offset="0.8708" style="stop-color:#EED688"/>
					<stop offset="1" style="stop-color:#FFFBCC"/>
				</linearGradient>
				<path fill="url(#SVGID_2_)" stroke="#DAA450" stroke-width="0.5" d="M61.56,42.168c0,0-11.925,1.442-11.478,7.72      c0.451,6.277-0.978,8.352-4.732,10.984c-3.756,2.636,12.598-0.842,12.148-7.117C57.047,47.478,61.56,42.168,61.56,42.168z"/>
				<path fill="none" stroke="#DAA450" stroke-width="0.5" d="M61.56,42.168c0,0-8.107,3.16-7.658,9.437      c0.447,6.277-4.885,7.508-8.637,10.143"/>
			</g>
			<g>
				
					<linearGradient id="SVGID_3_" gradientUnits="userSpaceOnUse" x1="-851.23" y1="394.4146" x2="-838.7314" y2="394.4146" gradientTransform="matrix(0.1986 0.9801 0.9801 -0.1986 -164.3581 959.8434)">
					<stop offset="0.0056" style="stop-color:#FBC926"/>
					<stop offset="0.2528" style="stop-color:#FFFBCC"/>
					<stop offset="0.2986" style="stop-color:#F7EAB8"/>
					<stop offset="0.3896" style="stop-color:#E7CF8E"/>
					<stop offset="0.5159" style="stop-color:#D1A954"/>
					<stop offset="0.5955" style="stop-color:#C3922E"/>
					<stop offset="0.8143" style="stop-color:#E2C675"/>
					<stop offset="0.8708" style="stop-color:#EED688"/>
					<stop offset="1" style="stop-color:#FFFBCC"/>
				</linearGradient>
				<path fill="url(#SVGID_3_)" stroke="#DAA450" stroke-width="0.5" d="M65.365,46.599c0,0-11.771-2.389-13.324,3.709      c-1.551,6.1-3.563,7.619-7.955,8.934c-4.395,1.316,12.222,3.172,13.771-2.926C59.41,50.218,65.365,46.599,65.365,46.599z"/>
				<path fill="none" stroke="#DAA450" stroke-width="0.5" d="M65.365,46.599c0,0-8.691,0.443-10.244,6.543      c-1.554,6.099-7.002,5.584-11.393,6.9"/>
			</g>
			<g>
				
					<linearGradient id="SVGID_4_" gradientUnits="userSpaceOnUse" x1="-1220.2451" y1="-702.9312" x2="-1207.7471" y2="-702.9312" gradientTransform="matrix(-0.4183 0.9083 -0.9083 -0.4183 -1106.5675 861.2568)">
					<stop offset="0.0056" style="stop-color:#FBC926"/>
					<stop offset="0.2528" style="stop-color:#FFFBCC"/>
					<stop offset="0.2986" style="stop-color:#F7EAB8"/>
					<stop offset="0.3896" style="stop-color:#E7CF8E"/>
					<stop offset="0.5159" style="stop-color:#D1A954"/>
					<stop offset="0.5955" style="stop-color:#C3922E"/>
					<stop offset="0.8143" style="stop-color:#E2C675"/>
					<stop offset="0.8708" style="stop-color:#EED688"/>
					<stop offset="1" style="stop-color:#FFFBCC"/>
				</linearGradient>
				<path fill="url(#SVGID_4_)" stroke="#DAA450" stroke-width="0.5" d="M30.59,43.534c0,0,12.006,0.377,12.117,6.67      c0.109,6.291,1.719,8.23,5.691,10.52c3.977,2.289-12.621,0.283-12.732-6.01C35.557,48.423,30.59,43.534,30.59,43.534z"/>
				<path fill="none" stroke="#DAA450" stroke-width="0.5" d="M30.59,43.534c0,0,8.357,2.427,8.471,8.721      c0.109,6.291,5.529,7.043,9.504,9.33"/>
			</g>
			<g>
				
					<linearGradient id="SVGID_5_" gradientUnits="userSpaceOnUse" x1="-1362.5088" y1="-205.3208" x2="-1350.0112" y2="-205.3208" gradientTransform="matrix(-0.9318 0.3629 -0.3629 -0.9318 -1290.1844 350.5812)">
					<stop offset="0.0056" style="stop-color:#FBC926"/>
					<stop offset="0.2528" style="stop-color:#FFFBCC"/>
					<stop offset="0.2986" style="stop-color:#F7EAB8"/>
					<stop offset="0.3896" style="stop-color:#E7CF8E"/>
					<stop offset="0.5159" style="stop-color:#D1A954"/>
					<stop offset="0.5955" style="stop-color:#C3922E"/>
					<stop offset="0.8143" style="stop-color:#E2C675"/>
					<stop offset="0.8708" style="stop-color:#EED688"/>
					<stop offset="1" style="stop-color:#FFFBCC"/>
				</linearGradient>
				<path fill="url(#SVGID_5_)" stroke="#DAA450" stroke-width="0.5" d="M47.832,36.834c0,0,8.375,8.609,4.086,13.216      c-4.291,4.602-4.48,7.114-3.211,11.521c1.269,4.409-9.277-8.563-4.988-13.167C48.01,43.802,47.832,36.834,47.832,36.834z"/>
				<path fill="none" stroke="#DAA450" stroke-width="0.5" d="M47.832,36.834c0,0,4.328,7.552,0.037,12.157      c-4.291,4.602-0.912,8.908,0.355,13.314"/>
			</g>
			<g>
				
					<linearGradient id="SVGID_6_" gradientUnits="userSpaceOnUse" x1="-45.8345" y1="55.083" x2="-33.3374" y2="55.083" gradientTransform="matrix(1 0.0031 0.0031 -1 83.2585 104.6453)">
					<stop offset="0.0056" style="stop-color:#FBC926"/>
					<stop offset="0.2528" style="stop-color:#FFFBCC"/>
					<stop offset="0.2986" style="stop-color:#F7EAB8"/>
					<stop offset="0.3896" style="stop-color:#E7CF8E"/>
					<stop offset="0.5159" style="stop-color:#D1A954"/>
					<stop offset="0.5955" style="stop-color:#C3922E"/>
					<stop offset="0.8143" style="stop-color:#E2C675"/>
					<stop offset="0.8708" style="stop-color:#EED688"/>
					<stop offset="1" style="stop-color:#FFFBCC"/>
				</linearGradient>
				<path fill="url(#SVGID_6_)" stroke="#DAA450" stroke-width="0.5" d="M39.447,37.333c0,0-4.713,11.045,0.947,13.799      c5.66,2.749,6.742,5.024,7.145,9.592c0.402,4.57,5.569-11.329-0.09-14.078C41.789,43.895,39.447,37.333,39.447,37.333z"/>
				<path fill="none" stroke="#DAA450" stroke-width="0.5" d="M39.447,37.333c0,0-1.318,8.6,4.342,11.353      c5.66,2.75,4.059,7.982,4.463,12.551"/>
			</g>
			<g>
				
					<linearGradient id="SVGID_7_" gradientUnits="userSpaceOnUse" x1="-177.9883" y1="229.9614" x2="-165.4907" y2="229.9614" gradientTransform="matrix(0.948 0.3182 0.3182 -0.948 135.1796 321.7779)">
					<stop offset="0.0056" style="stop-color:#FBC926"/>
					<stop offset="0.2528" style="stop-color:#FFFBCC"/>
					<stop offset="0.2986" style="stop-color:#F7EAB8"/>
					<stop offset="0.3896" style="stop-color:#E7CF8E"/>
					<stop offset="0.5159" style="stop-color:#D1A954"/>
					<stop offset="0.5955" style="stop-color:#C3922E"/>
					<stop offset="0.8143" style="stop-color:#E2C675"/>
					<stop offset="0.8708" style="stop-color:#EED688"/>
					<stop offset="1" style="stop-color:#FFFBCC"/>
				</linearGradient>
				<path fill="url(#SVGID_7_)" stroke="#DAA450" stroke-width="0.5" d="M45.189,36.252c0,0-7.957,8.997-3.451,13.394      c4.502,4.395,4.813,6.895,3.754,11.357c-1.057,4.463,8.858-8.998,4.354-13.391C45.344,43.218,45.189,36.252,45.189,36.252z"/>
				<path fill="none" stroke="#DAA450" stroke-width="0.5" d="M45.189,36.252c0,0-3.963,7.747,0.541,12.144      c4.503,4.395,1.334,8.855,0.277,13.316"/>
			</g>
		</g>
		
			<radialGradient id="SVGID_8_" cx="42.769" cy="87.8208" r="3.2012" fx="42.4731" fy="87.8476" gradientTransform="matrix(1 0 0 -1 3.4248 150.5049)" gradientUnits="userSpaceOnUse">
			<stop offset="0" style="stop-color:#FFFBCC"/>
			<stop offset="0.1336" style="stop-color:#F7EAB8"/>
			<stop offset="0.3991" style="stop-color:#E7CF8E"/>
			<stop offset="0.7678" style="stop-color:#D1A954"/>
			<stop offset="1" style="stop-color:#C3922E"/>
		</radialGradient>
		<rect x="44.367" y="61.88" fill="url(#SVGID_8_)" stroke="#DAA450" stroke-width="0.3" width="5.438" height="2.949"/>
		
			<radialGradient id="SVGID_9_" cx="41.9102" cy="239.1753" r="5.6195" fx="41.3906" fy="239.2225" gradientTransform="matrix(1 0 0 -0.6913 3.4248 225.742)" gradientUnits="userSpaceOnUse">
			<stop offset="0" style="stop-color:#FFFBCC"/>
			<stop offset="0.1336" style="stop-color:#F7EAB8"/>
			<stop offset="0.3991" style="stop-color:#E7CF8E"/>
			<stop offset="0.7678" style="stop-color:#D1A954"/>
			<stop offset="1" style="stop-color:#C3922E"/>
		</radialGradient>
		<rect x="41.748" y="59.874" fill="url(#SVGID_9_)" stroke="#DAA450" stroke-width="0.3" width="10.678" height="1.926"/>
		
			<radialGradient id="SVGID_10_" cx="41.0044" cy="81.4819" r="12.1582" fx="39.8806" fy="81.5838" gradientTransform="matrix(1 0 0 -1 3.4248 150.5049)" gradientUnits="userSpaceOnUse">
			<stop offset="0" style="stop-color:#FFFBCC"/>
			<stop offset="0.1336" style="stop-color:#F7EAB8"/>
			<stop offset="0.3991" style="stop-color:#E7CF8E"/>
			<stop offset="0.7678" style="stop-color:#D1A954"/>
			<stop offset="1" style="stop-color:#C3922E"/>
		</radialGradient>
		<circle fill="url(#SVGID_10_)" stroke="#DAA450" stroke-width="0.3" cx="47.088" cy="72.699" r="8.102"/>
	</g>
</g>
</svg>