<?xml version="1.0" encoding="UTF-8" standalone="no"?>
<!-- Generator: Adobe Illustrator 16.0.3, SVG Export Plug-In . SVG Version: 6.00 Build 0)  -->
<svg xmlns:dc="http://purl.org/dc/elements/1.1/" xmlns:cc="http://creativecommons.org/ns#" xmlns:rdf="http://www.w3.org/1999/02/22-rdf-syntax-ns#" xmlns:svg="http://www.w3.org/2000/svg" xmlns="http://www.w3.org/2000/svg" xmlns:sodipodi="http://sodipodi.sourceforge.net/DTD/sodipodi-0.dtd" xmlns:inkscape="http://www.inkscape.org/namespaces/inkscape" version="1.1" id="Layer_1" x="0px" y="0px" width="100px" height="256px" viewBox="0 0 100 256" enable-background="new 0 0 100 256" xml:space="preserve" sodipodi:docname="Army-GRE-OF-04.svg" inkscape:version="0.92.2 (5c3e80d, 2017-08-06)"><metadata id="metadata1926"><rdf:RDF><cc:Work rdf:about=""><dc:format>image/svg+xml</dc:format><dc:type rdf:resource="http://purl.org/dc/dcmitype/StillImage"/></cc:Work></rdf:RDF></metadata><defs id="defs1924"/><sodipodi:namedview pagecolor="#ffffff" bordercolor="#666666" borderopacity="1" objecttolerance="10" gridtolerance="10" guidetolerance="10" inkscape:pageopacity="0" inkscape:pageshadow="2" inkscape:window-width="1920" inkscape:window-height="1016" id="namedview1922" showgrid="false" inkscape:zoom="0.921875" inkscape:cx="-171.28814" inkscape:cy="128" inkscape:window-x="0" inkscape:window-y="27" inkscape:window-maximized="1" inkscape:current-layer="Layer_1"/><polygon fill="#2D2D2B" points="100,256 0,256 7,30 50,0 93,30 " id="polygon1457" style="fill:#3f4845;fill-opacity:1"/><g id="g1467"><g id="g1461"><path d="M44.988,65.288V27.401c0-2.768,2.244-5.01,5.01-5.01l0,0c2.766,0,5.01,2.242,5.012,5.01l0,0v37.887h-0.002    c0,2.766-2.244,5.008-5.01,5.008l0,0C47.232,70.295,44.988,68.053,44.988,65.288L44.988,65.288z M45.988,27.401l-0.002,37.887    c0.006,2.213,1.797,4.006,4.012,4.01l0,0c2.215-0.004,4.008-1.797,4.012-4.01l0,0V27.401c-0.004-2.215-1.797-4.006-4.012-4.01l0,0    C47.783,23.395,45.992,25.186,45.988,27.401L45.988,27.401z" id="path1459"/></g><g id="g1465"><path d="M49.609,65.985l-0.223-39.277c-0.002-0.277,0.221-0.502,0.496-0.504l0,0c0.277-0.002,0.502,0.221,0.504,0.498l0,0    l0.223,39.277c0.002,0.277-0.221,0.502-0.497,0.504l0,0c-0.002,0-0.004,0-0.004,0l0,0C49.834,66.483,49.611,66.26,49.609,65.985    L49.609,65.985z" id="path1463"/></g></g><g id="g1509"><g id="g1507"><g id="g1492"><linearGradient id="SVGID_1_" gradientUnits="userSpaceOnUse" x1="-973.0171" y1="228.4209" x2="-954.3817" y2="247.0564" gradientTransform="matrix(0 -1 -1 0 287.7402 -930.6992)"><stop offset="0.0056" style="stop-color:#FBCA11" id="stop1469"/><stop offset="0.2528" style="stop-color:#FFFFBF" id="stop1471"/><stop offset="0.2997" style="stop-color:#F9F3AE" id="stop1473"/><stop offset="0.393" style="stop-color:#E8D381" id="stop1475"/><stop offset="0.5226" style="stop-color:#CEA139" id="stop1477"/><stop offset="0.5955" style="stop-color:#BE820E" id="stop1479"/><stop offset="0.8558" style="stop-color:#E8D56A" id="stop1481"/><stop offset="0.8708" style="stop-color:#EADA6F" id="stop1483"/><stop offset="1" style="stop-color:#FFFFBF" id="stop1485"/></linearGradient><circle fill="url(#SVGID_1_)" cx="50" cy="33" r="13.177" id="circle1488"/><path fill="#D8962D" d="M50,46.427c-7.403,0-13.426-6.023-13.426-13.426c0-7.405,6.022-13.429,13.426-13.429     c7.404,0,13.426,6.024,13.426,13.429C63.426,40.404,57.402,46.427,50,46.427z M50,20.073c-7.127,0-12.926,5.8-12.926,12.929     c0,7.127,5.799,12.926,12.926,12.926s12.926-5.798,12.926-12.926C62.926,25.873,57.127,20.073,50,20.073z" id="path1490"/></g><radialGradient id="SVGID_2_" cx="-963.6992" cy="237.7402" r="11.0974" gradientTransform="matrix(0 -1 -1 0 287.7402 -930.6992)" gradientUnits="userSpaceOnUse"><stop offset="0" style="stop-color:#FFFFBF" id="stop1494"/><stop offset="0.1369" style="stop-color:#F9F3AE" id="stop1496"/><stop offset="0.4091" style="stop-color:#E8D381" id="stop1498"/><stop offset="0.7872" style="stop-color:#CEA139" id="stop1500"/><stop offset="1" style="stop-color:#BE820E" id="stop1502"/></radialGradient><path fill="url(#SVGID_2_)" d="M38.904,33.005c0.006,6.133,4.965,11.087,11.094,11.094l0,0    c6.129-0.007,11.084-4.961,11.098-11.094l0,0c-0.014-6.126-4.969-11.091-11.098-11.104l0,0    C43.869,21.915,38.91,26.879,38.904,33.005L38.904,33.005z" id="path1505"/></g></g><g id="g1767"><g id="g1714"><g id="g1538"><g id="g1534"><linearGradient id="SVGID_3_" gradientUnits="userSpaceOnUse" x1="-2012.1104" y1="-103.3271" x2="-1998.0732" y2="-103.3271" gradientTransform="matrix(-0.9936 0.1125 -0.1125 -0.9936 -1950.2565 248.3827)"><stop offset="0.0056" style="stop-color:#FBCA11" id="stop1511"/><stop offset="0.2528" style="stop-color:#FFFFBF" id="stop1513"/><stop offset="0.2997" style="stop-color:#F9F3AE" id="stop1515"/><stop offset="0.393" style="stop-color:#E8D381" id="stop1517"/><stop offset="0.5226" style="stop-color:#CEA139" id="stop1519"/><stop offset="0.5955" style="stop-color:#BE820E" id="stop1521"/><stop offset="0.8558" style="stop-color:#E8D56A" id="stop1523"/><stop offset="0.8708" style="stop-color:#EADA6F" id="stop1525"/><stop offset="1" style="stop-color:#FFFFBF" id="stop1527"/></linearGradient><path fill="url(#SVGID_3_)" d="M57.045,111.418c0,0,6.621,11.754,0.641,15.524c-5.982,3.766-6.91,6.438-6.797,11.586      c0.111,5.154-7.612-11.963-1.633-15.729C55.236,119.034,57.045,111.418,57.045,111.418z" id="path1530"/><path fill="#D8962D" d="M50.586,139.739c-0.962,0-2.308-3.416-2.929-5.569c-0.611-2.114-2.31-9.203,1.466-11.581      c5.82-3.667,7.66-11.152,7.68-11.229l0.146-0.62l0.313,0.556c0.275,0.488,6.668,12.006,0.557,15.857      c-5.803,3.654-6.795,6.154-6.68,11.371c0.012,0.56-0.064,0.902-0.236,1.078C50.816,139.692,50.707,139.739,50.586,139.739z       M57.115,112.087c-0.582,1.902-2.721,7.771-7.726,10.924c-2.748,1.731-2.28,6.354-1.759,8.955      c0.799,3.967,2.429,7.063,2.93,7.264c0.027-0.057,0.088-0.23,0.078-0.694c-0.113-5.185,0.82-7.97,6.914-11.804      C62.545,123.583,58.307,114.424,57.115,112.087z" id="path1532"/></g><path fill="#D8962D" d="M49.905,139.196c-0.023-1.104-0.158-2.252-0.288-3.365c-0.479-4.119-0.978-8.378,3.844-11.414     c5.762-3.628,3.367-12.842,3.344-12.936l0.482-0.129c0.025,0.096,2.508,9.664-3.561,13.486     c-4.555,2.868-4.098,6.785-3.612,10.934c0.131,1.123,0.267,2.285,0.291,3.412L49.905,139.196z" id="path1536"/></g><g id="g1567"><g id="g1563"><linearGradient id="SVGID_4_" gradientUnits="userSpaceOnUse" x1="-867.563" y1="651.2168" x2="-853.5249" y2="651.2168" gradientTransform="matrix(0.4975 0.8675 0.8675 -0.4975 -80.8817 1198.2157)"><stop offset="0.0056" style="stop-color:#FBCA11" id="stop1540"/><stop offset="0.2528" style="stop-color:#FFFFBF" id="stop1542"/><stop offset="0.2997" style="stop-color:#F9F3AE" id="stop1544"/><stop offset="0.393" style="stop-color:#E8D381" id="stop1546"/><stop offset="0.5226" style="stop-color:#CEA139" id="stop1548"/><stop offset="0.5955" style="stop-color:#BE820E" id="stop1550"/><stop offset="0.8558" style="stop-color:#E8D56A" id="stop1552"/><stop offset="0.8708" style="stop-color:#EADA6F" id="stop1554"/><stop offset="1" style="stop-color:#FFFFBF" id="stop1556"/></linearGradient><path fill="url(#SVGID_4_)" d="M65.232,116.638c0,0-13.395,1.619-12.891,8.672c0.506,7.051-1.1,9.381-5.315,12.338      c-4.219,2.961,14.149-0.945,13.644-7.996C60.166,122.603,65.232,116.638,65.232,116.638z" id="path1559"/><path fill="#D8962D" d="M47.194,138.896L47.194,138.896c-0.385,0-0.91-0.043-1.028-0.416c-0.122-0.388,0.319-0.758,0.717-1.037      c4.271-2.996,5.701-5.277,5.211-12.115c-0.516-7.207,12.553-8.871,13.109-8.938l0.633-0.078l-0.412,0.486      c-0.051,0.059-4.996,5.973-4.504,12.835c0.098,1.349-0.447,2.673-1.623,3.933C56.27,136.819,49.647,138.896,47.194,138.896z       M46.653,138.34c0.032,0,0.169,0.056,0.541,0.056c2.378,0,8.8-2.013,11.737-5.17c1.074-1.154,1.574-2.351,1.488-3.556      c-0.424-5.899,3.041-11.099,4.23-12.692c-2.588,0.422-12.48,2.43-12.061,8.313c0.516,7.181-1.176,9.583-5.422,12.562      c-0.415,0.293-0.502,0.445-0.52,0.488C46.651,138.34,46.652,138.34,46.653,138.34z" id="path1561"/></g><path fill="#D8962D" d="M47.072,138.835l-0.287-0.408c0.922-0.648,1.939-1.228,2.923-1.787c3.628-2.064,7.056-4.017,6.673-9.384     c-0.512-7.151,8.67-10.815,8.762-10.853l0.182,0.467c-0.088,0.035-8.93,3.566-8.445,10.35c0.406,5.682-3.318,7.803-6.923,9.854     C48.981,137.628,47.976,138.201,47.072,138.835z" id="path1565"/></g><g id="g1596"><g id="g1592"><linearGradient id="SVGID_5_" gradientUnits="userSpaceOnUse" x1="-1220.8613" y1="616.9648" x2="-1206.8228" y2="616.9648" gradientTransform="matrix(0.1986 0.9801 0.9801 -0.1986 -306.4332 1441.4099)"><stop offset="0.0056" style="stop-color:#FBCA11" id="stop1569"/><stop offset="0.2528" style="stop-color:#FFFFBF" id="stop1571"/><stop offset="0.2997" style="stop-color:#F9F3AE" id="stop1573"/><stop offset="0.393" style="stop-color:#E8D381" id="stop1575"/><stop offset="0.5226" style="stop-color:#CEA139" id="stop1577"/><stop offset="0.5955" style="stop-color:#BE820E" id="stop1579"/><stop offset="0.8558" style="stop-color:#E8D56A" id="stop1581"/><stop offset="0.8708" style="stop-color:#EADA6F" id="stop1583"/><stop offset="1" style="stop-color:#FFFFBF" id="stop1585"/></linearGradient><path fill="url(#SVGID_5_)" d="M69.508,121.615c0,0-13.223-2.685-14.965,4.165c-1.744,6.852-4.004,8.559-8.938,10.035      c-4.937,1.479,13.727,3.563,15.469-3.287C62.818,125.679,69.508,121.615,69.508,121.615z" id="path1588"/><path fill="#D8962D" d="M49.889,137.562L49.889,137.562c-0.213,0-5.188-0.014-5.355-1.16c-0.065-0.451,0.54-0.688,1.002-0.825      c4.998-1.496,7.074-3.21,8.768-9.856c0.811-3.188,4.145-4.873,9.645-4.873c3,0,5.586,0.519,5.611,0.523l0.625,0.127      l-0.545,0.332c-0.066,0.041-6.623,4.095-8.32,10.762C60.385,136.255,54.803,137.562,49.889,137.562z M63.947,121.347      c-3.658,0-8.217,0.78-9.162,4.496c-1.775,6.979-4.139,8.725-9.106,10.213c-0.577,0.172-0.653,0.307-0.653,0.31      c0.139,0.219,1.882,0.696,4.863,0.698h0.001c4.726,0,10.083-1.207,10.942-4.594c1.461-5.734,6.391-9.578,8.02-10.715      C67.922,121.603,66.037,121.347,63.947,121.347z" id="path1590"/></g><path fill="#D8962D" d="M45.276,136.955l-0.146-0.479c1.08-0.324,2.229-0.553,3.34-0.773c4.094-0.814,7.961-1.586,9.287-6.799     c1.771-6.951,11.639-7.533,11.736-7.538l0.025,0.499c-0.096,0.005-9.6,0.568-11.277,7.162c-1.404,5.519-5.607,6.356-9.675,7.166     C47.47,136.412,46.332,136.638,45.276,136.955z" id="path1594"/></g><g id="g1625"><g id="g1621"><linearGradient id="SVGID_6_" gradientUnits="userSpaceOnUse" x1="-1818.229" y1="-1179.7598" x2="-1804.1914" y2="-1179.7598" gradientTransform="matrix(-0.4183 0.9083 -0.9083 -0.4183 -1788.5028 1280.0063)"><stop offset="0.0056" style="stop-color:#FBCA11" id="stop1598"/><stop offset="0.2528" style="stop-color:#FFFFBF" id="stop1600"/><stop offset="0.2997" style="stop-color:#F9F3AE" id="stop1602"/><stop offset="0.393" style="stop-color:#E8D381" id="stop1604"/><stop offset="0.5226" style="stop-color:#CEA139" id="stop1606"/><stop offset="0.5955" style="stop-color:#BE820E" id="stop1608"/><stop offset="0.8558" style="stop-color:#E8D56A" id="stop1610"/><stop offset="0.8708" style="stop-color:#EADA6F" id="stop1612"/><stop offset="1" style="stop-color:#FFFFBF" id="stop1614"/></linearGradient><path fill="url(#SVGID_6_)" d="M30.446,118.172c0,0,13.486,0.423,13.611,7.492c0.123,7.065,1.932,9.244,6.395,11.815      c4.464,2.572-14.178,0.316-14.303-6.75C36.024,123.664,30.446,118.172,30.446,118.172z" id="path1617"/><path fill="#D8962D" d="M49.886,138.758c-4.019,0-13.896-2.812-13.986-8.022c-0.122-6.881-5.573-12.332-5.629-12.385      l-0.454-0.449l0.638,0.021c0.562,0.019,13.727,0.515,13.854,7.738c0.119,6.853,1.746,8.997,6.27,11.603      c0.43,0.248,0.908,0.584,0.801,0.987C51.285,138.597,50.811,138.758,49.886,138.758z M31.056,118.458      c1.324,1.482,5.238,6.354,5.344,12.268c0.087,4.942,10.055,7.532,13.486,7.532c0.763,0,0.968-0.118,1.009-0.149      c-0.025-0.01-0.123-0.155-0.567-0.412c-4.495-2.59-6.395-4.832-6.52-12.027C43.703,119.771,33.67,118.649,31.056,118.458z" id="path1619"/></g><path fill="#D8962D" d="M50.512,138.666c-0.954-0.55-2.007-1.03-3.024-1.495c-3.773-1.722-7.676-3.502-7.775-9.199     c-0.122-6.806-9.242-9.533-9.335-9.559l0.14-0.48c0.096,0.028,9.566,2.86,9.695,10.031c0.095,5.383,3.684,7.02,7.483,8.753     c1.028,0.47,2.092,0.954,3.066,1.517L50.512,138.666z" id="path1623"/></g><g id="g1654"><g id="g1650"><linearGradient id="SVGID_7_" gradientUnits="userSpaceOnUse" x1="-2070.4697" y1="-384.6675" x2="-2056.4321" y2="-384.6675" gradientTransform="matrix(-0.9318 0.3629 -0.3629 -0.9318 -2012.2167 515.5048)"><stop offset="0.0056" style="stop-color:#FBCA11" id="stop1627"/><stop offset="0.2528" style="stop-color:#FFFFBF" id="stop1629"/><stop offset="0.2997" style="stop-color:#F9F3AE" id="stop1631"/><stop offset="0.393" style="stop-color:#E8D381" id="stop1633"/><stop offset="0.5226" style="stop-color:#CEA139" id="stop1635"/><stop offset="0.5955" style="stop-color:#BE820E" id="stop1637"/><stop offset="0.8558" style="stop-color:#E8D56A" id="stop1639"/><stop offset="0.8708" style="stop-color:#EADA6F" id="stop1641"/><stop offset="1" style="stop-color:#FFFFBF" id="stop1643"/></linearGradient><path fill="url(#SVGID_7_)" d="M49.815,110.646c0,0,9.405,9.672,4.587,14.846c-4.817,5.169-5.03,7.99-3.607,12.939      c1.428,4.953-10.419-9.617-5.601-14.789C50.015,118.472,49.815,110.646,49.815,110.646z" id="path1646"/><path fill="#D8962D" d="M50.688,139.692c-1.023,0-3.936-3.653-5.624-7.535c-1.184-2.719-2.151-6.432-0.052-8.686      c4.695-5.037,4.556-12.742,4.554-12.818l-0.018-0.639l0.446,0.457c0.392,0.402,9.516,9.902,4.59,15.189      c-4.672,5.013-4.99,7.686-3.549,12.701c0.168,0.587,0.174,0.943,0.014,1.156C50.963,139.63,50.834,139.692,50.688,139.692z       M50.055,111.274c-0.076,1.988-0.645,8.211-4.679,12.537c-2.016,2.164-0.773,6.033,0.146,8.146      c1.775,4.083,4.551,7.204,5.155,7.236c-0.014-0.023,0.021-0.195-0.123-0.692c-1.434-4.983-1.24-7.917,3.666-13.181      C58.24,121.002,51.803,113.229,50.055,111.274z" id="path1648"/></g><path fill="#D8962D" d="M50.017,139.328c-0.306-1.06-0.729-2.138-1.14-3.179c-1.52-3.86-3.09-7.852,0.796-12.019     c4.64-4.979-0.026-13.276-0.074-13.36l0.434-0.248c0.05,0.086,4.896,8.703,0.007,13.949c-3.67,3.937-2.226,7.607-0.695,11.494     c0.413,1.053,0.843,2.141,1.153,3.225L50.017,139.328z" id="path1652"/></g><g id="g1683"><g id="g1679"><linearGradient id="SVGID_8_" gradientUnits="userSpaceOnUse" x1="58.7803" y1="29.8179" x2="72.8184" y2="29.8179" gradientTransform="matrix(1 0.0031 0.0031 -1 -20.5574 154.4185)"><stop offset="0.0056" style="stop-color:#FBCA11" id="stop1656"/><stop offset="0.2528" style="stop-color:#FFFFBF" id="stop1658"/><stop offset="0.2997" style="stop-color:#F9F3AE" id="stop1660"/><stop offset="0.393" style="stop-color:#E8D381" id="stop1662"/><stop offset="0.5226" style="stop-color:#CEA139" id="stop1664"/><stop offset="0.5955" style="stop-color:#BE820E" id="stop1666"/><stop offset="0.8558" style="stop-color:#E8D56A" id="stop1668"/><stop offset="0.8708" style="stop-color:#EADA6F" id="stop1670"/><stop offset="1" style="stop-color:#FFFFBF" id="stop1672"/></linearGradient><path fill="url(#SVGID_8_)" d="M40.396,111.206c0,0-5.293,12.408,1.063,15.5c6.357,3.088,7.572,5.645,8.025,10.773      c0.453,5.135,6.258-12.725-0.1-15.813C43.026,118.577,40.396,111.206,40.396,111.206z" id="path1675"/><path fill="#D8962D" d="M49.869,138.651L49.869,138.651c-0.531,0-0.604-0.836-0.633-1.149c-0.459-5.198-1.72-7.577-7.886-10.571      c-6.497-3.16-1.405-15.308-1.186-15.822l0.25-0.588l0.215,0.602c0.026,0.072,2.675,7.313,8.864,10.32      c3.57,1.734,3.543,7.979,2.434,12.798C51.824,134.69,50.883,138.651,49.869,138.651z M40.398,111.879      c-0.928,2.453-4.135,12.022,1.171,14.603c6.474,3.144,7.709,5.811,8.165,10.977c0.041,0.462,0.119,0.629,0.154,0.682      c0.477-0.254,1.756-3.51,2.115-7.539c0.234-2.644,0.193-7.289-2.729-8.709C43.955,119.306,41.186,113.706,40.398,111.879z" id="path1677"/></g><path fill="#D8962D" d="M50.037,138.078c-0.099-1.122-0.092-2.292-0.084-3.425c0.026-4.174,0.052-8.118-4.788-10.471     c-6.45-3.136-5.03-12.916-5.017-13.016l0.494,0.076c-0.016,0.095-1.377,9.516,4.741,12.49c5.122,2.49,5.096,6.777,5.068,10.925     c-0.008,1.12-0.015,2.278,0.081,3.376L50.037,138.078z" id="path1681"/></g><g id="g1712"><g id="g1708"><linearGradient id="SVGID_9_" gradientUnits="userSpaceOnUse" x1="-145.981" y1="318.8057" x2="-131.9429" y2="318.8057" gradientTransform="matrix(0.948 0.3182 0.3182 -0.948 77.5359 470.9015)"><stop offset="0.0056" style="stop-color:#FBCA11" id="stop1685"/><stop offset="0.2528" style="stop-color:#FFFFBF" id="stop1687"/><stop offset="0.2997" style="stop-color:#F9F3AE" id="stop1689"/><stop offset="0.393" style="stop-color:#E8D381" id="stop1691"/><stop offset="0.5226" style="stop-color:#CEA139" id="stop1693"/><stop offset="0.5955" style="stop-color:#BE820E" id="stop1695"/><stop offset="0.8558" style="stop-color:#E8D56A" id="stop1697"/><stop offset="0.8708" style="stop-color:#EADA6F" id="stop1699"/><stop offset="1" style="stop-color:#FFFFBF" id="stop1701"/></linearGradient><path fill="url(#SVGID_9_)" d="M46.847,109.993c0,0-8.938,10.105-3.879,15.044c5.061,4.937,5.407,7.745,4.219,12.757      c-1.188,5.014,9.95-10.105,4.892-15.04C47.019,117.817,46.847,109.993,46.847,109.993z" id="path1704"/><path fill="#D8962D" d="M47.33,139.048C47.329,139.048,47.329,139.048,47.33,139.048c-0.143,0-0.268-0.061-0.353-0.167      c-0.163-0.206-0.173-0.56-0.034-1.146c1.205-5.077,0.759-7.731-4.15-12.52c-5.169-5.046,3.495-14.969,3.866-15.389l0.423-0.478      l0.016,0.638c0.002,0.076,0.229,7.781,5.156,12.587c1.801,1.757,1.857,5.017,0.162,9.18      C50.973,135.299,48.358,139.048,47.33,139.048z M46.638,110.632c-1.654,2.035-7.718,10.105-3.495,14.227      c5.152,5.025,5.483,7.947,4.287,12.992c-0.106,0.448-0.085,0.633-0.069,0.694c0.579-0.11,3.011-3.092,4.593-6.979      c0.936-2.293,2.17-6.467-0.049-8.633C47.669,118.802,46.808,112.614,46.638,110.632z" id="path1706"/></g><path fill="#D8962D" d="M48.01,138.647l-0.486-0.114c0.26-1.097,0.636-2.205,0.999-3.277c1.341-3.952,2.606-7.687-1.243-11.444     c-5.133-5.008-0.7-13.845-0.655-13.933l0.445,0.228c-0.044,0.086-4.31,8.598,0.56,13.348c4.076,3.979,2.699,8.037,1.367,11.963     C48.636,136.478,48.264,137.575,48.01,138.647z" id="path1710"/></g></g><g id="g1731"><radialGradient id="SVGID_10_" cx="148.9648" cy="59.7153" r="3.5946" fx="148.6326" fy="59.7454" gradientTransform="matrix(1 0 0 -1 -100.9902 199.4004)" gradientUnits="userSpaceOnUse"><stop offset="0" style="stop-color:#FFFFBF" id="stop1716"/><stop offset="0.1369" style="stop-color:#F9F3AE" id="stop1718"/><stop offset="0.4091" style="stop-color:#E8D381" id="stop1720"/><stop offset="0.7872" style="stop-color:#CEA139" id="stop1722"/><stop offset="1" style="stop-color:#BE820E" id="stop1724"/></radialGradient><rect x="45.922" y="138.78" fill="url(#SVGID_10_)" width="6.109" height="3.312" id="rect1727"/><path fill="#D8962D" d="M52.182,142.241h-6.409v-3.611h6.409V142.241z M46.073,141.94h5.808v-3.012h-5.808V141.94z" id="path1729"/></g><g id="g1748"><radialGradient id="SVGID_11_" cx="148.001" cy="285.251" r="6.3109" fx="147.4176" fy="285.304" gradientTransform="matrix(1 0 0 -0.6913 -100.9902 334.3099)" gradientUnits="userSpaceOnUse"><stop offset="0" style="stop-color:#FFFFBF" id="stop1733"/><stop offset="0.1369" style="stop-color:#F9F3AE" id="stop1735"/><stop offset="0.4091" style="stop-color:#E8D381" id="stop1737"/><stop offset="0.7872" style="stop-color:#CEA139" id="stop1739"/><stop offset="1" style="stop-color:#BE820E" id="stop1741"/></radialGradient><rect x="42.981" y="136.526" fill="url(#SVGID_11_)" width="11.993" height="2.162" id="rect1744"/><path fill="#D8962D" d="M55.125,138.839H42.831v-2.462h12.294V138.839L55.125,138.839z M43.131,138.539h11.693v-1.862H43.131    V138.539z" id="path1746"/></g><g id="g1765"><radialGradient id="SVGID_12_" cx="146.9805" cy="52.5981" r="13.6556" fx="145.7182" fy="52.7127" gradientTransform="matrix(1 0 0 -1 -100.9902 199.4004)" gradientUnits="userSpaceOnUse"><stop offset="0" style="stop-color:#FFFFBF" id="stop1750"/><stop offset="0.1369" style="stop-color:#F9F3AE" id="stop1752"/><stop offset="0.4091" style="stop-color:#E8D381" id="stop1754"/><stop offset="0.7872" style="stop-color:#CEA139" id="stop1756"/><stop offset="1" style="stop-color:#BE820E" id="stop1758"/></radialGradient><circle fill="url(#SVGID_12_)" cx="48.978" cy="150.932" r="9.1" id="circle1761"/><path fill="#D8962D" d="M48.979,160.185c-5.103,0-9.252-4.15-9.252-9.252c0-5.1,4.149-9.25,9.252-9.25    c5.099,0,9.247,4.149,9.247,9.25C58.227,156.034,54.078,160.185,48.979,160.185z M48.979,141.981    c-4.937,0-8.951,4.016-8.951,8.951s4.016,8.951,8.951,8.951c4.933,0,8.946-4.016,8.946-8.951S53.912,141.981,48.979,141.981z" id="path1763"/></g></g><g id="g1919"><g id="g1842"><g id="g1804"><linearGradient id="SVGID_13_" gradientUnits="userSpaceOnUse" x1="31.668" y1="185.123" x2="68.2813" y2="185.123"><stop offset="0.0056" style="stop-color:#FBCA11" id="stop1769"/><stop offset="0.2528" style="stop-color:#FFFFBF" id="stop1771"/><stop offset="0.2997" style="stop-color:#F9F3AE" id="stop1773"/><stop offset="0.393" style="stop-color:#E8D381" id="stop1775"/><stop offset="0.5226" style="stop-color:#CEA139" id="stop1777"/><stop offset="0.5955" style="stop-color:#BE820E" id="stop1779"/><stop offset="0.8558" style="stop-color:#E8D56A" id="stop1781"/><stop offset="0.8708" style="stop-color:#EADA6F" id="stop1783"/><stop offset="1" style="stop-color:#FFFFBF" id="stop1785"/></linearGradient><polygon fill="url(#SVGID_13_)" points="57.902,189.729 68.281,185.151 57.9,180.574 59.127,169.297 49.977,175.94      40.822,169.239 42.049,180.518 31.668,185.094 42.049,189.672 42.049,189.672 40.822,200.949 49.977,194.248 59.127,201.007         " id="polygon1788"/><g id="g1802"><polygon fill="#D6A633" points="49.977,185.094 40.822,169.239 49.977,175.94     " id="polygon1790"/><polygon fill="#D6A633" points="50.053,185.128 31.744,185.129 42.125,180.552     " id="polygon1792"/><polygon fill="#D6A633" points="49.971,185.136 40.818,200.991 42.045,189.713     " id="polygon1794"/><polygon fill="#D6A633" points="49.963,185.053 59.115,200.907 49.963,194.206     " id="polygon1796"/><polygon fill="#D6A633" points="50.025,185.27 68.332,185.269 57.951,189.846     " id="polygon1798"/><polygon fill="#D6A633" points="49.959,185.318 59.109,169.463 57.883,180.741     " id="polygon1800"/></g></g><g id="g1840"><linearGradient id="SVGID_14_" gradientUnits="userSpaceOnUse" x1="44.6309" y1="185.123" x2="55.3672" y2="185.123"><stop offset="0.0056" style="stop-color:#FBCA11" id="stop1806"/><stop offset="0.2528" style="stop-color:#FFFFBF" id="stop1808"/><stop offset="0.2997" style="stop-color:#F9F3AE" id="stop1810"/><stop offset="0.393" style="stop-color:#E8D381" id="stop1812"/><stop offset="0.5226" style="stop-color:#CEA139" id="stop1814"/><stop offset="0.5955" style="stop-color:#BE820E" id="stop1816"/><stop offset="0.8558" style="stop-color:#E8D56A" id="stop1818"/><stop offset="0.8708" style="stop-color:#EADA6F" id="stop1820"/><stop offset="1" style="stop-color:#FFFFBF" id="stop1822"/></linearGradient><circle fill="url(#SVGID_14_)" cx="49.999" cy="185.123" r="5.368" id="circle1825"/><radialGradient id="SVGID_15_" cx="47.4263" cy="181.8301" r="7.8157" gradientUnits="userSpaceOnUse"><stop offset="0" style="stop-color:#FFFFBF" id="stop1827"/><stop offset="0.1369" style="stop-color:#F9F3AE" id="stop1829"/><stop offset="0.4091" style="stop-color:#E8D381" id="stop1831"/><stop offset="0.7872" style="stop-color:#CEA139" id="stop1833"/><stop offset="1" style="stop-color:#BE820E" id="stop1835"/></radialGradient><path fill="url(#SVGID_15_)" d="M50,189.075c-2.178,0-3.951-1.772-3.951-3.951c0-2.18,1.773-3.952,3.951-3.952     s3.951,1.772,3.951,3.952C53.951,187.303,52.178,189.075,50,189.075L50,189.075z" id="path1838"/></g></g><g id="g1917"><g id="g1879"><linearGradient id="SVGID_16_" gradientUnits="userSpaceOnUse" x1="31.668" y1="226.8984" x2="68.2813" y2="226.8984"><stop offset="0.0056" style="stop-color:#FBCA11" id="stop1844"/><stop offset="0.2528" style="stop-color:#FFFFBF" id="stop1846"/><stop offset="0.2997" style="stop-color:#F9F3AE" id="stop1848"/><stop offset="0.393" style="stop-color:#E8D381" id="stop1850"/><stop offset="0.5226" style="stop-color:#CEA139" id="stop1852"/><stop offset="0.5955" style="stop-color:#BE820E" id="stop1854"/><stop offset="0.8558" style="stop-color:#E8D56A" id="stop1856"/><stop offset="0.8708" style="stop-color:#EADA6F" id="stop1858"/><stop offset="1" style="stop-color:#FFFFBF" id="stop1860"/></linearGradient><polygon fill="url(#SVGID_16_)" points="57.902,231.504 68.281,226.927 57.9,222.35 59.127,211.072 49.977,217.716      40.822,211.015 42.049,222.293 31.668,226.869 42.049,231.447 42.049,231.447 40.822,242.725 49.977,236.023 59.127,242.782         " id="polygon1863"/><g id="g1877"><polygon fill="#D6A633" points="49.977,226.869 40.822,211.015 49.977,217.716     " id="polygon1865"/><polygon fill="#D6A633" points="50.053,226.903 31.744,226.904 42.125,222.327     " id="polygon1867"/><polygon fill="#D6A633" points="49.971,226.911 40.818,242.767 42.045,231.488     " id="polygon1869"/><polygon fill="#D6A633" points="49.963,226.828 59.115,242.683 49.963,235.981     " id="polygon1871"/><polygon fill="#D6A633" points="50.025,227.045 68.332,227.044 57.951,231.621     " id="polygon1873"/><polygon fill="#D6A633" points="49.959,227.094 59.109,211.238 57.883,222.517     " id="polygon1875"/></g></g><g id="g1915"><linearGradient id="SVGID_17_" gradientUnits="userSpaceOnUse" x1="44.6309" y1="226.8984" x2="55.3672" y2="226.8984"><stop offset="0.0056" style="stop-color:#FBCA11" id="stop1881"/><stop offset="0.2528" style="stop-color:#FFFFBF" id="stop1883"/><stop offset="0.2997" style="stop-color:#F9F3AE" id="stop1885"/><stop offset="0.393" style="stop-color:#E8D381" id="stop1887"/><stop offset="0.5226" style="stop-color:#CEA139" id="stop1889"/><stop offset="0.5955" style="stop-color:#BE820E" id="stop1891"/><stop offset="0.8558" style="stop-color:#E8D56A" id="stop1893"/><stop offset="0.8708" style="stop-color:#EADA6F" id="stop1895"/><stop offset="1" style="stop-color:#FFFFBF" id="stop1897"/></linearGradient><circle fill="url(#SVGID_17_)" cx="49.999" cy="226.898" r="5.368" id="circle1900"/><radialGradient id="SVGID_18_" cx="47.4263" cy="223.6055" r="7.8157" gradientUnits="userSpaceOnUse"><stop offset="0" style="stop-color:#FFFFBF" id="stop1902"/><stop offset="0.1369" style="stop-color:#F9F3AE" id="stop1904"/><stop offset="0.4091" style="stop-color:#E8D381" id="stop1906"/><stop offset="0.7872" style="stop-color:#CEA139" id="stop1908"/><stop offset="1" style="stop-color:#BE820E" id="stop1910"/></radialGradient><path fill="url(#SVGID_18_)" d="M50,230.851c-2.178,0-3.951-1.772-3.951-3.951c0-2.18,1.773-3.952,3.951-3.952     s3.951,1.772,3.951,3.952C53.951,229.078,52.178,230.851,50,230.851L50,230.851z" id="path1913"/></g></g></g></svg>