<?xml version="1.0" encoding="UTF-8" standalone="no"?>
<!-- Generator: Adobe Illustrator 16.0.3, SVG Export Plug-In . SVG Version: 6.00 Build 0)  -->
<svg xmlns:dc="http://purl.org/dc/elements/1.1/" xmlns:cc="http://creativecommons.org/ns#" xmlns:rdf="http://www.w3.org/1999/02/22-rdf-syntax-ns#" xmlns:svg="http://www.w3.org/2000/svg" xmlns="http://www.w3.org/2000/svg" xmlns:sodipodi="http://sodipodi.sourceforge.net/DTD/sodipodi-0.dtd" xmlns:inkscape="http://www.inkscape.org/namespaces/inkscape" version="1.1" id="Layer_1" x="0px" y="0px" width="100px" height="256px" viewBox="0 0 100 256" enable-background="new 0 0 100 256" xml:space="preserve" sodipodi:docname="Army-GRE-OF-07.svg" inkscape:version="0.92.2 (5c3e80d, 2017-08-06)"><metadata id="metadata1436"><rdf:RDF><cc:Work rdf:about=""><dc:format>image/svg+xml</dc:format><dc:type rdf:resource="http://purl.org/dc/dcmitype/StillImage"/></cc:Work></rdf:RDF></metadata><defs id="defs1434"/><sodipodi:namedview pagecolor="#ffffff" bordercolor="#666666" borderopacity="1" objecttolerance="10" gridtolerance="10" guidetolerance="10" inkscape:pageopacity="0" inkscape:pageshadow="2" inkscape:window-width="1920" inkscape:window-height="1016" id="namedview1432" showgrid="false" inkscape:zoom="0.921875" inkscape:cx="-168.0339" inkscape:cy="128" inkscape:window-x="0" inkscape:window-y="27" inkscape:window-maximized="1" inkscape:current-layer="Layer_1"/><polygon fill="#2D2D2B" points="100,256 0,256 7,30 50,0 93,30 " id="polygon675" style="fill:#3f4845;fill-opacity:1"/><g id="g685"><g id="g679"><path d="M44.988,65.288V27.401c0-2.768,2.244-5.01,5.01-5.01l0,0c2.766,0,5.01,2.242,5.012,5.01l0,0v37.887h-0.002    c0,2.766-2.244,5.008-5.01,5.008l0,0C47.232,70.295,44.988,68.053,44.988,65.288L44.988,65.288z M45.988,27.401l-0.002,37.887    c0.006,2.213,1.797,4.006,4.012,4.01l0,0c2.215-0.004,4.008-1.797,4.012-4.01l0,0V27.401c-0.004-2.215-1.797-4.006-4.012-4.01l0,0    C47.783,23.395,45.992,25.186,45.988,27.401L45.988,27.401z" id="path677"/></g><g id="g683"><path d="M49.609,65.985l-0.223-39.277c-0.002-0.277,0.221-0.502,0.496-0.504l0,0c0.277-0.002,0.502,0.221,0.504,0.498l0,0    l0.223,39.277c0.002,0.277-0.221,0.502-0.497,0.504l0,0c-0.002,0-0.004,0-0.004,0l0,0C49.834,66.483,49.611,66.26,49.609,65.985    L49.609,65.985z" id="path681"/></g></g><g id="g727"><g id="g725"><g id="g710"><linearGradient id="SVGID_1_" gradientUnits="userSpaceOnUse" x1="-973.0171" y1="228.4209" x2="-954.3817" y2="247.0564" gradientTransform="matrix(0 -1 -1 0 287.7402 -930.6992)"><stop offset="0.0056" style="stop-color:#FBCA11" id="stop687"/><stop offset="0.2528" style="stop-color:#FFFFBF" id="stop689"/><stop offset="0.2997" style="stop-color:#F9F3AE" id="stop691"/><stop offset="0.393" style="stop-color:#E8D381" id="stop693"/><stop offset="0.5226" style="stop-color:#CEA139" id="stop695"/><stop offset="0.5955" style="stop-color:#BE820E" id="stop697"/><stop offset="0.8558" style="stop-color:#E8D56A" id="stop699"/><stop offset="0.8708" style="stop-color:#EADA6F" id="stop701"/><stop offset="1" style="stop-color:#FFFFBF" id="stop703"/></linearGradient><circle fill="url(#SVGID_1_)" cx="50" cy="33" r="13.177" id="circle706"/><path fill="#D8962D" d="M50,46.427c-7.403,0-13.426-6.023-13.426-13.426c0-7.405,6.022-13.429,13.426-13.429     c7.404,0,13.426,6.024,13.426,13.429C63.426,40.404,57.402,46.427,50,46.427z M50,20.073c-7.127,0-12.926,5.8-12.926,12.929     c0,7.127,5.799,12.926,12.926,12.926s12.926-5.798,12.926-12.926C62.926,25.873,57.127,20.073,50,20.073z" id="path708"/></g><radialGradient id="SVGID_2_" cx="-963.6992" cy="237.7402" r="11.0974" gradientTransform="matrix(0 -1 -1 0 287.7402 -930.6992)" gradientUnits="userSpaceOnUse"><stop offset="0" style="stop-color:#FFFFBF" id="stop712"/><stop offset="0.1369" style="stop-color:#F9F3AE" id="stop714"/><stop offset="0.4091" style="stop-color:#E8D381" id="stop716"/><stop offset="0.7872" style="stop-color:#CEA139" id="stop718"/><stop offset="1" style="stop-color:#BE820E" id="stop720"/></radialGradient><path fill="url(#SVGID_2_)" d="M38.904,33.005c0.006,6.133,4.965,11.087,11.094,11.094l0,0    c6.129-0.007,11.084-4.961,11.098-11.094l0,0c-0.014-6.126-4.969-11.091-11.098-11.104l0,0    C43.869,21.915,38.91,26.879,38.904,33.005L38.904,33.005z" id="path723"/></g></g><g id="g985"><g id="g932"><g id="g756"><g id="g752"><linearGradient id="SVGID_3_" gradientUnits="userSpaceOnUse" x1="-2014.2476" y1="-84.6641" x2="-2000.2095" y2="-84.6641" gradientTransform="matrix(-0.9936 0.1125 -0.1125 -0.9936 -1950.2565 248.3827)"><stop offset="0.0056" style="stop-color:#FBCA11" id="stop729"/><stop offset="0.2528" style="stop-color:#FFFFBF" id="stop731"/><stop offset="0.2997" style="stop-color:#F9F3AE" id="stop733"/><stop offset="0.393" style="stop-color:#E8D381" id="stop735"/><stop offset="0.5226" style="stop-color:#CEA139" id="stop737"/><stop offset="0.5955" style="stop-color:#BE820E" id="stop739"/><stop offset="0.8558" style="stop-color:#E8D56A" id="stop741"/><stop offset="0.8708" style="stop-color:#EADA6F" id="stop743"/><stop offset="1" style="stop-color:#FFFFBF" id="stop745"/></linearGradient><path fill="url(#SVGID_3_)" d="M57.068,92.634c0,0,6.621,11.754,0.641,15.524c-5.982,3.766-6.91,6.438-6.797,11.587      c0.111,5.154-7.613-11.963-1.633-15.729C55.259,100.25,57.068,92.634,57.068,92.634z" id="path748"/><path fill="#D8962D" d="M50.609,120.955c-0.962,0-2.309-3.416-2.929-5.569c-0.611-2.115-2.31-9.203,1.466-11.581      c5.821-3.667,7.661-11.153,7.679-11.228l0.147-0.621l0.313,0.556c0.275,0.488,6.668,12.005,0.557,15.858      c-5.804,3.653-6.796,6.154-6.681,11.37c0.012,0.56-0.063,0.902-0.236,1.079C50.84,120.908,50.73,120.955,50.609,120.955z       M57.139,93.303c-0.582,1.902-2.722,7.772-7.727,10.924c-2.748,1.731-2.28,6.354-1.758,8.955      c0.798,3.967,2.428,7.063,2.93,7.264c0.027-0.057,0.088-0.231,0.078-0.695c-0.114-5.184,0.82-7.969,6.914-11.804      C62.568,104.799,58.33,95.64,57.139,93.303z" id="path750"/></g><path fill="#D8962D" d="M49.928,120.412c-0.023-1.103-0.158-2.252-0.288-3.365c-0.48-4.119-0.978-8.378,3.844-11.414     c5.761-3.628,3.367-12.842,3.344-12.935l0.482-0.13c0.025,0.096,2.508,9.665-3.561,13.487c-4.555,2.868-4.098,6.785-3.613,10.933     c0.131,1.124,0.267,2.286,0.291,3.412L49.928,120.412z" id="path754"/></g><g id="g785"><g id="g781"><linearGradient id="SVGID_4_" gradientUnits="userSpaceOnUse" x1="-883.8457" y1="660.5801" x2="-869.8071" y2="660.5801" gradientTransform="matrix(0.4975 0.8675 0.8675 -0.4975 -80.8817 1198.2157)"><stop offset="0.0056" style="stop-color:#FBCA11" id="stop758"/><stop offset="0.2528" style="stop-color:#FFFFBF" id="stop760"/><stop offset="0.2997" style="stop-color:#F9F3AE" id="stop762"/><stop offset="0.393" style="stop-color:#E8D381" id="stop764"/><stop offset="0.5226" style="stop-color:#CEA139" id="stop766"/><stop offset="0.5955" style="stop-color:#BE820E" id="stop768"/><stop offset="0.8558" style="stop-color:#E8D56A" id="stop770"/><stop offset="0.8708" style="stop-color:#EADA6F" id="stop772"/><stop offset="1" style="stop-color:#FFFFBF" id="stop774"/></linearGradient><path fill="url(#SVGID_4_)" d="M65.256,97.853c0,0-13.395,1.62-12.891,8.672c0.506,7.051-1.1,9.381-5.316,12.339      c-4.219,2.96,14.15-0.946,13.645-7.996C60.189,103.818,65.256,97.853,65.256,97.853z" id="path777"/><path fill="#D8962D" d="M47.217,120.112L47.217,120.112c-0.385,0-0.91-0.043-1.028-0.416c-0.122-0.388,0.319-0.758,0.717-1.037      c4.271-2.997,5.702-5.278,5.211-12.116c-0.516-7.207,12.553-8.871,13.109-8.938l0.633-0.077l-0.412,0.486      c-0.051,0.059-4.996,5.973-4.504,12.835c0.097,1.349-0.448,2.672-1.623,3.933C56.292,118.036,49.67,120.112,47.217,120.112z       M46.676,119.556c0.032,0,0.169,0.056,0.541,0.056c2.378,0,8.801-2.013,11.738-5.17c1.074-1.154,1.574-2.351,1.488-3.556      c-0.424-5.899,3.041-11.098,4.23-12.693c-2.589,0.423-12.48,2.43-12.061,8.314c0.516,7.18-1.176,9.583-5.422,12.562      c-0.415,0.292-0.502,0.445-0.52,0.488C46.674,119.556,46.675,119.556,46.676,119.556z" id="path779"/></g><path fill="#D8962D" d="M47.095,120.051l-0.287-0.409c0.922-0.647,1.939-1.227,2.923-1.786c3.628-2.065,7.056-4.017,6.673-9.384     c-0.512-7.152,8.669-10.815,8.762-10.852l0.182,0.466c-0.089,0.035-8.93,3.566-8.445,10.35c0.406,5.682-3.319,7.803-6.923,9.854     C49.004,118.844,47.998,119.417,47.095,120.051z" id="path783"/></g><g id="g814"><g id="g810"><linearGradient id="SVGID_5_" gradientUnits="userSpaceOnUse" x1="-1239.2661" y1="620.7178" x2="-1225.2271" y2="620.7178" gradientTransform="matrix(0.1986 0.9801 0.9801 -0.1986 -306.4332 1441.4099)"><stop offset="0.0056" style="stop-color:#FBCA11" id="stop787"/><stop offset="0.2528" style="stop-color:#FFFFBF" id="stop789"/><stop offset="0.2997" style="stop-color:#F9F3AE" id="stop791"/><stop offset="0.393" style="stop-color:#E8D381" id="stop793"/><stop offset="0.5226" style="stop-color:#CEA139" id="stop795"/><stop offset="0.5955" style="stop-color:#BE820E" id="stop797"/><stop offset="0.8558" style="stop-color:#E8D56A" id="stop799"/><stop offset="0.8708" style="stop-color:#EADA6F" id="stop801"/><stop offset="1" style="stop-color:#FFFFBF" id="stop803"/></linearGradient><path fill="url(#SVGID_5_)" d="M69.531,102.831c0,0-13.223-2.684-14.965,4.166c-1.744,6.851-4.004,8.558-8.938,10.034      c-4.936,1.479,13.728,3.563,15.47-3.286C62.842,106.895,69.531,102.831,69.531,102.831z" id="path806"/><path fill="#D8962D" d="M49.911,118.778L49.911,118.778c-0.213,0-5.188-0.014-5.355-1.16c-0.066-0.452,0.54-0.688,1.002-0.826      c4.999-1.496,7.074-3.21,8.767-9.856c0.812-3.188,4.146-4.873,9.646-4.873c3,0,5.586,0.518,5.611,0.523l0.625,0.127      l-0.545,0.332c-0.066,0.041-6.623,4.095-8.321,10.762C60.407,117.471,54.825,118.778,49.911,118.778z M63.971,102.563      c-3.658,0-8.217,0.78-9.162,4.496c-1.775,6.978-4.14,8.725-9.107,10.212c-0.577,0.173-0.653,0.308-0.653,0.31      c0.139,0.219,1.882,0.697,4.863,0.698h0.001c4.727,0,10.083-1.207,10.943-4.594c1.461-5.733,6.39-9.577,8.02-10.714      C67.945,102.819,66.061,102.563,63.971,102.563z" id="path808"/></g><path fill="#D8962D" d="M45.299,118.171l-0.145-0.479c1.08-0.324,2.229-0.553,3.339-0.774c4.095-0.815,7.962-1.586,9.288-6.799     c1.771-6.951,11.638-7.533,11.736-7.538l0.025,0.499c-0.096,0.005-9.6,0.569-11.277,7.162c-1.404,5.519-5.608,6.357-9.676,7.167     C47.492,117.628,46.355,117.854,45.299,118.171z" id="path812"/></g><g id="g843"><g id="g839"><linearGradient id="SVGID_6_" gradientUnits="userSpaceOnUse" x1="-1835.3003" y1="-1171.9219" x2="-1821.2627" y2="-1171.9219" gradientTransform="matrix(-0.4183 0.9083 -0.9083 -0.4183 -1788.5028 1280.0063)"><stop offset="0.0056" style="stop-color:#FBCA11" id="stop816"/><stop offset="0.2528" style="stop-color:#FFFFBF" id="stop818"/><stop offset="0.2997" style="stop-color:#F9F3AE" id="stop820"/><stop offset="0.393" style="stop-color:#E8D381" id="stop822"/><stop offset="0.5226" style="stop-color:#CEA139" id="stop824"/><stop offset="0.5955" style="stop-color:#BE820E" id="stop826"/><stop offset="0.8558" style="stop-color:#E8D56A" id="stop828"/><stop offset="0.8708" style="stop-color:#EADA6F" id="stop830"/><stop offset="1" style="stop-color:#FFFFBF" id="stop832"/></linearGradient><path fill="url(#SVGID_6_)" d="M30.469,99.388c0,0,13.486,0.423,13.611,7.492c0.123,7.066,1.932,9.244,6.395,11.815      c4.464,2.572-14.178,0.317-14.303-6.749S30.469,99.388,30.469,99.388z" id="path835"/><path fill="#D8962D" d="M49.908,119.974c-4.018,0-13.895-2.812-13.986-8.023c-0.122-6.88-5.573-12.331-5.629-12.385      l-0.454-0.448l0.638,0.02c0.561,0.018,13.726,0.514,13.854,7.738c0.119,6.853,1.746,8.997,6.271,11.603      c0.43,0.248,0.908,0.583,0.801,0.987C51.309,119.813,50.834,119.974,49.908,119.974z M31.078,99.674      c1.325,1.483,5.239,6.354,5.344,12.268c0.087,4.942,10.055,7.532,13.486,7.532c0.763,0,0.969-0.118,1.01-0.149      c-0.025-0.01-0.123-0.156-0.568-0.412c-4.495-2.59-6.395-4.833-6.52-12.028C43.726,100.986,33.693,99.866,31.078,99.674z" id="path837"/></g><path fill="#D8962D" d="M50.535,119.882c-0.955-0.55-2.007-1.03-3.025-1.495c-3.773-1.722-7.676-3.502-7.775-9.199     c-0.122-6.806-9.243-9.533-9.335-9.559l0.139-0.48c0.096,0.028,9.567,2.86,9.696,10.031c0.094,5.382,3.683,7.02,7.483,8.753     c1.028,0.469,2.092,0.954,3.067,1.516L50.535,119.882z" id="path841"/></g><g id="g872"><g id="g868"><linearGradient id="SVGID_7_" gradientUnits="userSpaceOnUse" x1="-2077.3086" y1="-367.1719" x2="-2063.27" y2="-367.1719" gradientTransform="matrix(-0.9318 0.3629 -0.3629 -0.9318 -2012.2167 515.5048)"><stop offset="0.0056" style="stop-color:#FBCA11" id="stop845"/><stop offset="0.2528" style="stop-color:#FFFFBF" id="stop847"/><stop offset="0.2997" style="stop-color:#F9F3AE" id="stop849"/><stop offset="0.393" style="stop-color:#E8D381" id="stop851"/><stop offset="0.5226" style="stop-color:#CEA139" id="stop853"/><stop offset="0.5955" style="stop-color:#BE820E" id="stop855"/><stop offset="0.8558" style="stop-color:#E8D56A" id="stop857"/><stop offset="0.8708" style="stop-color:#EADA6F" id="stop859"/><stop offset="1" style="stop-color:#FFFFBF" id="stop861"/></linearGradient><path fill="url(#SVGID_7_)" d="M49.838,91.862c0,0,9.406,9.671,4.588,14.845c-4.818,5.169-5.031,7.991-3.607,12.94      c1.427,4.953-10.419-9.618-5.602-14.79C50.037,99.688,49.838,91.862,49.838,91.862z" id="path864"/><path fill="#D8962D" d="M50.71,120.909c-1.023,0-3.935-3.654-5.624-7.536c-1.183-2.719-2.151-6.432-0.052-8.686      c4.696-5.036,4.556-12.741,4.554-12.818l-0.017-0.639l0.446,0.458c0.391,0.402,9.515,9.902,4.59,15.189      c-4.672,5.013-4.991,7.686-3.549,12.701c0.168,0.587,0.174,0.944,0.014,1.156C50.986,120.846,50.857,120.909,50.71,120.909z       M50.077,92.491c-0.076,1.988-0.644,8.211-4.678,12.537c-2.016,2.164-0.774,6.032,0.146,8.146      c1.776,4.083,4.551,7.204,5.156,7.236c-0.014-0.023,0.021-0.195-0.123-0.692c-1.434-4.984-1.241-7.917,3.665-13.18      C58.264,102.218,51.826,94.445,50.077,92.491z" id="path866"/></g><path fill="#D8962D" d="M50.039,120.544c-0.305-1.06-0.729-2.137-1.139-3.179c-1.52-3.86-3.09-7.851,0.796-12.018     c4.639-4.98-0.027-13.277-0.075-13.36l0.434-0.249c0.05,0.086,4.895,8.703,0.007,13.95c-3.67,3.936-2.226,7.607-0.696,11.494     c0.414,1.053,0.843,2.141,1.153,3.224L50.039,120.544z" id="path870"/></g><g id="g901"><g id="g897"><linearGradient id="SVGID_8_" gradientUnits="userSpaceOnUse" x1="58.7441" y1="48.6016" x2="72.7832" y2="48.6016" gradientTransform="matrix(1 0.0031 0.0031 -1 -20.5574 154.4185)"><stop offset="0.0056" style="stop-color:#FBCA11" id="stop874"/><stop offset="0.2528" style="stop-color:#FFFFBF" id="stop876"/><stop offset="0.2997" style="stop-color:#F9F3AE" id="stop878"/><stop offset="0.393" style="stop-color:#E8D381" id="stop880"/><stop offset="0.5226" style="stop-color:#CEA139" id="stop882"/><stop offset="0.5955" style="stop-color:#BE820E" id="stop884"/><stop offset="0.8558" style="stop-color:#E8D56A" id="stop886"/><stop offset="0.8708" style="stop-color:#EADA6F" id="stop888"/><stop offset="1" style="stop-color:#FFFFBF" id="stop890"/></linearGradient><path fill="url(#SVGID_8_)" d="M40.418,92.422c0,0-5.293,12.408,1.064,15.5c6.357,3.088,7.572,5.645,8.025,10.774      c0.453,5.134,6.259-12.725-0.1-15.813C43.049,99.793,40.418,92.422,40.418,92.422z" id="path893"/><path fill="#D8962D" d="M49.892,119.867L49.892,119.867c-0.531,0-0.605-0.835-0.633-1.149c-0.459-5.198-1.72-7.577-7.886-10.571      c-6.497-3.16-1.405-15.308-1.185-15.823l0.25-0.587l0.215,0.601c0.026,0.073,2.674,7.312,8.864,10.32      c3.571,1.735,3.543,7.979,2.434,12.798C51.848,115.907,50.906,119.867,49.892,119.867z M40.421,93.095      c-0.928,2.453-4.135,12.022,1.171,14.602c6.474,3.144,7.709,5.811,8.165,10.977c0.041,0.462,0.119,0.629,0.154,0.682      c0.477-0.254,1.757-3.51,2.116-7.54c0.234-2.643,0.193-7.289-2.729-8.708C43.978,100.522,41.208,94.922,40.421,93.095z" id="path895"/></g><path fill="#D8962D" d="M50.06,119.294c-0.099-1.122-0.092-2.292-0.084-3.424c0.026-4.175,0.052-8.119-4.788-10.471     c-6.45-3.136-5.031-12.917-5.017-13.016l0.494,0.076c-0.015,0.095-1.377,9.516,4.741,12.491     c5.123,2.489,5.096,6.777,5.069,10.924c-0.008,1.12-0.015,2.278,0.082,3.376L50.06,119.294z" id="path899"/></g><g id="g930"><g id="g926"><linearGradient id="SVGID_9_" gradientUnits="userSpaceOnUse" x1="-151.937" y1="336.6211" x2="-137.8984" y2="336.6211" gradientTransform="matrix(0.948 0.3182 0.3182 -0.948 77.5359 470.9015)"><stop offset="0.0056" style="stop-color:#FBCA11" id="stop903"/><stop offset="0.2528" style="stop-color:#FFFFBF" id="stop905"/><stop offset="0.2997" style="stop-color:#F9F3AE" id="stop907"/><stop offset="0.393" style="stop-color:#E8D381" id="stop909"/><stop offset="0.5226" style="stop-color:#CEA139" id="stop911"/><stop offset="0.5955" style="stop-color:#BE820E" id="stop913"/><stop offset="0.8558" style="stop-color:#E8D56A" id="stop915"/><stop offset="0.8708" style="stop-color:#EADA6F" id="stop917"/><stop offset="1" style="stop-color:#FFFFBF" id="stop919"/></linearGradient><path fill="url(#SVGID_9_)" d="M46.869,91.209c0,0-8.938,10.106-3.879,15.044c5.061,4.936,5.408,7.745,4.219,12.757      c-1.188,5.014,9.951-10.105,4.893-15.04C47.041,99.033,46.869,91.209,46.869,91.209z" id="path922"/><path fill="#D8962D" d="M47.353,120.264C47.352,120.264,47.352,120.264,47.353,120.264c-0.143,0-0.268-0.06-0.353-0.167      c-0.163-0.206-0.173-0.559-0.034-1.145c1.205-5.078,0.759-7.732-4.15-12.52c-5.169-5.046,3.495-14.969,3.866-15.389l0.423-0.478      l0.015,0.638c0.002,0.077,0.23,7.782,5.157,12.587c1.801,1.757,1.857,5.017,0.162,9.18      C50.996,116.515,48.381,120.264,47.353,120.264z M46.66,91.848c-1.654,2.035-7.717,10.105-3.495,14.226      c5.153,5.026,5.484,7.947,4.287,12.993c-0.106,0.448-0.085,0.632-0.069,0.694c0.579-0.11,3.011-3.092,4.594-6.979      c0.936-2.294,2.17-6.467-0.05-8.633C47.692,100.018,46.83,93.83,46.66,91.848z" id="path924"/></g><path fill="#D8962D" d="M48.032,119.864l-0.486-0.115c0.26-1.096,0.636-2.205,0.999-3.277c1.341-3.953,2.607-7.687-1.243-11.445     c-5.133-5.008-0.7-13.844-0.655-13.932l0.445,0.228c-0.044,0.085-4.31,8.597,0.56,13.347c4.077,3.978,2.699,8.037,1.367,11.963     C48.658,117.694,48.286,118.791,48.032,119.864z" id="path928"/></g></g><g id="g949"><radialGradient id="SVGID_10_" cx="148.9883" cy="78.5" r="3.5946" fx="148.656" fy="78.5301" gradientTransform="matrix(1 0 0 -1 -100.9902 199.4004)" gradientUnits="userSpaceOnUse"><stop offset="0" style="stop-color:#FFFFBF" id="stop934"/><stop offset="0.1369" style="stop-color:#F9F3AE" id="stop936"/><stop offset="0.4091" style="stop-color:#E8D381" id="stop938"/><stop offset="0.7872" style="stop-color:#CEA139" id="stop940"/><stop offset="1" style="stop-color:#BE820E" id="stop942"/></radialGradient><rect x="45.945" y="119.996" fill="url(#SVGID_10_)" width="6.11" height="3.312" id="rect945"/><path fill="#D8962D" d="M52.205,123.457h-6.41v-3.611h6.41V123.457z M46.096,123.156h5.808v-3.011h-5.808V123.156z" id="path947"/></g><g id="g966"><radialGradient id="SVGID_11_" cx="148.0234" cy="312.4229" r="6.3116" fx="147.44" fy="312.4758" gradientTransform="matrix(1 0 0 -0.6913 -100.9902 334.3099)" gradientUnits="userSpaceOnUse"><stop offset="0" style="stop-color:#FFFFBF" id="stop951"/><stop offset="0.1369" style="stop-color:#F9F3AE" id="stop953"/><stop offset="0.4091" style="stop-color:#E8D381" id="stop955"/><stop offset="0.7872" style="stop-color:#CEA139" id="stop957"/><stop offset="1" style="stop-color:#BE820E" id="stop959"/></radialGradient><rect x="43.004" y="117.743" fill="url(#SVGID_11_)" width="11.994" height="2.162" id="rect962"/><path fill="#D8962D" d="M55.148,120.055H42.854v-2.462h12.294V120.055L55.148,120.055z M43.154,119.755h11.694v-1.862H43.154    V119.755z" id="path964"/></g><g id="g983"><radialGradient id="SVGID_12_" cx="147.0039" cy="71.3823" r="13.6556" fx="145.7416" fy="71.4969" gradientTransform="matrix(1 0 0 -1 -100.9902 199.4004)" gradientUnits="userSpaceOnUse"><stop offset="0" style="stop-color:#FFFFBF" id="stop968"/><stop offset="0.1369" style="stop-color:#F9F3AE" id="stop970"/><stop offset="0.4091" style="stop-color:#E8D381" id="stop972"/><stop offset="0.7872" style="stop-color:#CEA139" id="stop974"/><stop offset="1" style="stop-color:#BE820E" id="stop976"/></radialGradient><circle fill="url(#SVGID_12_)" cx="49" cy="132.148" r="9.1" id="circle979"/><path fill="#D8962D" d="M49.002,141.4c-5.102,0-9.252-4.15-9.252-9.252c0-5.1,4.15-9.25,9.252-9.25c5.1,0,9.248,4.149,9.248,9.25    C58.25,137.25,54.102,141.4,49.002,141.4z M49.002,123.197c-4.936,0-8.951,4.016-8.951,8.951s4.016,8.951,8.951,8.951    c4.934,0,8.947-4.016,8.947-8.951S53.936,123.197,49.002,123.197z" id="path981"/></g></g><g id="g1247"><g id="g1114"><g id="g1010"><linearGradient id="SVGID_13_" gradientUnits="userSpaceOnUse" x1="118.2471" y1="40.5786" x2="183.7344" y2="40.5786" gradientTransform="matrix(1 0 0 -1 -100.9902 199.4004)"><stop offset="0.0056" style="stop-color:#FBCA11" id="stop987"/><stop offset="0.2528" style="stop-color:#FFFFBF" id="stop989"/><stop offset="0.2997" style="stop-color:#F9F3AE" id="stop991"/><stop offset="0.393" style="stop-color:#E8D381" id="stop993"/><stop offset="0.5226" style="stop-color:#CEA139" id="stop995"/><stop offset="0.5955" style="stop-color:#BE820E" id="stop997"/><stop offset="0.8558" style="stop-color:#E8D56A" id="stop999"/><stop offset="0.8708" style="stop-color:#EADA6F" id="stop1001"/><stop offset="1" style="stop-color:#FFFFBF" id="stop1003"/></linearGradient><path fill="url(#SVGID_13_)" d="M79.732,170.144l0.004-0.003c-51.388-17.568-62.479-29.988-62.479-29.988     s-0.664,12.324,58.302,32.376c-0.143,0.395-0.232,0.813-0.232,1.254c0,2.049,1.66,3.709,3.709,3.709s3.709-1.66,3.709-3.709     C82.743,171.973,81.447,170.471,79.732,170.144z" id="path1006"/><path fill="#BE820E" d="M79.034,177.739c-2.183,0-3.959-1.774-3.959-3.957c0-0.361,0.055-0.723,0.167-1.098     c-58.236-19.837-58.263-32.036-58.235-32.547l0.033-0.604l0.403,0.451c0.11,0.125,11.686,12.588,62.375,29.919l0.01,0.002     c1.837,0.375,3.165,1.996,3.165,3.875C82.993,175.965,81.217,177.739,79.034,177.739z M17.671,140.902     c1.004,2.931,8.09,14.429,57.968,31.39l0.24,0.082l-0.086,0.238c-0.146,0.408-0.218,0.789-0.218,1.17     c0,1.906,1.552,3.457,3.459,3.457s3.459-1.551,3.459-3.457c0-1.655-1.181-3.084-2.808-3.395l-0.556-0.105l0.078-0.06     C34.884,155.025,20.578,143.558,17.671,140.902z" id="path1008"/></g><g id="g1035"><linearGradient id="SVGID_14_" gradientUnits="userSpaceOnUse" x1="459.5039" y1="-332.3335" x2="463.5018" y2="-338.1104" gradientTransform="matrix(0.3933 -0.9194 -0.9194 -0.3933 -424.3029 460.0961)"><stop offset="0.0056" style="stop-color:#FBCA11" id="stop1012"/><stop offset="0.2528" style="stop-color:#FFFFBF" id="stop1014"/><stop offset="0.2997" style="stop-color:#F9F3AE" id="stop1016"/><stop offset="0.393" style="stop-color:#E8D381" id="stop1018"/><stop offset="0.5226" style="stop-color:#CEA139" id="stop1020"/><stop offset="0.5955" style="stop-color:#BE820E" id="stop1022"/><stop offset="0.8558" style="stop-color:#E8D56A" id="stop1024"/><stop offset="0.8708" style="stop-color:#EADA6F" id="stop1026"/><stop offset="1" style="stop-color:#FFFFBF" id="stop1028"/></linearGradient><path fill="url(#SVGID_14_)" d="M67.059,169.873c0,0-2.647-2.563-5.597-4.011c3.056,0.774,7.25,0.391,7.25,0.391" id="path1031"/><path fill="#BE820E" d="M67.059,170.123c-0.063,0-0.125-0.022-0.175-0.07c-0.026-0.024-2.653-2.555-5.532-3.966l0.172-0.467     c2.979,0.755,7.125,0.388,7.166,0.384c0.134-0.017,0.26,0.089,0.271,0.228c0.014,0.137-0.089,0.258-0.227,0.271     c-0.145,0.014-3.047,0.272-5.786-0.104c2.358,1.442,4.261,3.273,4.282,3.295c0.101,0.096,0.103,0.256,0.006,0.354     C67.188,170.098,67.123,170.123,67.059,170.123z" id="path1033"/></g><g id="g1112"><g id="g1060"><linearGradient id="SVGID_15_" gradientUnits="userSpaceOnUse" x1="130.6631" y1="-113.8184" x2="134.5332" y2="-119.4106" gradientTransform="matrix(0.9978 0.0658 0.0658 -0.9978 -55.4095 43.7544)"><stop offset="0.0056" style="stop-color:#FBCA11" id="stop1037"/><stop offset="0.2528" style="stop-color:#FFFFBF" id="stop1039"/><stop offset="0.2997" style="stop-color:#F9F3AE" id="stop1041"/><stop offset="0.393" style="stop-color:#E8D381" id="stop1043"/><stop offset="0.5226" style="stop-color:#CEA139" id="stop1045"/><stop offset="0.5955" style="stop-color:#BE820E" id="stop1047"/><stop offset="0.8558" style="stop-color:#E8D56A" id="stop1049"/><stop offset="0.8708" style="stop-color:#EADA6F" id="stop1051"/><stop offset="1" style="stop-color:#FFFFBF" id="stop1053"/></linearGradient><polygon fill="url(#SVGID_15_)" points="71.682,163.403 67.2,167.704 66.766,174.272 71.477,169.587     " id="polygon1056"/><path fill="#BE820E" d="M66.473,174.916l0.484-7.325l4.994-4.795l-0.229,6.898l-0.07,0.069L66.473,174.916z M67.443,167.817      l-0.385,5.811l4.17-4.146l0.182-5.472L67.443,167.817z" id="path1058"/></g><g id="g1085"><linearGradient id="SVGID_16_" gradientUnits="userSpaceOnUse" x1="111.7031" y1="-120.9893" x2="113.916" y2="-124.1869" gradientTransform="matrix(0.9928 0.1194 0.1194 -0.9928 -30.5907 39.0974)"><stop offset="0.0056" style="stop-color:#FBCA11" id="stop1062"/><stop offset="0.2528" style="stop-color:#FFFFBF" id="stop1064"/><stop offset="0.2997" style="stop-color:#F9F3AE" id="stop1066"/><stop offset="0.393" style="stop-color:#E8D381" id="stop1068"/><stop offset="0.5226" style="stop-color:#CEA139" id="stop1070"/><stop offset="0.5955" style="stop-color:#BE820E" id="stop1072"/><stop offset="0.8558" style="stop-color:#E8D56A" id="stop1074"/><stop offset="0.8708" style="stop-color:#EADA6F" id="stop1076"/><stop offset="1" style="stop-color:#FFFFBF" id="stop1078"/></linearGradient><circle fill="url(#SVGID_16_)" cx="66.768" cy="174.273" r="1.944" id="circle1081"/><path fill="#BE820E" d="M66.77,176.468c-0.088,0-0.176-0.005-0.265-0.016c-0.583-0.07-1.104-0.363-1.465-0.823      c-0.362-0.461-0.522-1.035-0.451-1.618c0.144-1.188,1.218-2.059,2.438-1.916c0.582,0.068,1.103,0.362,1.465,0.823      c0.361,0.46,0.521,1.034,0.451,1.616C68.813,175.637,67.878,176.468,66.77,176.468z M66.764,172.579      c-0.854,0-1.576,0.642-1.679,1.492c-0.056,0.449,0.069,0.893,0.349,1.248c0.28,0.354,0.682,0.582,1.133,0.637      c0.935,0.105,1.772-0.563,1.883-1.48c0.054-0.449-0.07-0.894-0.35-1.248c-0.279-0.357-0.682-0.582-1.132-0.637      C66.898,172.583,66.831,172.579,66.764,172.579z" id="path1083"/></g><g id="g1110"><linearGradient id="SVGID_17_" gradientUnits="userSpaceOnUse" x1="115.2822" y1="-109.6074" x2="117.4962" y2="-112.8067" gradientTransform="matrix(0.9928 0.1194 0.1194 -0.9928 -30.5907 39.0974)"><stop offset="0.0056" style="stop-color:#FBCA11" id="stop1087"/><stop offset="0.2528" style="stop-color:#FFFFBF" id="stop1089"/><stop offset="0.2997" style="stop-color:#F9F3AE" id="stop1091"/><stop offset="0.393" style="stop-color:#E8D381" id="stop1093"/><stop offset="0.5226" style="stop-color:#CEA139" id="stop1095"/><stop offset="0.5955" style="stop-color:#BE820E" id="stop1097"/><stop offset="0.8558" style="stop-color:#E8D56A" id="stop1099"/><stop offset="0.8708" style="stop-color:#EADA6F" id="stop1101"/><stop offset="1" style="stop-color:#FFFFBF" id="stop1103"/></linearGradient><circle fill="url(#SVGID_17_)" cx="71.682" cy="163.402" r="1.945" id="circle1106"/><path fill="#BE820E" d="M71.684,165.597c-0.086,0-0.176-0.005-0.264-0.016c-1.202-0.146-2.063-1.24-1.918-2.44      c0.143-1.188,1.234-2.063,2.441-1.917c1.201,0.145,2.062,1.238,1.916,2.439C73.73,164.766,72.794,165.597,71.684,165.597z       M71.682,161.708c-0.857,0-1.58,0.641-1.684,1.492c-0.111,0.927,0.554,1.771,1.48,1.885c0.941,0.104,1.776-0.563,1.885-1.48      c0.111-0.929-0.553-1.772-1.479-1.885C71.816,161.712,71.748,161.708,71.682,161.708z" id="path1108"/></g></g></g><g id="g1245"><g id="g1139"><linearGradient id="SVGID_18_" gradientUnits="userSpaceOnUse" x1="1296.6143" y1="1703.5703" x2="1300.96" y2="1703.5703" gradientTransform="matrix(0.4695 1.0759 1.1378 -0.4965 -2498.1025 -392.7214)"><stop offset="0.0056" style="stop-color:#FBCA11" id="stop1116"/><stop offset="0.2528" style="stop-color:#FFFFBF" id="stop1118"/><stop offset="0.2997" style="stop-color:#F9F3AE" id="stop1120"/><stop offset="0.393" style="stop-color:#E8D381" id="stop1122"/><stop offset="0.5226" style="stop-color:#CEA139" id="stop1124"/><stop offset="0.5955" style="stop-color:#BE820E" id="stop1126"/><stop offset="0.8558" style="stop-color:#E8D56A" id="stop1128"/><stop offset="0.8708" style="stop-color:#EADA6F" id="stop1130"/><stop offset="1" style="stop-color:#FFFFBF" id="stop1132"/></linearGradient><polygon fill="url(#SVGID_18_)" points="18.447,175.373 16.477,170.882 81.553,142.27 83.523,146.761    " id="polygon1135"/><path fill="#BE820E" d="M18.319,175.702l-2.172-4.948l65.533-28.814l2.172,4.949L18.319,175.702z M16.806,171.01l1.77,4.034     l64.619-28.412l-1.771-4.034L16.806,171.01z" id="path1137"/></g><g id="g1164"><linearGradient id="SVGID_19_" gradientUnits="userSpaceOnUse" x1="308.6172" y1="-96.6206" x2="312.6416" y2="-96.6206" gradientTransform="matrix(0.9139 -0.406 -0.406 -0.9139 -300.352 208.7341)"><stop offset="0.0056" style="stop-color:#FBCA11" id="stop1141"/><stop offset="0.2528" style="stop-color:#FFFFBF" id="stop1143"/><stop offset="0.2997" style="stop-color:#F9F3AE" id="stop1145"/><stop offset="0.393" style="stop-color:#E8D381" id="stop1147"/><stop offset="0.5226" style="stop-color:#CEA139" id="stop1149"/><stop offset="0.5955" style="stop-color:#BE820E" id="stop1151"/><stop offset="0.8558" style="stop-color:#E8D56A" id="stop1153"/><stop offset="0.8708" style="stop-color:#EADA6F" id="stop1155"/><stop offset="1" style="stop-color:#FFFFBF" id="stop1157"/></linearGradient><path fill="url(#SVGID_19_)" d="M25.247,171.562c0.375,0.846-0.005,1.832-0.849,2.207l-0.623,0.276     c-0.843,0.375-1.832-0.005-2.206-0.849l-1.296-2.916c-0.375-0.844,0.005-1.832,0.85-2.205l0.622-0.278     c0.845-0.374,1.833,0.006,2.207,0.851L25.247,171.562z" id="path1160"/><path fill="#BE820E" d="M23.098,174.44c-0.76,0-1.449-0.449-1.757-1.142l-1.296-2.917c-0.209-0.471-0.222-0.991-0.037-1.471     c0.185-0.479,0.545-0.856,1.014-1.064l0.621-0.277c0.249-0.109,0.511-0.166,0.78-0.166c0.761,0,1.45,0.449,1.758,1.143     l1.295,2.915c0.43,0.969-0.008,2.106-0.976,2.537l-0.623,0.276C23.629,174.384,23.367,174.44,23.098,174.44z M22.423,167.903     c-0.199,0-0.393,0.041-0.576,0.121l-0.621,0.278c-0.349,0.154-0.615,0.435-0.751,0.787c-0.137,0.354-0.127,0.739,0.027,1.088     l1.296,2.917c0.308,0.693,1.175,1.035,1.876,0.721l0.623-0.275c0.716-0.318,1.04-1.16,0.722-1.877l-1.295-2.915     C23.496,168.235,22.985,167.903,22.423,167.903z" id="path1162"/></g><g id="g1218"><g id="g1190"><g id="g1170"><line fill="none" x1="74.134" y1="145.382" x2="76.104" y2="149.873" id="line1166"/><rect x="72.669" y="147.375" transform="matrix(-0.4019 -0.9157 0.9157 -0.4019 -29.8678 275.7408)" fill="#BE820E" width="4.904" height="0.499" id="rect1168"/></g><g id="g1176"><line fill="none" x1="73.355" y1="145.722" x2="75.328" y2="150.213" id="line1172"/><rect x="71.897" y="147.717" transform="matrix(-0.4022 -0.9155 0.9155 -0.4022 -31.2157 275.5521)" fill="#BE820E" width="4.904" height="0.499" id="rect1174"/></g><g id="g1182"><line fill="none" x1="72.578" y1="146.063" x2="74.551" y2="150.554" id="line1178"/><rect x="71.115" y="148.06" transform="matrix(-0.4021 -0.9156 0.9156 -0.4021 -32.6461 275.3)" fill="#BE820E" width="4.906" height="0.498" id="rect1180"/></g><g id="g1188"><line fill="none" x1="71.802" y1="146.402" x2="73.771" y2="150.896" id="line1184"/><rect x="70.326" y="148.398" transform="matrix(-0.4017 -0.9158 0.9158 -0.4017 -34.1085 275.0118)" fill="#BE820E" width="4.905" height="0.499" id="rect1186"/></g></g><g id="g1216"><g id="g1196"><line fill="none" x1="27.375" y1="165.954" x2="29.347" y2="170.446" id="line1192"/><rect x="25.916" y="167.953" transform="matrix(-0.4021 -0.9156 0.9156 -0.4021 -114.2348 261.8026)" fill="#BE820E" width="4.904" height="0.499" id="rect1194"/></g><g id="g1202"><line fill="none" x1="26.599" y1="166.295" x2="28.569" y2="170.786" id="line1198"/><rect x="25.123" y="168.287" transform="matrix(-0.4017 -0.9158 0.9158 -0.4017 -115.6837 261.4971)" fill="#BE820E" width="4.905" height="0.499" id="rect1200"/></g><g id="g1208"><line fill="none" x1="25.821" y1="166.637" x2="27.792" y2="171.129" id="line1204"/><rect x="24.347" y="168.629" transform="matrix(-0.4017 -0.9158 0.9158 -0.4017 -117.0849 261.2653)" fill="#BE820E" width="4.905" height="0.499" id="rect1206"/></g><g id="g1214"><line fill="none" x1="25.043" y1="166.979" x2="27.013" y2="171.471" id="line1210"/><rect x="23.58" y="168.978" transform="matrix(-0.4016 -0.9158 0.9158 -0.4016 -118.4966 261.0258)" fill="#BE820E" width="4.905" height="0.499" id="rect1212"/></g></g></g><g id="g1243"><linearGradient id="SVGID_20_" gradientUnits="userSpaceOnUse" x1="369.4307" y1="-96.6221" x2="373.4551" y2="-96.6221" gradientTransform="matrix(0.9139 -0.406 -0.406 -0.9139 -300.352 208.7341)"><stop offset="0.0056" style="stop-color:#FBCA11" id="stop1220"/><stop offset="0.2528" style="stop-color:#FFFFBF" id="stop1222"/><stop offset="0.2997" style="stop-color:#F9F3AE" id="stop1224"/><stop offset="0.393" style="stop-color:#E8D381" id="stop1226"/><stop offset="0.5226" style="stop-color:#CEA139" id="stop1228"/><stop offset="0.5955" style="stop-color:#BE820E" id="stop1230"/><stop offset="0.8558" style="stop-color:#E8D56A" id="stop1232"/><stop offset="0.8708" style="stop-color:#EADA6F" id="stop1234"/><stop offset="1" style="stop-color:#FFFFBF" id="stop1236"/></linearGradient><path fill="url(#SVGID_20_)" d="M80.825,146.874c0.375,0.844-0.005,1.829-0.851,2.206l-0.621,0.275     c-0.845,0.377-1.832-0.004-2.207-0.849l-1.295-2.917c-0.375-0.844,0.006-1.831,0.849-2.205l0.624-0.277     c0.842-0.375,1.83,0.006,2.205,0.85L80.825,146.874z" id="path1239"/><path fill="#BE820E" d="M78.675,149.752c-0.758,0-1.446-0.448-1.756-1.143l-1.296-2.916c-0.208-0.47-0.223-0.992-0.037-1.471     s0.544-0.857,1.014-1.064l0.623-0.277c0.248-0.109,0.51-0.166,0.778-0.166c0.761,0,1.449,0.447,1.758,1.143l1.296,2.916     c0.43,0.967-0.009,2.105-0.978,2.537l-0.622,0.275C79.207,149.695,78.943,149.752,78.675,149.752z M78.001,143.214     c-0.198,0-0.392,0.042-0.575,0.123l-0.624,0.276c-0.347,0.154-0.612,0.435-0.749,0.789c-0.137,0.354-0.127,0.74,0.027,1.086     l1.296,2.918c0.31,0.695,1.177,1.033,1.876,0.722l0.622-0.276c0.717-0.318,1.041-1.16,0.724-1.875l-1.296-2.918     C79.074,143.546,78.563,143.214,78.001,143.214z" id="path1241"/></g></g></g><g id="g1429"><g id="g1337"><g id="g1291"><g id="g1272"><linearGradient id="SVGID_21_" gradientUnits="userSpaceOnUse" x1="130.5752" y1="-34.064" x2="171.4082" y2="-34.064" gradientTransform="matrix(1 0 0 -1 -100.9902 199.4004)"><stop offset="0.0056" style="stop-color:#FBCA11" id="stop1249"/><stop offset="0.2528" style="stop-color:#FFFFBF" id="stop1251"/><stop offset="0.2997" style="stop-color:#F9F3AE" id="stop1253"/><stop offset="0.393" style="stop-color:#E8D381" id="stop1255"/><stop offset="0.5226" style="stop-color:#CEA139" id="stop1257"/><stop offset="0.5955" style="stop-color:#BE820E" id="stop1259"/><stop offset="0.8558" style="stop-color:#E8D56A" id="stop1261"/><stop offset="0.8708" style="stop-color:#EADA6F" id="stop1263"/><stop offset="1" style="stop-color:#FFFFBF" id="stop1265"/></linearGradient><polygon fill="url(#SVGID_21_)" points="60.209,251.179 58.647,250.026 50,243.642 41.35,249.972 39.794,251.11 40.001,249.192       41.161,238.534 31.35,234.206 29.585,233.429 31.35,232.651 41.161,228.325 40.001,217.668 39.794,215.75 41.35,216.889       50.004,223.223 58.653,216.944 60.204,215.817 60,217.724 58.842,228.383 68.653,232.709 70.418,233.485 68.653,234.264       58.842,238.592 60,249.251     " id="polygon1268"/><path fill="#BE820E" d="M60.518,251.719l-10.521-7.767l-10.514,7.693l1.407-12.957l-11.928-5.261l11.928-5.259l-1.407-12.956      l10.521,7.698l10.508-7.629l-1.402,12.943l11.928,5.26l-11.928,5.26L60.518,251.719z M50,243.331l9.898,7.308l-1.326-12.202      l0.168-0.072l11.057-4.877l-11.225-4.948l1.323-12.188l-9.894,7.184l-9.898-7.246l1.325,12.193l-0.168,0.073l-11.057,4.875      l11.225,4.95l-0.021,0.184l-1.307,12.012L50,243.331z" id="path1270"/></g><linearGradient id="SVGID_22_" gradientUnits="userSpaceOnUse" x1="132.6826" y1="-34.0586" x2="169.2969" y2="-34.0586" gradientTransform="matrix(1 0 0 -1 -100.9902 199.4004)"><stop offset="0.3876" style="stop-color:#E6E6E6" id="stop1274"/><stop offset="0.5623" style="stop-color:#CFCFCF" id="stop1276"/><stop offset="0.7419" style="stop-color:#B3B3B3" id="stop1278"/><stop offset="0.8003" style="stop-color:#B9B9B9" id="stop1280"/><stop offset="0.8773" style="stop-color:#C9C9C9" id="stop1282"/><stop offset="0.9642" style="stop-color:#E5E5E5" id="stop1284"/><stop offset="1" style="stop-color:#F2F2F2" id="stop1286"/></linearGradient><polygon fill="url(#SVGID_22_)" points="57.928,238.065 68.307,233.487 57.926,228.909 59.153,217.633 50.002,224.276      40.846,217.575 42.073,228.854 31.692,233.43 42.073,238.008 42.073,238.008 40.846,249.284 50.002,242.584 59.153,249.343         " id="polygon1289"/></g><g id="g1335"><g id="g1316"><linearGradient id="SVGID_23_" gradientUnits="userSpaceOnUse" x1="145.6455" y1="-34.0581" x2="156.3828" y2="-34.0581" gradientTransform="matrix(1 0 0 -1 -100.9902 199.4004)"><stop offset="0.0056" style="stop-color:#FBCA11" id="stop1293"/><stop offset="0.2528" style="stop-color:#FFFFBF" id="stop1295"/><stop offset="0.2997" style="stop-color:#F9F3AE" id="stop1297"/><stop offset="0.393" style="stop-color:#E8D381" id="stop1299"/><stop offset="0.5226" style="stop-color:#CEA139" id="stop1301"/><stop offset="0.5955" style="stop-color:#BE820E" id="stop1303"/><stop offset="0.8558" style="stop-color:#E8D56A" id="stop1305"/><stop offset="0.8708" style="stop-color:#EADA6F" id="stop1307"/><stop offset="1" style="stop-color:#FFFFBF" id="stop1309"/></linearGradient><circle fill="url(#SVGID_23_)" cx="50.024" cy="233.458" r="5.369" id="circle1312"/><path fill="#D8962D" d="M50.024,239.079c-3.1,0-5.619-2.521-5.619-5.62s2.521-5.619,5.619-5.619      c3.098,0,5.618,2.521,5.618,5.619C55.643,236.557,53.123,239.079,50.024,239.079z M50.024,228.34      c-2.822,0-5.119,2.297-5.119,5.119c0,2.823,2.297,5.12,5.119,5.12c2.821,0,5.118-2.297,5.118-5.12      C55.143,230.637,52.846,228.34,50.024,228.34z" id="path1314"/></g><g id="g1333"><radialGradient id="SVGID_24_" cx="148.4414" cy="-30.7681" r="7.8154" gradientTransform="matrix(1 0 0 -1 -100.9902 199.4004)" gradientUnits="userSpaceOnUse"><stop offset="0" style="stop-color:#FFFFBF" id="stop1318"/><stop offset="0.1369" style="stop-color:#F9F3AE" id="stop1320"/><stop offset="0.4091" style="stop-color:#E8D381" id="stop1322"/><stop offset="0.7872" style="stop-color:#CEA139" id="stop1324"/><stop offset="1" style="stop-color:#BE820E" id="stop1326"/></radialGradient><path fill="url(#SVGID_24_)" d="M50.024,237.411c-2.179,0-3.951-1.772-3.951-3.951c0-2.18,1.772-3.952,3.951-3.952      c2.18,0,3.952,1.772,3.952,3.952C53.977,235.639,52.204,237.411,50.024,237.411L50.024,237.411z" id="path1329"/><path fill="#D8962D" d="M50.024,237.562c-2.263,0-4.103-1.84-4.103-4.102s1.84-4.104,4.103-4.104s4.104,1.842,4.104,4.104      S52.287,237.562,50.024,237.562z M50.024,229.657c-2.097,0-3.802,1.705-3.802,3.803c0,2.096,1.705,3.801,3.802,3.801      s3.803-1.705,3.803-3.801C53.827,231.362,52.121,229.657,50.024,229.657z" id="path1331"/></g></g></g><g id="g1427"><g id="g1381"><g id="g1362"><linearGradient id="SVGID_25_" gradientUnits="userSpaceOnUse" x1="130.5742" y1="3.4961" x2="171.4063" y2="3.4961" gradientTransform="matrix(1 0 0 -1 -100.9902 199.4004)"><stop offset="0.0056" style="stop-color:#FBCA11" id="stop1339"/><stop offset="0.2528" style="stop-color:#FFFFBF" id="stop1341"/><stop offset="0.2997" style="stop-color:#F9F3AE" id="stop1343"/><stop offset="0.393" style="stop-color:#E8D381" id="stop1345"/><stop offset="0.5226" style="stop-color:#CEA139" id="stop1347"/><stop offset="0.5955" style="stop-color:#BE820E" id="stop1349"/><stop offset="0.8558" style="stop-color:#E8D56A" id="stop1351"/><stop offset="0.8708" style="stop-color:#EADA6F" id="stop1353"/><stop offset="1" style="stop-color:#FFFFBF" id="stop1355"/></linearGradient><polygon fill="url(#SVGID_25_)" points="60.209,213.618 58.646,212.466 49.998,206.077 41.347,212.409 39.791,213.549       40,211.633 41.16,200.973 31.347,196.646 29.584,195.868 31.35,195.091 41.16,190.766 40,180.106 39.791,178.19 41.347,179.327       50.004,185.663 58.654,179.384 60.205,178.256 60,180.163 58.838,190.823 68.65,195.149 70.416,195.926 68.652,196.702       58.84,201.03 60,211.69     " id="polygon1358"/><path fill="#BE820E" d="M60.519,214.157l-10.521-7.771l-10.516,7.697l1.41-12.957l-11.929-5.261l11.929-5.258l-1.41-12.957      l10.522,7.701l10.51-7.633l-1.407,12.946l11.931,5.258l-11.929,5.261L60.519,214.157z M49.999,205.767l9.9,7.313l-1.328-12.203      l0.168-0.073l11.058-4.876l-11.228-4.947l0.021-0.183l1.308-12.006l-9.895,7.183l-9.901-7.246l1.327,12.194l-0.168,0.073      l-11.057,4.873l11.225,4.949l-0.021,0.184l-1.308,12.013L49.999,205.767z" id="path1360"/></g><linearGradient id="SVGID_26_" gradientUnits="userSpaceOnUse" x1="132.6816" y1="3.502" x2="169.2969" y2="3.502" gradientTransform="matrix(1 0 0 -1 -100.9902 199.4004)"><stop offset="0.3876" style="stop-color:#E6E6E6" id="stop1364"/><stop offset="0.5623" style="stop-color:#CFCFCF" id="stop1366"/><stop offset="0.7419" style="stop-color:#B3B3B3" id="stop1368"/><stop offset="0.8003" style="stop-color:#B9B9B9" id="stop1370"/><stop offset="0.8773" style="stop-color:#C9C9C9" id="stop1372"/><stop offset="0.9642" style="stop-color:#E5E5E5" id="stop1374"/><stop offset="1" style="stop-color:#F2F2F2" id="stop1376"/></linearGradient><polygon fill="url(#SVGID_26_)" points="57.928,200.504 68.307,195.927 57.926,191.351 59.152,180.071 50,186.716      40.845,180.015 42.072,191.293 31.691,195.868 42.072,200.446 42.072,200.446 40.845,211.726 50,205.024 59.152,211.782    " id="polygon1379"/></g><g id="g1425"><g id="g1406"><linearGradient id="SVGID_27_" gradientUnits="userSpaceOnUse" x1="145.6445" y1="3.501" x2="156.3828" y2="3.501" gradientTransform="matrix(1 0 0 -1 -100.9902 199.4004)"><stop offset="0.0056" style="stop-color:#FBCA11" id="stop1383"/><stop offset="0.2528" style="stop-color:#FFFFBF" id="stop1385"/><stop offset="0.2997" style="stop-color:#F9F3AE" id="stop1387"/><stop offset="0.393" style="stop-color:#E8D381" id="stop1389"/><stop offset="0.5226" style="stop-color:#CEA139" id="stop1391"/><stop offset="0.5955" style="stop-color:#BE820E" id="stop1393"/><stop offset="0.8558" style="stop-color:#E8D56A" id="stop1395"/><stop offset="0.8708" style="stop-color:#EADA6F" id="stop1397"/><stop offset="1" style="stop-color:#FFFFBF" id="stop1399"/></linearGradient><circle fill="url(#SVGID_27_)" cx="50.023" cy="195.899" r="5.369" id="circle1402"/><path fill="#D8962D" d="M50.023,201.519c-3.1,0-5.619-2.521-5.619-5.619c0-3.1,2.521-5.619,5.619-5.619      c3.098,0,5.619,2.521,5.619,5.619C55.643,198.997,53.123,201.519,50.023,201.519z M50.023,190.778      c-2.822,0-5.119,2.297-5.119,5.119c0,2.823,2.297,5.121,5.119,5.121s5.119-2.298,5.119-5.121      C55.143,193.075,52.846,190.778,50.023,190.778z" id="path1404"/></g><g id="g1423"><radialGradient id="SVGID_28_" cx="148.4404" cy="6.7935" r="7.8158" gradientTransform="matrix(1 0 0 -1 -100.9902 199.4004)" gradientUnits="userSpaceOnUse"><stop offset="0" style="stop-color:#FFFFBF" id="stop1408"/><stop offset="0.1369" style="stop-color:#F9F3AE" id="stop1410"/><stop offset="0.4091" style="stop-color:#E8D381" id="stop1412"/><stop offset="0.7872" style="stop-color:#CEA139" id="stop1414"/><stop offset="1" style="stop-color:#BE820E" id="stop1416"/></radialGradient><path fill="url(#SVGID_28_)" d="M50.023,199.851c-2.179,0-3.951-1.771-3.951-3.951s1.772-3.951,3.951-3.951      c2.18,0,3.953,1.771,3.953,3.951C53.977,198.077,52.203,199.851,50.023,199.851L50.023,199.851z" id="path1419"/><path fill="#D8962D" d="M50.023,200.001c-2.263,0-4.103-1.84-4.103-4.102c0-2.263,1.84-4.104,4.103-4.104      c2.264,0,4.104,1.841,4.104,4.104C54.127,198.161,52.287,200.001,50.023,200.001z M50.023,192.098      c-2.097,0-3.802,1.705-3.802,3.802c0,2.096,1.705,3.801,3.802,3.801c2.098,0,3.803-1.705,3.803-3.801      C53.826,193.803,52.121,192.098,50.023,192.098z" id="path1421"/></g></g></g></g></svg>