<?xml version="1.0" encoding="UTF-8" standalone="no"?>
<!-- Generator: Adobe Illustrator 16.0.3, SVG Export Plug-In . SVG Version: 6.00 Build 0)  -->
<svg xmlns:dc="http://purl.org/dc/elements/1.1/" xmlns:cc="http://creativecommons.org/ns#" xmlns:rdf="http://www.w3.org/1999/02/22-rdf-syntax-ns#" xmlns:svg="http://www.w3.org/2000/svg" xmlns="http://www.w3.org/2000/svg" xmlns:sodipodi="http://sodipodi.sourceforge.net/DTD/sodipodi-0.dtd" xmlns:inkscape="http://www.inkscape.org/namespaces/inkscape" version="1.1" id="Layer_1" x="0px" y="0px" width="100px" height="256px" viewBox="0 0 100 256" enable-background="new 0 0 100 256" xml:space="preserve" sodipodi:docname="Army-GRE-OF-05.svg" inkscape:version="0.92.2 (5c3e80d, 2017-08-06)"><metadata id="metadata2472"><rdf:RDF><cc:Work rdf:about=""><dc:format>image/svg+xml</dc:format><dc:type rdf:resource="http://purl.org/dc/dcmitype/StillImage"/></cc:Work></rdf:RDF></metadata><defs id="defs2470"/><sodipodi:namedview pagecolor="#ffffff" bordercolor="#666666" borderopacity="1" objecttolerance="10" gridtolerance="10" guidetolerance="10" inkscape:pageopacity="0" inkscape:pageshadow="2" inkscape:window-width="1920" inkscape:window-height="1016" id="namedview2468" showgrid="false" inkscape:zoom="0.921875" inkscape:cx="55.423729" inkscape:cy="128" inkscape:window-x="0" inkscape:window-y="27" inkscape:window-maximized="1" inkscape:current-layer="Layer_1"/><polygon fill="#2D2D2B" points="100,256 0,256 7,30 50,0 93,30 " id="polygon1928" style="fill:#3f4845;fill-opacity:1"/><g id="g1938"><g id="g1932"><path d="M44.988,65.288V27.401c0-2.768,2.244-5.01,5.01-5.01l0,0c2.766,0,5.01,2.242,5.012,5.01l0,0v37.887h-0.002    c0,2.766-2.244,5.008-5.01,5.008l0,0C47.232,70.295,44.988,68.053,44.988,65.288L44.988,65.288z M45.988,27.401l-0.002,37.887    c0.006,2.213,1.797,4.006,4.012,4.01l0,0c2.215-0.004,4.008-1.797,4.012-4.01l0,0V27.401c-0.004-2.215-1.797-4.006-4.012-4.01l0,0    C47.783,23.395,45.992,25.186,45.988,27.401L45.988,27.401z" id="path1930"/></g><g id="g1936"><path d="M49.609,65.985l-0.223-39.277c-0.002-0.277,0.221-0.502,0.496-0.504l0,0c0.277-0.002,0.502,0.221,0.504,0.498l0,0    l0.223,39.277c0.002,0.277-0.221,0.502-0.497,0.504l0,0c-0.002,0-0.004,0-0.004,0l0,0C49.834,66.483,49.611,66.26,49.609,65.985    L49.609,65.985z" id="path1934"/></g></g><g id="g1980"><g id="g1978"><g id="g1963"><linearGradient id="SVGID_1_" gradientUnits="userSpaceOnUse" x1="-973.0171" y1="228.4209" x2="-954.3817" y2="247.0564" gradientTransform="matrix(0 -1 -1 0 287.7402 -930.6992)"><stop offset="0.0056" style="stop-color:#FBCA11" id="stop1940"/><stop offset="0.2528" style="stop-color:#FFFFBF" id="stop1942"/><stop offset="0.2997" style="stop-color:#F9F3AE" id="stop1944"/><stop offset="0.393" style="stop-color:#E8D381" id="stop1946"/><stop offset="0.5226" style="stop-color:#CEA139" id="stop1948"/><stop offset="0.5955" style="stop-color:#BE820E" id="stop1950"/><stop offset="0.8558" style="stop-color:#E8D56A" id="stop1952"/><stop offset="0.8708" style="stop-color:#EADA6F" id="stop1954"/><stop offset="1" style="stop-color:#FFFFBF" id="stop1956"/></linearGradient><circle fill="url(#SVGID_1_)" cx="50" cy="33" r="13.177" id="circle1959"/><path fill="#D8962D" d="M50,46.427c-7.403,0-13.426-6.023-13.426-13.426c0-7.405,6.022-13.429,13.426-13.429     c7.404,0,13.426,6.024,13.426,13.429C63.426,40.404,57.402,46.427,50,46.427z M50,20.073c-7.127,0-12.926,5.8-12.926,12.929     c0,7.127,5.799,12.926,12.926,12.926s12.926-5.798,12.926-12.926C62.926,25.873,57.127,20.073,50,20.073z" id="path1961"/></g><radialGradient id="SVGID_2_" cx="-963.6992" cy="237.7402" r="11.0974" gradientTransform="matrix(0 -1 -1 0 287.7402 -930.6992)" gradientUnits="userSpaceOnUse"><stop offset="0" style="stop-color:#FFFFBF" id="stop1965"/><stop offset="0.1369" style="stop-color:#F9F3AE" id="stop1967"/><stop offset="0.4091" style="stop-color:#E8D381" id="stop1969"/><stop offset="0.7872" style="stop-color:#CEA139" id="stop1971"/><stop offset="1" style="stop-color:#BE820E" id="stop1973"/></radialGradient><path fill="url(#SVGID_2_)" d="M38.904,33.005c0.006,6.133,4.965,11.087,11.094,11.094l0,0    c6.129-0.007,11.084-4.961,11.098-11.094l0,0c-0.014-6.126-4.969-11.091-11.098-11.104l0,0    C43.869,21.915,38.91,26.879,38.904,33.005L38.904,33.005z" id="path1976"/></g></g><g id="g2238"><g id="g2185"><g id="g2009"><g id="g2005"><linearGradient id="SVGID_3_" gradientUnits="userSpaceOnUse" x1="-2016.8105" y1="-61.8145" x2="-2002.7734" y2="-61.8145" gradientTransform="matrix(-0.9936 0.1125 -0.1125 -0.9936 -1950.2565 248.3827)"><stop offset="0.0056" style="stop-color:#FBCA11" id="stop1982"/><stop offset="0.2528" style="stop-color:#FFFFBF" id="stop1984"/><stop offset="0.2997" style="stop-color:#F9F3AE" id="stop1986"/><stop offset="0.393" style="stop-color:#E8D381" id="stop1988"/><stop offset="0.5226" style="stop-color:#CEA139" id="stop1990"/><stop offset="0.5955" style="stop-color:#BE820E" id="stop1992"/><stop offset="0.8558" style="stop-color:#E8D56A" id="stop1994"/><stop offset="0.8708" style="stop-color:#EADA6F" id="stop1996"/><stop offset="1" style="stop-color:#FFFFBF" id="stop1998"/></linearGradient><path fill="url(#SVGID_3_)" d="M57.045,69.643c0,0,6.621,11.754,0.641,15.524c-5.982,3.766-6.91,6.438-6.797,11.586      c0.111,5.154-7.612-11.963-1.633-15.729C55.236,77.259,57.045,69.643,57.045,69.643z" id="path2001"/><path fill="#D8962D" d="M50.586,97.964c-0.962,0-2.308-3.416-2.929-5.569c-0.611-2.114-2.31-9.203,1.466-11.581      c5.82-3.667,7.66-11.152,7.68-11.229l0.146-0.62l0.313,0.556c0.275,0.488,6.668,12.006,0.557,15.857      c-5.803,3.654-6.795,6.154-6.68,11.371c0.012,0.56-0.064,0.902-0.236,1.078C50.816,97.917,50.707,97.964,50.586,97.964z       M57.115,70.312c-0.582,1.902-2.721,7.771-7.726,10.924c-2.748,1.731-2.28,6.354-1.759,8.955      c0.799,3.967,2.429,7.063,2.93,7.264c0.027-0.057,0.088-0.23,0.078-0.694c-0.113-5.185,0.82-7.97,6.914-11.804      C62.545,81.808,58.307,72.648,57.115,70.312z" id="path2003"/></g><path fill="#D8962D" d="M49.905,97.421c-0.023-1.104-0.158-2.252-0.288-3.365c-0.479-4.119-0.978-8.378,3.844-11.414     c5.762-3.628,3.367-12.842,3.344-12.936l0.482-0.129c0.025,0.096,2.508,9.664-3.561,13.486     c-4.555,2.868-4.098,6.785-3.612,10.934c0.131,1.123,0.267,2.285,0.291,3.412L49.905,97.421z" id="path2007"/></g><g id="g2038"><g id="g2034"><linearGradient id="SVGID_4_" gradientUnits="userSpaceOnUse" x1="-903.8008" y1="671.998" x2="-889.7627" y2="671.998" gradientTransform="matrix(0.4975 0.8675 0.8675 -0.4975 -80.8817 1198.2157)"><stop offset="0.0056" style="stop-color:#FBCA11" id="stop2011"/><stop offset="0.2528" style="stop-color:#FFFFBF" id="stop2013"/><stop offset="0.2997" style="stop-color:#F9F3AE" id="stop2015"/><stop offset="0.393" style="stop-color:#E8D381" id="stop2017"/><stop offset="0.5226" style="stop-color:#CEA139" id="stop2019"/><stop offset="0.5955" style="stop-color:#BE820E" id="stop2021"/><stop offset="0.8558" style="stop-color:#E8D56A" id="stop2023"/><stop offset="0.8708" style="stop-color:#EADA6F" id="stop2025"/><stop offset="1" style="stop-color:#FFFFBF" id="stop2027"/></linearGradient><path fill="url(#SVGID_4_)" d="M65.232,74.862c0,0-13.395,1.619-12.891,8.672c0.506,7.051-1.1,9.381-5.315,12.338      c-4.219,2.961,14.149-0.945,13.644-7.996C60.166,80.827,65.232,74.862,65.232,74.862z" id="path2030"/><path fill="#D8962D" d="M47.194,97.12L47.194,97.12c-0.385,0-0.91-0.043-1.028-0.416c-0.122-0.388,0.319-0.758,0.717-1.037      c4.271-2.996,5.701-5.277,5.211-12.115c-0.516-7.207,12.553-8.871,13.109-8.938l0.633-0.078l-0.412,0.486      c-0.051,0.059-4.996,5.973-4.504,12.835c0.098,1.349-0.447,2.673-1.623,3.933C56.27,95.044,49.647,97.12,47.194,97.12z       M46.653,96.564c0.032,0,0.169,0.056,0.541,0.056c2.378,0,8.8-2.013,11.737-5.17c1.074-1.154,1.574-2.351,1.488-3.556      c-0.424-5.899,3.041-11.099,4.23-12.692c-2.588,0.422-12.48,2.43-12.061,8.313c0.516,7.181-1.176,9.583-5.422,12.562      c-0.415,0.293-0.502,0.445-0.52,0.488C46.651,96.564,46.652,96.564,46.653,96.564z" id="path2032"/></g><path fill="#D8962D" d="M47.072,97.06l-0.287-0.408c0.922-0.648,1.939-1.228,2.923-1.787c3.628-2.064,7.056-4.017,6.673-9.384     c-0.512-7.151,8.67-10.815,8.762-10.853l0.182,0.467c-0.088,0.035-8.93,3.566-8.445,10.35c0.406,5.682-3.318,7.803-6.923,9.854     C48.981,95.853,47.976,96.426,47.072,97.06z" id="path2036"/></g><g id="g2067"><g id="g2063"><linearGradient id="SVGID_5_" gradientUnits="userSpaceOnUse" x1="-1261.8037" y1="625.2617" x2="-1247.7646" y2="625.2617" gradientTransform="matrix(0.1986 0.9801 0.9801 -0.1986 -306.4332 1441.4099)"><stop offset="0.0056" style="stop-color:#FBCA11" id="stop2040"/><stop offset="0.2528" style="stop-color:#FFFFBF" id="stop2042"/><stop offset="0.2997" style="stop-color:#F9F3AE" id="stop2044"/><stop offset="0.393" style="stop-color:#E8D381" id="stop2046"/><stop offset="0.5226" style="stop-color:#CEA139" id="stop2048"/><stop offset="0.5955" style="stop-color:#BE820E" id="stop2050"/><stop offset="0.8558" style="stop-color:#E8D56A" id="stop2052"/><stop offset="0.8708" style="stop-color:#EADA6F" id="stop2054"/><stop offset="1" style="stop-color:#FFFFBF" id="stop2056"/></linearGradient><path fill="url(#SVGID_5_)" d="M69.508,79.84c0,0-13.223-2.685-14.965,4.165c-1.744,6.852-4.004,8.559-8.938,10.035      c-4.937,1.479,13.727,3.563,15.469-3.287C62.818,83.903,69.508,79.84,69.508,79.84z" id="path2059"/><path fill="#D8962D" d="M49.889,95.786L49.889,95.786c-0.213,0-5.188-0.014-5.355-1.16c-0.065-0.451,0.54-0.688,1.002-0.825      c4.998-1.496,7.074-3.21,8.768-9.856c0.811-3.188,4.145-4.873,9.645-4.873c3,0,5.586,0.519,5.611,0.523l0.625,0.127      l-0.545,0.332c-0.066,0.041-6.623,4.095-8.32,10.762C60.385,94.479,54.803,95.786,49.889,95.786z M63.947,79.571      c-3.658,0-8.217,0.78-9.162,4.496c-1.775,6.979-4.139,8.725-9.106,10.213c-0.577,0.172-0.653,0.307-0.653,0.31      c0.139,0.219,1.882,0.696,4.863,0.698h0.001c4.726,0,10.083-1.207,10.942-4.594c1.461-5.734,6.391-9.578,8.02-10.715      C67.922,79.827,66.037,79.571,63.947,79.571z" id="path2061"/></g><path fill="#D8962D" d="M45.276,95.18L45.131,94.7c1.08-0.324,2.229-0.553,3.34-0.773c4.094-0.814,7.961-1.586,9.287-6.799     c1.771-6.951,11.639-7.533,11.736-7.538l0.025,0.499c-0.096,0.005-9.6,0.568-11.277,7.162c-1.404,5.519-5.607,6.356-9.675,7.166     C47.47,94.637,46.332,94.862,45.276,95.18z" id="path2065"/></g><g id="g2096"><g id="g2092"><linearGradient id="SVGID_6_" gradientUnits="userSpaceOnUse" x1="-1856.1743" y1="-1162.2842" x2="-1842.1362" y2="-1162.2842" gradientTransform="matrix(-0.4183 0.9083 -0.9083 -0.4183 -1788.5028 1280.0063)"><stop offset="0.0056" style="stop-color:#FBCA11" id="stop2069"/><stop offset="0.2528" style="stop-color:#FFFFBF" id="stop2071"/><stop offset="0.2997" style="stop-color:#F9F3AE" id="stop2073"/><stop offset="0.393" style="stop-color:#E8D381" id="stop2075"/><stop offset="0.5226" style="stop-color:#CEA139" id="stop2077"/><stop offset="0.5955" style="stop-color:#BE820E" id="stop2079"/><stop offset="0.8558" style="stop-color:#E8D56A" id="stop2081"/><stop offset="0.8708" style="stop-color:#EADA6F" id="stop2083"/><stop offset="1" style="stop-color:#FFFFBF" id="stop2085"/></linearGradient><path fill="url(#SVGID_6_)" d="M30.446,76.396c0,0,13.486,0.423,13.611,7.492c0.123,7.065,1.932,9.244,6.395,11.815      c4.464,2.572-14.178,0.316-14.303-6.75C36.024,81.889,30.446,76.396,30.446,76.396z" id="path2088"/><path fill="#D8962D" d="M49.886,96.982c-4.019,0-13.896-2.812-13.986-8.022c-0.122-6.881-5.573-12.332-5.629-12.385      l-0.454-0.449l0.638,0.021c0.562,0.019,13.727,0.515,13.854,7.738c0.119,6.853,1.746,8.997,6.27,11.603      c0.43,0.248,0.908,0.584,0.801,0.987C51.285,96.821,50.811,96.982,49.886,96.982z M31.056,76.683      c1.324,1.482,5.238,6.354,5.344,12.268c0.087,4.942,10.055,7.532,13.486,7.532c0.763,0,0.968-0.118,1.009-0.149      c-0.025-0.01-0.123-0.155-0.567-0.412c-4.495-2.59-6.395-4.832-6.52-12.027C43.703,77.995,33.67,76.874,31.056,76.683z" id="path2090"/></g><path fill="#D8962D" d="M50.512,96.891c-0.954-0.55-2.007-1.03-3.024-1.495c-3.773-1.722-7.676-3.502-7.775-9.199     c-0.122-6.806-9.242-9.533-9.335-9.559l0.14-0.48c0.096,0.028,9.566,2.86,9.695,10.031c0.095,5.383,3.684,7.02,7.483,8.753     c1.028,0.47,2.092,0.954,3.066,1.517L50.512,96.891z" id="path2094"/></g><g id="g2125"><g id="g2121"><linearGradient id="SVGID_7_" gradientUnits="userSpaceOnUse" x1="-2085.6309" y1="-345.7393" x2="-2071.5933" y2="-345.7393" gradientTransform="matrix(-0.9318 0.3629 -0.3629 -0.9318 -2012.2167 515.5048)"><stop offset="0.0056" style="stop-color:#FBCA11" id="stop2098"/><stop offset="0.2528" style="stop-color:#FFFFBF" id="stop2100"/><stop offset="0.2997" style="stop-color:#F9F3AE" id="stop2102"/><stop offset="0.393" style="stop-color:#E8D381" id="stop2104"/><stop offset="0.5226" style="stop-color:#CEA139" id="stop2106"/><stop offset="0.5955" style="stop-color:#BE820E" id="stop2108"/><stop offset="0.8558" style="stop-color:#E8D56A" id="stop2110"/><stop offset="0.8708" style="stop-color:#EADA6F" id="stop2112"/><stop offset="1" style="stop-color:#FFFFBF" id="stop2114"/></linearGradient><path fill="url(#SVGID_7_)" d="M49.815,68.87c0,0,9.405,9.672,4.587,14.846c-4.817,5.169-5.03,7.99-3.607,12.939      c1.428,4.953-10.419-9.617-5.601-14.789C50.015,76.696,49.815,68.87,49.815,68.87z" id="path2117"/><path fill="#D8962D" d="M50.688,97.917c-1.023,0-3.936-3.653-5.624-7.535c-1.184-2.719-2.151-6.432-0.052-8.686      c4.695-5.037,4.556-12.742,4.554-12.818l-0.018-0.639l0.446,0.457c0.392,0.402,9.516,9.902,4.59,15.189      c-4.672,5.013-4.99,7.686-3.549,12.701c0.168,0.587,0.174,0.943,0.014,1.156C50.963,97.854,50.834,97.917,50.688,97.917z       M50.055,69.499c-0.076,1.988-0.645,8.211-4.679,12.537c-2.016,2.164-0.773,6.033,0.146,8.146      c1.775,4.083,4.551,7.204,5.155,7.236c-0.014-0.023,0.021-0.195-0.123-0.692c-1.434-4.983-1.24-7.917,3.666-13.181      C58.24,79.227,51.803,71.454,50.055,69.499z" id="path2119"/></g><path fill="#D8962D" d="M50.017,97.553c-0.306-1.06-0.729-2.138-1.14-3.179c-1.52-3.86-3.09-7.852,0.796-12.019     c4.64-4.979-0.026-13.276-0.074-13.36l0.434-0.248c0.05,0.086,4.896,8.703,0.007,13.949c-3.67,3.937-2.226,7.607-0.695,11.494     c0.413,1.053,0.843,2.141,1.153,3.225L50.017,97.553z" id="path2123"/></g><g id="g2154"><g id="g2150"><linearGradient id="SVGID_8_" gradientUnits="userSpaceOnUse" x1="58.6504" y1="71.5928" x2="72.6885" y2="71.5928" gradientTransform="matrix(1 0.0031 0.0031 -1 -20.5574 154.4185)"><stop offset="0.0056" style="stop-color:#FBCA11" id="stop2127"/><stop offset="0.2528" style="stop-color:#FFFFBF" id="stop2129"/><stop offset="0.2997" style="stop-color:#F9F3AE" id="stop2131"/><stop offset="0.393" style="stop-color:#E8D381" id="stop2133"/><stop offset="0.5226" style="stop-color:#CEA139" id="stop2135"/><stop offset="0.5955" style="stop-color:#BE820E" id="stop2137"/><stop offset="0.8558" style="stop-color:#E8D56A" id="stop2139"/><stop offset="0.8708" style="stop-color:#EADA6F" id="stop2141"/><stop offset="1" style="stop-color:#FFFFBF" id="stop2143"/></linearGradient><path fill="url(#SVGID_8_)" d="M40.396,69.431c0,0-5.293,12.408,1.063,15.5c6.357,3.088,7.572,5.645,8.025,10.773      c0.453,5.135,6.258-12.725-0.1-15.813C43.026,76.802,40.396,69.431,40.396,69.431z" id="path2146"/><path fill="#D8962D" d="M49.869,96.876L49.869,96.876c-0.531,0-0.604-0.836-0.633-1.149c-0.459-5.198-1.72-7.577-7.886-10.571      c-6.497-3.16-1.405-15.308-1.186-15.822l0.25-0.588l0.215,0.602c0.026,0.072,2.675,7.313,8.864,10.32      c3.57,1.734,3.543,7.979,2.434,12.798C51.824,92.915,50.883,96.876,49.869,96.876z M40.398,70.104      c-0.928,2.453-4.135,12.022,1.171,14.603c6.474,3.144,7.709,5.811,8.165,10.977c0.041,0.462,0.119,0.629,0.154,0.682      c0.477-0.254,1.756-3.51,2.115-7.539c0.234-2.644,0.193-7.289-2.729-8.709C43.955,77.53,41.186,71.931,40.398,70.104z" id="path2148"/></g><path fill="#D8962D" d="M50.037,96.303c-0.099-1.122-0.092-2.292-0.084-3.425c0.026-4.174,0.052-8.118-4.788-10.471     c-6.45-3.136-5.03-12.916-5.017-13.016l0.494,0.076c-0.016,0.095-1.377,9.516,4.741,12.49c5.122,2.49,5.096,6.777,5.068,10.925     c-0.008,1.12-0.015,2.278,0.081,3.376L50.037,96.303z" id="path2152"/></g><g id="g2183"><g id="g2179"><linearGradient id="SVGID_9_" gradientUnits="userSpaceOnUse" x1="-159.2749" y1="358.4102" x2="-145.2368" y2="358.4102" gradientTransform="matrix(0.948 0.3182 0.3182 -0.948 77.5359 470.9015)"><stop offset="0.0056" style="stop-color:#FBCA11" id="stop2156"/><stop offset="0.2528" style="stop-color:#FFFFBF" id="stop2158"/><stop offset="0.2997" style="stop-color:#F9F3AE" id="stop2160"/><stop offset="0.393" style="stop-color:#E8D381" id="stop2162"/><stop offset="0.5226" style="stop-color:#CEA139" id="stop2164"/><stop offset="0.5955" style="stop-color:#BE820E" id="stop2166"/><stop offset="0.8558" style="stop-color:#E8D56A" id="stop2168"/><stop offset="0.8708" style="stop-color:#EADA6F" id="stop2170"/><stop offset="1" style="stop-color:#FFFFBF" id="stop2172"/></linearGradient><path fill="url(#SVGID_9_)" d="M46.847,68.218c0,0-8.938,10.105-3.879,15.044c5.061,4.937,5.407,7.745,4.219,12.757      c-1.188,5.014,9.95-10.105,4.892-15.04C47.019,76.042,46.847,68.218,46.847,68.218z" id="path2175"/><path fill="#D8962D" d="M47.33,97.272C47.329,97.272,47.329,97.272,47.33,97.272c-0.143,0-0.268-0.061-0.353-0.167      c-0.163-0.206-0.173-0.56-0.034-1.146c1.205-5.077,0.759-7.731-4.15-12.52c-5.169-5.046,3.495-14.969,3.866-15.389l0.423-0.478      l0.016,0.638c0.002,0.076,0.229,7.781,5.156,12.587c1.801,1.757,1.857,5.017,0.162,9.18      C50.973,93.523,48.358,97.272,47.33,97.272z M46.638,68.856c-1.654,2.035-7.718,10.105-3.495,14.227      c5.152,5.025,5.483,7.947,4.287,12.992c-0.106,0.448-0.085,0.633-0.069,0.694c0.579-0.11,3.011-3.092,4.593-6.979      c0.936-2.293,2.17-6.467-0.049-8.633C47.669,77.026,46.808,70.839,46.638,68.856z" id="path2177"/></g><path fill="#D8962D" d="M48.01,96.872l-0.486-0.114c0.26-1.097,0.636-2.205,0.999-3.277c1.341-3.952,2.606-7.687-1.243-11.444     c-5.133-5.008-0.7-13.845-0.655-13.933l0.445,0.228c-0.044,0.086-4.31,8.598,0.56,13.348c4.076,3.979,2.699,8.037,1.367,11.963     C48.636,94.702,48.264,95.8,48.01,96.872z" id="path2181"/></g></g><g id="g2202"><radialGradient id="SVGID_10_" cx="148.9648" cy="101.4907" r="3.5946" fx="148.6326" fy="101.5208" gradientTransform="matrix(1 0 0 -1 -100.9902 199.4004)" gradientUnits="userSpaceOnUse"><stop offset="0" style="stop-color:#FFFFBF" id="stop2187"/><stop offset="0.1369" style="stop-color:#F9F3AE" id="stop2189"/><stop offset="0.4091" style="stop-color:#E8D381" id="stop2191"/><stop offset="0.7872" style="stop-color:#CEA139" id="stop2193"/><stop offset="1" style="stop-color:#BE820E" id="stop2195"/></radialGradient><rect x="45.922" y="97.005" fill="url(#SVGID_10_)" width="6.109" height="3.312" id="rect2198"/><path fill="#D8962D" d="M52.182,100.466h-6.409v-3.611h6.409V100.466z M46.073,100.165h5.808v-3.012h-5.808V100.165z" id="path2200"/></g><g id="g2219"><radialGradient id="SVGID_11_" cx="148.001" cy="345.6816" r="6.3109" fx="147.4176" fy="345.7346" gradientTransform="matrix(1 0 0 -0.6913 -100.9902 334.3099)" gradientUnits="userSpaceOnUse"><stop offset="0" style="stop-color:#FFFFBF" id="stop2204"/><stop offset="0.1369" style="stop-color:#F9F3AE" id="stop2206"/><stop offset="0.4091" style="stop-color:#E8D381" id="stop2208"/><stop offset="0.7872" style="stop-color:#CEA139" id="stop2210"/><stop offset="1" style="stop-color:#BE820E" id="stop2212"/></radialGradient><rect x="42.981" y="94.751" fill="url(#SVGID_11_)" width="11.993" height="2.162" id="rect2215"/><path fill="#D8962D" d="M55.125,97.063H42.831v-2.462h12.294V97.063L55.125,97.063z M43.131,96.764h11.693v-1.862H43.131V96.764z" id="path2217"/></g><g id="g2236"><radialGradient id="SVGID_12_" cx="146.9805" cy="94.3735" r="13.6556" fx="145.7182" fy="94.4881" gradientTransform="matrix(1 0 0 -1 -100.9902 199.4004)" gradientUnits="userSpaceOnUse"><stop offset="0" style="stop-color:#FFFFBF" id="stop2221"/><stop offset="0.1369" style="stop-color:#F9F3AE" id="stop2223"/><stop offset="0.4091" style="stop-color:#E8D381" id="stop2225"/><stop offset="0.7872" style="stop-color:#CEA139" id="stop2227"/><stop offset="1" style="stop-color:#BE820E" id="stop2229"/></radialGradient><circle fill="url(#SVGID_12_)" cx="48.978" cy="109.157" r="9.1" id="circle2232"/><path fill="#D8962D" d="M48.979,118.409c-5.103,0-9.252-4.15-9.252-9.252c0-5.1,4.149-9.25,9.252-9.25    c5.099,0,9.247,4.149,9.247,9.25C58.227,114.259,54.078,118.409,48.979,118.409z M48.979,100.206    c-4.937,0-8.951,4.016-8.951,8.951s4.016,8.951,8.951,8.951c4.933,0,8.946-4.016,8.946-8.951S53.912,100.206,48.979,100.206z" id="path2234"/></g></g><g id="g2465"><g id="g2313"><g id="g2275"><linearGradient id="SVGID_13_" gradientUnits="userSpaceOnUse" x1="31.668" y1="143.3477" x2="68.2813" y2="143.3477"><stop offset="0.0056" style="stop-color:#FBCA11" id="stop2240"/><stop offset="0.2528" style="stop-color:#FFFFBF" id="stop2242"/><stop offset="0.2997" style="stop-color:#F9F3AE" id="stop2244"/><stop offset="0.393" style="stop-color:#E8D381" id="stop2246"/><stop offset="0.5226" style="stop-color:#CEA139" id="stop2248"/><stop offset="0.5955" style="stop-color:#BE820E" id="stop2250"/><stop offset="0.8558" style="stop-color:#E8D56A" id="stop2252"/><stop offset="0.8708" style="stop-color:#EADA6F" id="stop2254"/><stop offset="1" style="stop-color:#FFFFBF" id="stop2256"/></linearGradient><polygon fill="url(#SVGID_13_)" points="57.902,147.953 68.281,143.376 57.9,138.799 59.127,127.521 49.977,134.165      40.822,127.464 42.049,138.742 31.668,143.318 42.049,147.896 42.049,147.896 40.822,159.174 49.977,152.473 59.127,159.231         " id="polygon2259"/><g id="g2273"><polygon fill="#D6A633" points="49.977,143.318 40.822,127.464 49.977,134.165     " id="polygon2261"/><polygon fill="#D6A633" points="50.053,143.353 31.744,143.354 42.125,138.776     " id="polygon2263"/><polygon fill="#D6A633" points="49.971,143.36 40.818,159.216 42.045,147.938     " id="polygon2265"/><polygon fill="#D6A633" points="49.963,143.277 59.115,159.132 49.963,152.431     " id="polygon2267"/><polygon fill="#D6A633" points="50.025,143.494 68.332,143.493 57.951,148.07     " id="polygon2269"/><polygon fill="#D6A633" points="49.959,143.543 59.109,127.688 57.883,138.966     " id="polygon2271"/></g></g><g id="g2311"><linearGradient id="SVGID_14_" gradientUnits="userSpaceOnUse" x1="44.6309" y1="143.3477" x2="55.3672" y2="143.3477"><stop offset="0.0056" style="stop-color:#FBCA11" id="stop2277"/><stop offset="0.2528" style="stop-color:#FFFFBF" id="stop2279"/><stop offset="0.2997" style="stop-color:#F9F3AE" id="stop2281"/><stop offset="0.393" style="stop-color:#E8D381" id="stop2283"/><stop offset="0.5226" style="stop-color:#CEA139" id="stop2285"/><stop offset="0.5955" style="stop-color:#BE820E" id="stop2287"/><stop offset="0.8558" style="stop-color:#E8D56A" id="stop2289"/><stop offset="0.8708" style="stop-color:#EADA6F" id="stop2291"/><stop offset="1" style="stop-color:#FFFFBF" id="stop2293"/></linearGradient><circle fill="url(#SVGID_14_)" cx="49.999" cy="143.348" r="5.368" id="circle2296"/><radialGradient id="SVGID_15_" cx="47.4263" cy="140.0547" r="7.8157" gradientUnits="userSpaceOnUse"><stop offset="0" style="stop-color:#FFFFBF" id="stop2298"/><stop offset="0.1369" style="stop-color:#F9F3AE" id="stop2300"/><stop offset="0.4091" style="stop-color:#E8D381" id="stop2302"/><stop offset="0.7872" style="stop-color:#CEA139" id="stop2304"/><stop offset="1" style="stop-color:#BE820E" id="stop2306"/></radialGradient><path fill="url(#SVGID_15_)" d="M50,147.3c-2.178,0-3.951-1.772-3.951-3.951c0-2.18,1.773-3.952,3.951-3.952     s3.951,1.772,3.951,3.952C53.951,145.527,52.178,147.3,50,147.3L50,147.3z" id="path2309"/></g></g><g id="g2388"><g id="g2350"><linearGradient id="SVGID_16_" gradientUnits="userSpaceOnUse" x1="31.668" y1="185.123" x2="68.2813" y2="185.123"><stop offset="0.0056" style="stop-color:#FBCA11" id="stop2315"/><stop offset="0.2528" style="stop-color:#FFFFBF" id="stop2317"/><stop offset="0.2997" style="stop-color:#F9F3AE" id="stop2319"/><stop offset="0.393" style="stop-color:#E8D381" id="stop2321"/><stop offset="0.5226" style="stop-color:#CEA139" id="stop2323"/><stop offset="0.5955" style="stop-color:#BE820E" id="stop2325"/><stop offset="0.8558" style="stop-color:#E8D56A" id="stop2327"/><stop offset="0.8708" style="stop-color:#EADA6F" id="stop2329"/><stop offset="1" style="stop-color:#FFFFBF" id="stop2331"/></linearGradient><polygon fill="url(#SVGID_16_)" points="57.902,189.729 68.281,185.151 57.9,180.574 59.127,169.297 49.977,175.94      40.822,169.239 42.049,180.518 31.668,185.094 42.049,189.672 42.049,189.672 40.822,200.949 49.977,194.248 59.127,201.007         " id="polygon2334"/><g id="g2348"><polygon fill="#D6A633" points="49.977,185.094 40.822,169.239 49.977,175.94     " id="polygon2336"/><polygon fill="#D6A633" points="50.053,185.128 31.744,185.129 42.125,180.552     " id="polygon2338"/><polygon fill="#D6A633" points="49.971,185.136 40.818,200.991 42.045,189.713     " id="polygon2340"/><polygon fill="#D6A633" points="49.963,185.053 59.115,200.907 49.963,194.206     " id="polygon2342"/><polygon fill="#D6A633" points="50.025,185.27 68.332,185.269 57.951,189.846     " id="polygon2344"/><polygon fill="#D6A633" points="49.959,185.318 59.109,169.463 57.883,180.741     " id="polygon2346"/></g></g><g id="g2386"><linearGradient id="SVGID_17_" gradientUnits="userSpaceOnUse" x1="44.6309" y1="185.123" x2="55.3672" y2="185.123"><stop offset="0.0056" style="stop-color:#FBCA11" id="stop2352"/><stop offset="0.2528" style="stop-color:#FFFFBF" id="stop2354"/><stop offset="0.2997" style="stop-color:#F9F3AE" id="stop2356"/><stop offset="0.393" style="stop-color:#E8D381" id="stop2358"/><stop offset="0.5226" style="stop-color:#CEA139" id="stop2360"/><stop offset="0.5955" style="stop-color:#BE820E" id="stop2362"/><stop offset="0.8558" style="stop-color:#E8D56A" id="stop2364"/><stop offset="0.8708" style="stop-color:#EADA6F" id="stop2366"/><stop offset="1" style="stop-color:#FFFFBF" id="stop2368"/></linearGradient><circle fill="url(#SVGID_17_)" cx="49.999" cy="185.123" r="5.368" id="circle2371"/><radialGradient id="SVGID_18_" cx="47.4263" cy="181.8301" r="7.8157" gradientUnits="userSpaceOnUse"><stop offset="0" style="stop-color:#FFFFBF" id="stop2373"/><stop offset="0.1369" style="stop-color:#F9F3AE" id="stop2375"/><stop offset="0.4091" style="stop-color:#E8D381" id="stop2377"/><stop offset="0.7872" style="stop-color:#CEA139" id="stop2379"/><stop offset="1" style="stop-color:#BE820E" id="stop2381"/></radialGradient><path fill="url(#SVGID_18_)" d="M50,189.075c-2.178,0-3.951-1.772-3.951-3.951c0-2.18,1.773-3.952,3.951-3.952     s3.951,1.772,3.951,3.952C53.951,187.303,52.178,189.075,50,189.075L50,189.075z" id="path2384"/></g></g><g id="g2463"><g id="g2425"><linearGradient id="SVGID_19_" gradientUnits="userSpaceOnUse" x1="31.668" y1="226.8975" x2="68.2813" y2="226.8975"><stop offset="0.0056" style="stop-color:#FBCA11" id="stop2390"/><stop offset="0.2528" style="stop-color:#FFFFBF" id="stop2392"/><stop offset="0.2997" style="stop-color:#F9F3AE" id="stop2394"/><stop offset="0.393" style="stop-color:#E8D381" id="stop2396"/><stop offset="0.5226" style="stop-color:#CEA139" id="stop2398"/><stop offset="0.5955" style="stop-color:#BE820E" id="stop2400"/><stop offset="0.8558" style="stop-color:#E8D56A" id="stop2402"/><stop offset="0.8708" style="stop-color:#EADA6F" id="stop2404"/><stop offset="1" style="stop-color:#FFFFBF" id="stop2406"/></linearGradient><polygon fill="url(#SVGID_19_)" points="57.902,231.503 68.281,226.926 57.9,222.349 59.127,211.071 49.977,217.715      40.822,211.014 42.049,222.292 31.668,226.868 42.049,231.446 42.049,231.446 40.822,242.724 49.977,236.022 59.127,242.781         " id="polygon2409"/><g id="g2423"><polygon fill="#D6A633" points="49.977,226.868 40.822,211.014 49.977,217.715     " id="polygon2411"/><polygon fill="#D6A633" points="50.053,226.902 31.744,226.903 42.125,222.326     " id="polygon2413"/><polygon fill="#D6A633" points="49.971,226.91 40.818,242.766 42.045,231.487     " id="polygon2415"/><polygon fill="#D6A633" points="49.963,226.827 59.115,242.682 49.963,235.98     " id="polygon2417"/><polygon fill="#D6A633" points="50.025,227.044 68.332,227.043 57.951,231.62     " id="polygon2419"/><polygon fill="#D6A633" points="49.959,227.093 59.109,211.237 57.883,222.516     " id="polygon2421"/></g></g><g id="g2461"><linearGradient id="SVGID_20_" gradientUnits="userSpaceOnUse" x1="44.6309" y1="226.8984" x2="55.3672" y2="226.8984"><stop offset="0.0056" style="stop-color:#FBCA11" id="stop2427"/><stop offset="0.2528" style="stop-color:#FFFFBF" id="stop2429"/><stop offset="0.2997" style="stop-color:#F9F3AE" id="stop2431"/><stop offset="0.393" style="stop-color:#E8D381" id="stop2433"/><stop offset="0.5226" style="stop-color:#CEA139" id="stop2435"/><stop offset="0.5955" style="stop-color:#BE820E" id="stop2437"/><stop offset="0.8558" style="stop-color:#E8D56A" id="stop2439"/><stop offset="0.8708" style="stop-color:#EADA6F" id="stop2441"/><stop offset="1" style="stop-color:#FFFFBF" id="stop2443"/></linearGradient><circle fill="url(#SVGID_20_)" cx="49.999" cy="226.897" r="5.368" id="circle2446"/><radialGradient id="SVGID_21_" cx="47.4263" cy="223.6055" r="7.8151" gradientUnits="userSpaceOnUse"><stop offset="0" style="stop-color:#FFFFBF" id="stop2448"/><stop offset="0.1369" style="stop-color:#F9F3AE" id="stop2450"/><stop offset="0.4091" style="stop-color:#E8D381" id="stop2452"/><stop offset="0.7872" style="stop-color:#CEA139" id="stop2454"/><stop offset="1" style="stop-color:#BE820E" id="stop2456"/></radialGradient><path fill="url(#SVGID_21_)" d="M50,230.85c-2.178,0-3.951-1.772-3.951-3.951c0-2.18,1.773-3.952,3.951-3.952     s3.951,1.772,3.951,3.952C53.951,229.077,52.178,230.85,50,230.85L50,230.85z" id="path2459"/></g></g></g></svg>