<?xml version="1.0" encoding="UTF-8" standalone="no"?>
<!-- Generator: Adobe Illustrator 16.0.3, SVG Export Plug-In . SVG Version: 6.00 Build 0)  -->
<svg xmlns:dc="http://purl.org/dc/elements/1.1/" xmlns:cc="http://creativecommons.org/ns#" xmlns:rdf="http://www.w3.org/1999/02/22-rdf-syntax-ns#" xmlns:svg="http://www.w3.org/2000/svg" xmlns="http://www.w3.org/2000/svg" xmlns:sodipodi="http://sodipodi.sourceforge.net/DTD/sodipodi-0.dtd" xmlns:inkscape="http://www.inkscape.org/namespaces/inkscape" version="1.1" id="Layer_1" x="0px" y="0px" width="100px" height="256px" viewBox="0 0 100 256" enable-background="new 0 0 100 256" xml:space="preserve" sodipodi:docname="Army-GRE-OF-01b.svg" inkscape:version="0.92.2 (5c3e80d, 2017-08-06)"><metadata id="metadata208"><rdf:RDF><cc:Work rdf:about=""><dc:format>image/svg+xml</dc:format><dc:type rdf:resource="http://purl.org/dc/dcmitype/StillImage"/></cc:Work></rdf:RDF></metadata><defs id="defs206"/><sodipodi:namedview pagecolor="#ffffff" bordercolor="#666666" borderopacity="1" objecttolerance="10" gridtolerance="10" guidetolerance="10" inkscape:pageopacity="0" inkscape:pageshadow="2" inkscape:window-width="1920" inkscape:window-height="1016" id="namedview204" showgrid="false" inkscape:zoom="0.921875" inkscape:cx="52.169492" inkscape:cy="128" inkscape:window-x="0" inkscape:window-y="27" inkscape:window-maximized="1" inkscape:current-layer="Layer_1"/><polygon fill="#2D2D2B" points="100,256 0,256 7,30 50,0 93,30 " id="polygon2" style="fill:#3f4845;fill-opacity:1"/><g id="g12"><g id="g6"><path d="M44.988,65.288V27.401c0-2.768,2.244-5.01,5.01-5.01l0,0c2.766,0,5.01,2.242,5.012,5.01l0,0v37.887h-0.002    c0,2.766-2.244,5.008-5.01,5.008l0,0C47.232,70.295,44.988,68.053,44.988,65.288L44.988,65.288z M45.988,27.401l-0.002,37.887    c0.006,2.213,1.797,4.006,4.012,4.01l0,0c2.215-0.004,4.008-1.797,4.012-4.01l0,0V27.401c-0.004-2.215-1.797-4.006-4.012-4.01l0,0    C47.783,23.395,45.992,25.186,45.988,27.401L45.988,27.401z" id="path4"/></g><g id="g10"><path d="M49.609,65.985l-0.223-39.277c-0.002-0.277,0.221-0.502,0.496-0.504l0,0c0.277-0.002,0.502,0.221,0.504,0.498l0,0    l0.223,39.277c0.002,0.277-0.221,0.502-0.497,0.504l0,0c-0.002,0-0.004,0-0.004,0l0,0C49.834,66.483,49.611,66.26,49.609,65.985    L49.609,65.985z" id="path8"/></g></g><g id="g54"><g id="g52"><g id="g37"><linearGradient id="SVGID_1_" gradientUnits="userSpaceOnUse" x1="-973.0171" y1="228.4209" x2="-954.3817" y2="247.0564" gradientTransform="matrix(0 -1 -1 0 287.7402 -930.6992)"><stop offset="0.0056" style="stop-color:#FBCA11" id="stop14"/><stop offset="0.2528" style="stop-color:#FFFFBF" id="stop16"/><stop offset="0.2997" style="stop-color:#F9F3AE" id="stop18"/><stop offset="0.393" style="stop-color:#E8D381" id="stop20"/><stop offset="0.5226" style="stop-color:#CEA139" id="stop22"/><stop offset="0.5955" style="stop-color:#BE820E" id="stop24"/><stop offset="0.8558" style="stop-color:#E8D56A" id="stop26"/><stop offset="0.8708" style="stop-color:#EADA6F" id="stop28"/><stop offset="1" style="stop-color:#FFFFBF" id="stop30"/></linearGradient><circle fill="url(#SVGID_1_)" cx="50" cy="33" r="13.177" id="circle33"/><path fill="#D8962D" d="M50,46.427c-7.403,0-13.426-6.023-13.426-13.426c0-7.405,6.022-13.429,13.426-13.429     c7.404,0,13.426,6.024,13.426,13.429C63.426,40.404,57.402,46.427,50,46.427z M50,20.073c-7.127,0-12.926,5.8-12.926,12.929     c0,7.127,5.799,12.926,12.926,12.926s12.926-5.798,12.926-12.926C62.926,25.873,57.127,20.073,50,20.073z" id="path35"/></g><radialGradient id="SVGID_2_" cx="-963.6992" cy="237.7402" r="11.0974" gradientTransform="matrix(0 -1 -1 0 287.7402 -930.6992)" gradientUnits="userSpaceOnUse"><stop offset="0" style="stop-color:#FFFFBF" id="stop39"/><stop offset="0.1369" style="stop-color:#F9F3AE" id="stop41"/><stop offset="0.4091" style="stop-color:#E8D381" id="stop43"/><stop offset="0.7872" style="stop-color:#CEA139" id="stop45"/><stop offset="1" style="stop-color:#BE820E" id="stop47"/></radialGradient><path fill="url(#SVGID_2_)" d="M38.904,33.005c0.006,6.133,4.965,11.087,11.094,11.094l0,0    c6.129-0.007,11.084-4.961,11.098-11.094l0,0c-0.014-6.126-4.969-11.091-11.098-11.104l0,0    C43.869,21.915,38.91,26.879,38.904,33.005L38.904,33.005z" id="path50"/></g></g><g id="g201"><g id="g199"><g id="g167"><linearGradient id="SVGID_3_" gradientUnits="userSpaceOnUse" x1="31.667" y1="226.8662" x2="68.2822" y2="226.8662"><stop offset="0" style="stop-color:#C3B0AE" id="stop56"/><stop offset="0.1259" style="stop-color:#C7B6B4" id="stop58"/><stop offset="0.2918" style="stop-color:#D2C6C3" id="stop60"/><stop offset="0.4793" style="stop-color:#E5E2DD" id="stop62"/><stop offset="0.5112" style="stop-color:#E9E7E2" id="stop64"/><stop offset="0.5929" style="stop-color:#D3D0CC" id="stop66"/><stop offset="0.7647" style="stop-color:#9B9493" id="stop68"/><stop offset="1" style="stop-color:#453A3D" id="stop70"/></linearGradient><polygon fill="url(#SVGID_3_)" points="57.903,231.472 68.282,226.895 57.901,222.317 59.128,211.04 49.976,217.684      40.821,210.982 42.048,222.261 31.667,226.837 42.048,231.415 42.048,231.415 40.821,242.692 49.976,235.991 59.128,242.75         " id="polygon73"/><g id="g165"><linearGradient id="SVGID_4_" gradientUnits="userSpaceOnUse" x1="45.3984" y1="218.9092" x2="49.3624" y2="216.6206"><stop offset="0.0056" style="stop-color:#DFE2E2" id="stop75"/><stop offset="0.2528" style="stop-color:#FFFFE0" id="stop77"/><stop offset="0.3797" style="stop-color:#F1EED4" id="stop79"/><stop offset="0.5955" style="stop-color:#D1C8B8" id="stop81"/><stop offset="0.7865" style="stop-color:#EDEDED" id="stop83"/><stop offset="1" style="stop-color:#D1D1AD" id="stop85"/></linearGradient><polygon fill="url(#SVGID_4_)" points="49.976,226.837 40.821,210.982 49.976,217.684     " id="polygon88"/><linearGradient id="SVGID_5_" gradientUnits="userSpaceOnUse" x1="83.6523" y1="1043.0059" x2="87.6163" y2="1040.7173" gradientTransform="matrix(0.5 -0.866 0.866 0.5 -904.1708 -222.1878)"><stop offset="0.0056" style="stop-color:#DFE2E2" id="stop90"/><stop offset="0.2528" style="stop-color:#FFFFE0" id="stop92"/><stop offset="0.3797" style="stop-color:#F1EED4" id="stop94"/><stop offset="0.5955" style="stop-color:#D1C8B8" id="stop96"/><stop offset="0.7865" style="stop-color:#EDEDED" id="stop98"/><stop offset="1" style="stop-color:#D1D1AD" id="stop100"/></linearGradient><polygon fill="url(#SVGID_5_)" points="50.052,226.871 31.744,226.872 42.125,222.295     " id="polygon103"/><linearGradient id="SVGID_6_" gradientUnits="userSpaceOnUse" x1="-604.8047" y1="1483.5684" x2="-600.8408" y2="1481.2798" gradientTransform="matrix(-0.5 -0.866 0.866 -0.5 -1541.7788 452.8317)"><stop offset="0.0056" style="stop-color:#DFE2E2" id="stop105"/><stop offset="0.2528" style="stop-color:#FFFFE0" id="stop107"/><stop offset="0.3797" style="stop-color:#F1EED4" id="stop109"/><stop offset="0.5955" style="stop-color:#D1C8B8" id="stop111"/><stop offset="0.7865" style="stop-color:#EDEDED" id="stop113"/><stop offset="1" style="stop-color:#D1D1AD" id="stop115"/></linearGradient><polygon fill="url(#SVGID_6_)" points="49.97,226.879 40.817,242.734 42.044,231.456     " id="polygon118"/><linearGradient id="SVGID_7_" gradientUnits="userSpaceOnUse" x1="-1336.729" y1="1111.9561" x2="-1332.7651" y2="1109.6675" gradientTransform="matrix(-1 0 0 -1 -1282.1895 1346.6797)"><stop offset="0.0056" style="stop-color:#DFE2E2" id="stop120"/><stop offset="0.2528" style="stop-color:#FFFFE0" id="stop122"/><stop offset="0.3797" style="stop-color:#F1EED4" id="stop124"/><stop offset="0.5955" style="stop-color:#D1C8B8" id="stop126"/><stop offset="0.7865" style="stop-color:#EDEDED" id="stop128"/><stop offset="1" style="stop-color:#D1D1AD" id="stop130"/></linearGradient><polygon fill="url(#SVGID_7_)" points="49.962,226.796 59.116,242.65 49.962,235.949     " id="polygon133"/><linearGradient id="SVGID_8_" gradientUnits="userSpaceOnUse" x1="-1373.1484" y1="286.9746" x2="-1369.1846" y2="284.686" gradientTransform="matrix(-0.5 0.866 -0.866 -0.5 -378.876 1559.6458)"><stop offset="0.0056" style="stop-color:#DFE2E2" id="stop135"/><stop offset="0.2528" style="stop-color:#FFFFE0" id="stop137"/><stop offset="0.3797" style="stop-color:#F1EED4" id="stop139"/><stop offset="0.5955" style="stop-color:#D1C8B8" id="stop141"/><stop offset="0.7865" style="stop-color:#EDEDED" id="stop143"/><stop offset="1" style="stop-color:#D1D1AD" id="stop145"/></linearGradient><polygon fill="url(#SVGID_8_)" points="50.024,227.013 68.333,227.012 57.952,231.589     " id="polygon148"/><linearGradient id="SVGID_9_" gradientUnits="userSpaceOnUse" x1="-684.8408" y1="-151.5586" x2="-680.8777" y2="-153.8467" gradientTransform="matrix(0.5 0.866 -0.866 0.5 265.705 887.9847)"><stop offset="0.0056" style="stop-color:#DFE2E2" id="stop150"/><stop offset="0.2528" style="stop-color:#FFFFE0" id="stop152"/><stop offset="0.3797" style="stop-color:#F1EED4" id="stop154"/><stop offset="0.5955" style="stop-color:#D1C8B8" id="stop156"/><stop offset="0.7865" style="stop-color:#EDEDED" id="stop158"/><stop offset="1" style="stop-color:#D1D1AD" id="stop160"/></linearGradient><polygon fill="url(#SVGID_9_)" points="49.958,227.062 59.11,211.206 57.884,222.484     " id="polygon163"/></g></g><g id="g197"><linearGradient id="SVGID_10_" gradientUnits="userSpaceOnUse" x1="44.6309" y1="226.8672" x2="55.3682" y2="226.8672"><stop offset="0.0056" style="stop-color:#DFE2E2" id="stop169"/><stop offset="0.2528" style="stop-color:#FFFFE0" id="stop171"/><stop offset="0.3797" style="stop-color:#F1EED4" id="stop173"/><stop offset="0.5955" style="stop-color:#D1C8B8" id="stop175"/><stop offset="0.7865" style="stop-color:#EDEDED" id="stop177"/><stop offset="1" style="stop-color:#D1D1AD" id="stop179"/></linearGradient><circle fill="url(#SVGID_10_)" cx="50" cy="226.866" r="5.369" id="circle182"/><radialGradient id="SVGID_11_" cx="47.4253" cy="223.5742" r="7.8161" gradientUnits="userSpaceOnUse"><stop offset="0" style="stop-color:#E7E3DE" id="stop184"/><stop offset="0" style="stop-color:#DFDAD3" id="stop186"/><stop offset="0.182" style="stop-color:#D1CBC5" id="stop188"/><stop offset="0.5313" style="stop-color:#ABA4A1" id="stop190"/><stop offset="1" style="stop-color:#6F6768" id="stop192"/></radialGradient><path fill="url(#SVGID_11_)" d="M49.999,230.818c-2.178,0-3.951-1.772-3.951-3.951c0-2.18,1.773-3.952,3.951-3.952     c2.18,0,3.953,1.772,3.953,3.952C53.952,229.046,52.179,230.818,49.999,230.818L49.999,230.818z" id="path195"/></g></g></g></svg>